<svg width="160" height="208" viewBox="0 0 160 208" fill="none" xmlns="http://www.w3.org/2000/svg">
<g style="mix-blend-mode:luminosity">
<path d="M0 126.219C0 82.3027 35.6016 46.7012 79.5183 46.7012C123.435 46.7012 159.037 82.3027 159.037 126.219C159.037 170.136 123.435 205.738 79.5183 205.738C35.6016 205.738 0 170.136 0 126.219Z" fill="white"/>
</g>
<mask id="mask0_5_56904" style="mask-type:alpha" maskUnits="userSpaceOnUse" x="0" y="0" width="160" height="207">
<path d="M0.630859 79.5183C0.630859 35.6016 36.2324 0 80.1492 0C124.066 0 159.667 35.6016 159.667 79.5183V127.482C159.667 171.398 124.066 207 80.1492 207C36.2324 207 0.630859 171.398 0.630859 127.482L0.630859 79.5183Z" fill="url(#paint0_linear_5_56904)"/>
</mask>
<g mask="url(#mask0_5_56904)">
<path d="M39.6549 123.571C34.1205 138.066 31.6389 184.295 31.0898 205.598H91.3743C90.5837 197.164 95.2176 159.918 97.6334 142.348C99.2146 136.551 104.661 124.34 107.187 118.959C120.364 117.115 122.999 111.163 122.67 108.418C122.67 101.302 115.203 98.8645 111.469 98.5351C116.74 98.008 123.768 95.4605 126.623 94.2526C133.211 90.0359 131.125 80.4168 129.258 76.1343C129.522 69.5458 126.293 67.6791 124.646 67.5693C122.801 66.2516 110.701 70.3145 104.881 72.5106C119.112 65.6586 122.67 61.5298 122.67 60.322C122.143 50.571 116.74 49.8902 114.105 50.7687C98.5558 53.9311 83.2486 61.5298 77.5386 64.9339C50.8553 79.7579 46.5727 105.453 39.6549 123.571Z" fill="#FCB7A0" stroke="#744B15" stroke-width="1.2622"/>
<path d="M104.551 120.277C103.123 120.607 99.939 120.541 98.6213 117.642C97.084 114.128 95.2612 106.639 100.268 104.794" stroke="#744B15" stroke-width="1.5" stroke-linecap="round"/>
<path d="M82.1504 139.713L86.1035 141.36" stroke="#744B15" stroke-width="1.5" stroke-linecap="round"/>
<path d="M128.599 81.7344L101.586 84.0403" stroke="#744B15" stroke-width="2.60136" stroke-linecap="round"/>
<path d="M32.7376 156.185L30.4316 175.621C54.4137 191.169 84.5669 183.197 96.6458 177.268L97.3046 159.808C75.6944 171.931 45.2557 162.444 32.7376 156.185Z" fill="#E0E6ED" stroke="#91D5DD" stroke-width="1.2622"/>
<path d="M28.125 174.632L27.1367 207.245H100.928V174.632C66.9311 182.011 38.2273 177.707 28.125 174.632Z" fill="#1A4E66"/>
<path d="M28.125 74.4872C28.125 73.8794 27.9059 70.5408 27.6573 66.9595C27.3205 62.1082 27.4679 57.2342 28.125 52.4158C28.125 43.192 38.8862 40.0076 44.2667 39.5683L71.2795 37.2624L104.881 36.6035H132.882C141.578 36.6035 145.949 46.047 146.388 50.7687L148.694 70.8636L149.353 94.2526C150.143 105.585 140.898 108.857 136.176 109.077L125.964 109.736L103.892 110.724H67.3264H55.5409C51.1056 110.724 46.6764 110.393 42.2902 109.736C34.384 108.945 31.3094 98.2057 30.7604 92.9349C29.8819 87.2249 28.125 75.5414 28.125 74.4872Z" fill="#BD3E46"/>
<path d="M40.9727 51.4276V60.6514H52.8319L52.5025 51.0981L41.3021 51.4276" stroke="#FFCB05" stroke-width="2.60136"/>
<path d="M44.2676 89.9702H57.4445M60.7388 89.9702H72.9274M76.8805 89.9702H90.3869M44.2676 96.2293H53.162M56.1268 96.2293H65.3507M69.3038 96.2293H79.1865M82.4807 96.2293H91.0457M95.6577 96.2293H106.529" stroke="#FFCB05" stroke-width="2.60136" stroke-linecap="round"/>
<path d="M120.693 51.757C121.352 52.9649 122.406 55.7101 121.352 57.0277M124.646 50.7687C125.525 51.9766 127.018 54.9194 125.964 57.0277M128.27 49.1216C129.368 50.5491 131.169 54.1288 129.588 57.0277" stroke="#FFCB05" stroke-width="2.60136" stroke-linecap="round"/>
<circle cx="126.623" cy="93.2646" r="5.92962" fill="#C4C4C4"/>
<circle cx="132.553" cy="93.2646" r="5.92962" fill="#568184"/>
<path d="M77.8688 84.6994C73.1251 84.1723 57.4446 107.1 50.1973 118.63H84.4573C78.3959 108.879 81.9317 97.8763 84.4573 93.5938C86.1044 86.6759 83.7985 85.3582 77.8688 84.6994Z" fill="#FCB7A0"/>
<path d="M49.8672 117.971L63.3736 97.8765" stroke="#744B15" stroke-width="1.2622" stroke-linecap="round"/>
<path d="M81.8213 100.182C80.1742 105.453 78.3294 116.653 84.1272 119.289" stroke="#744B15" stroke-width="1.2622" stroke-linecap="round"/>
</g>
<defs>
<linearGradient id="paint0_linear_5_56904" x1="0.630859" y1="103.5" x2="159.667" y2="103.5" gradientUnits="userSpaceOnUse">
<stop stop-color="#00F5A0"/>
<stop offset="1" stop-color="#00D9F5"/>
</linearGradient>
</defs>
</svg>
