<svg width="166" height="233" viewBox="0 0 166 233" fill="none" xmlns="http://www.w3.org/2000/svg">
<g style="mix-blend-mode:luminosity">
<path d="M0.65625 121.351C0.65625 75.7046 37.6597 38.7012 83.3058 38.7012C128.952 38.7012 165.955 75.7046 165.955 121.351C165.955 166.997 128.952 204 83.3058 204C37.6597 204 0.65625 166.997 0.65625 121.351Z" fill="white"/>
</g>
<mask id="mask0_5_73249" style="mask-type:alpha" maskUnits="userSpaceOnUse" x="0" y="0" width="166" height="204">
<path d="M0 82.6494C0 37.0034 37.0035 0 82.6495 0C128.296 0 165.299 37.0034 165.299 82.6495V120.695C165.299 166.341 128.296 203.344 82.6495 203.344C37.0035 203.344 0 166.341 0 120.695L0 82.6494Z" fill="url(#paint0_linear_5_73249)"/>
</mask>
<g mask="url(#mask0_5_73249)">
<path d="M36.4818 136.723C29.8629 154.059 26.8949 209.347 26.2383 234.824H98.3367C97.3911 224.739 102.933 180.193 105.822 159.18C107.713 152.246 114.227 137.643 117.248 131.208C133.007 129.001 136.159 121.883 135.765 118.6C135.765 110.09 126.835 107.175 122.369 106.781C128.673 106.15 137.078 103.104 140.493 101.659C148.372 96.6161 145.877 85.1119 143.644 79.9902C143.96 72.1106 140.099 69.878 138.129 69.7467C135.922 68.1708 121.45 73.0299 114.49 75.6564C131.51 67.4616 135.765 62.5237 135.765 61.0791C135.134 49.4173 128.673 48.6031 125.521 49.6537C106.925 53.4359 88.6185 62.5237 81.7895 66.5949C49.8771 84.324 44.7554 115.054 36.4818 136.723Z" fill="#FF9BA5" stroke="#744B15" stroke-width="1.42789"/>
<path d="M114.095 132.784C112.388 133.178 108.579 133.099 107.003 129.632C105.165 125.429 102.985 116.473 108.973 114.267" stroke="#744B15" stroke-width="1.57592" stroke-linecap="round"/>
<path d="M87.3066 156.028L92.0344 157.998" stroke="#744B15" stroke-width="2" stroke-linecap="round"/>
<path d="M142.857 86.688L110.551 89.4459" stroke="#744B15" stroke-width="1.57592" stroke-linecap="round"/>
<path d="M137.784 78.16L135.148 94.7571C135.083 95.1645 132.414 95.1642 131.088 95.1131L114.191 93.7308L83.8607 93.1173L46.0008 90.8578C42.3537 90.6401 39.548 87.5497 39.6828 83.8987L43.0459 47.5988C43.0175 44.9376 44.9675 43.9948 47.0451 43.8087C49.3543 43.6018 51.6834 44.0676 54.0017 44.0428L61.139 43.9664L73.0206 44.152L109.919 45.0078L138.882 46.8085C139.576 46.8516 140.238 47.1159 140.77 47.5627C141.633 48.2865 142.06 49.4053 141.899 50.5201L140.121 62.8167L137.784 78.16Z" fill="#50B557" stroke="#AFD89D" stroke-width="2.57778" stroke-linejoin="round"/>
<path d="M138.497 88.7299L137.545 105.508C137.522 105.92 134.866 106.188 133.541 106.271L116.592 106.597L86.3534 109.04L48.4584 110.604C44.8079 110.754 41.7053 107.962 41.4718 104.316L41.1632 67.8621C40.867 65.2173 42.7121 64.083 44.7605 63.6886C47.0371 63.2503 49.4013 63.4793 51.7053 63.2212L58.7987 62.4266L70.6385 61.415L107.435 58.5515L136.433 57.4271C137.127 57.4001 137.813 57.5965 138.387 57.9874C139.319 58.6206 139.856 59.6908 139.808 60.8161L139.277 73.2292L138.497 88.7299Z" fill="#50B557" stroke="#AFD89C" stroke-width="2.57778" stroke-linejoin="round"/>
<path d="M56.1493 64.9355L54.251 81.633C54.2044 82.0429 56.7764 82.7564 58.0682 83.0619L74.7187 86.2483L104.109 93.7682L141.194 101.715C144.767 102.481 148.297 100.254 149.143 96.6994L155.61 60.8222C156.349 58.2655 154.722 56.8356 152.77 56.1006C150.6 55.2837 148.231 55.1097 146.004 54.4659L139.147 52.4836L127.649 49.4851L91.8652 40.4424L63.4753 34.4321C62.7951 34.2881 62.0868 34.3659 61.4541 34.6539C60.429 35.1206 59.7183 36.0845 59.5755 37.2017L58.0007 49.526L56.1493 64.9355Z" fill="#50B557" stroke="#AFD89F" stroke-width="2.57778" stroke-linejoin="round"/>
<path d="M67.6216 64.7463L76.5494 62.162L74.2003 66.8264L79.459 65.7856L78.6819 68.2434L82.7572 68.1803M69.3117 42.3003C69.893 44.7371 69.2574 49.3124 62.0645 48.1195L57.5912 75.0926C59.8985 74.921 64.0467 76.0524 62.1815 81.9512L69.9436 83.0537L93.6185 85.1324L118.911 86.3707L134.435 88.5758C136.483 89.2234 140.645 89.4578 140.905 85.2144C140.884 83.8559 141.747 81.6957 145.369 83.9223L146.797 70.8559L147.899 63.0938C144.493 62.4672 138.961 59.7268 144.086 53.7774C144.345 52.9581 143.803 51.2545 139.559 50.9942L69.3117 42.3003Z" stroke="#AFD89D" stroke-width="2.57778" stroke-linecap="round" stroke-linejoin="round"/>
<path d="M59.223 73.9532L55.9085 57.4783C55.8272 57.0739 58.329 56.1438 59.59 55.7292L75.9084 51.1354L104.551 41.1379L140.824 30.0589C144.318 28.9916 148.025 30.9102 149.171 34.3793L158.672 69.5748C159.626 72.0592 158.127 73.6225 156.245 74.5212C154.153 75.5201 151.807 75.8953 149.643 76.7267L142.98 79.2861L131.779 83.2537L96.8965 95.3133L69.1221 103.721C68.4567 103.923 67.7443 103.906 67.0893 103.673C66.0282 103.295 65.2379 102.395 65.0005 101.294L62.381 89.1488L59.223 73.9532Z" fill="#50B557" stroke="#AFD89C" stroke-width="2.57778" stroke-linejoin="round"/>
<path d="M73.8276 76.4423L81.1327 70.6961L80.706 75.9011L85.1897 72.9627L85.3918 75.5325L89.1455 73.9443M66.9694 55.003C68.4228 57.0434 69.5509 61.5228 62.4362 63.1169L68.4138 89.7969C70.488 88.7718 74.7576 88.2636 75.2428 94.4312L82.8512 92.5397L105.575 85.5805L129.483 77.2352L144.7 73.4523C146.842 73.2838 150.787 71.9392 149.436 67.9083C148.906 66.6571 148.896 64.3307 153.088 65.0352L149.508 52.3882L147.616 44.7797C144.223 45.4776 138.067 45.0138 140.585 37.5756C140.518 36.719 139.375 35.3437 135.344 36.6951L66.9694 55.003Z" stroke="#AED79B" stroke-width="2.57778" stroke-linecap="round" stroke-linejoin="round"/>
<path d="M35.5897 82.7376L33.6581 66.0206C33.6106 65.6103 36.2482 64.8936 37.573 64.5866L54.6472 61.3816L84.7869 53.8263L122.961 45.8062C126.553 45.0515 130.095 47.2854 130.962 50.852L137.561 86.769C139.408 93.0266 127.973 93.0664 121.695 94.8437L120.675 95.1325L108.883 98.145L72.187 107.231L43.0489 113.278C42.3671 113.42 41.6581 113.344 41.0216 113.062C39.96 112.59 39.2207 111.6 39.071 110.448L37.4744 98.165L35.5897 82.7376Z" fill="#50B557" stroke="#AAD69A" stroke-width="2.57778" stroke-linejoin="round"/>
<path d="M45.9825 72.4504L44.6936 55.6949C44.662 55.2836 47.2582 54.6642 48.5603 54.406L65.3159 51.8282L94.9604 45.3837L138.783 37.6504L140.072 44.0948L145.227 80.1838C146.258 84.3082 141.36 85.3393 138.783 85.3393L128.472 87.9171L116.872 90.4949L80.7826 98.2282L51.1381 103.384L48.5603 102.095L47.2714 87.9171L45.9825 72.4504Z" fill="#50B557" stroke="#AAD69A" stroke-width="2.57778" stroke-linejoin="round"/>
<path d="M60.1607 78.8949L67.8941 73.7394L67.0604 78.8949L71.7607 76.3171L71.7607 78.8949L75.6274 77.606M55.0052 56.9838C56.2941 59.1319 57.0674 63.686 49.8496 64.7171L53.7163 91.7838C55.8644 90.9246 60.1607 90.7527 60.1607 96.9394L67.8941 95.6505L91.0941 90.4949L115.583 84.0505L131.05 81.4727C133.198 81.4727 137.236 80.4416 136.205 76.3171C135.776 75.0283 135.948 72.7083 140.072 73.7394L137.494 60.8505L136.205 53.1171C132.768 53.5467 126.667 52.6016 129.761 45.3838C129.761 44.5245 128.73 43.0638 124.605 44.0949L55.0052 56.9838Z" stroke="#AAD69A" stroke-width="2.57778" stroke-linecap="round" stroke-linejoin="round"/>
<path d="M122.027 63.4279L129.761 60.8501" stroke="#AFD89D" stroke-width="2.57778" stroke-linecap="round" stroke-linejoin="round"/>
<path d="M122.027 67.2946L129.761 64.7168" stroke="#AFD89D" stroke-width="2.57778" stroke-linecap="round" stroke-linejoin="round"/>
<path d="M124.605 71.161L128.472 69.8721" stroke="#AFD89D" stroke-width="2.57778" stroke-linecap="round" stroke-linejoin="round"/>
<path d="M94.0725 50.8688C95.6741 50.6686 97.391 49.9482 98.9866 49.9482C99.7542 49.7776 101.967 49.8689 102.721 49.9482C104.61 50.1471 107.733 51.6619 109.204 52.7489C111.09 54.1433 113.359 55.5052 114.805 57.4166C116.701 59.922 117.509 63.277 118.008 66.2724C118.286 67.9407 118.422 69.2963 117.891 70.9531C117.523 72.0999 117.301 73.5684 116.607 74.5706C115.051 76.8193 113.19 78.6879 111.24 80.6387C110.364 81.5142 109.184 82.2779 108.089 82.8559C106.958 83.4525 106.134 84.2353 105.06 84.8397C104.273 85.2823 102.869 85.7917 101.985 85.8899C101.985 86.3567 99.5543 86.4154 98.9866 86.5901C97.3246 87.1015 96.1116 86.5901 94.3708 86.5901C92.9147 86.5901 91.7471 85.9634 90.3513 85.8899C89.2992 85.8346 88.0993 85.1404 87.0968 84.8397C85.5827 84.3855 84.1365 83.779 82.8829 82.804C80.4534 80.9144 78.3944 78.4926 77.3983 75.5042C76.0293 71.3973 75.7516 66.7162 77.9817 62.8753C79.1364 60.8867 79.8913 59.1655 81.6641 57.65C82.7988 56.68 83.4511 55.268 84.6592 54.4863C87.3033 52.7755 90.9479 51.2594 94.0725 50.8688Z" fill="#469D4C" stroke="#AFD89C" stroke-width="2.57778" stroke-linecap="round"/>
<path d="M84.8203 59.1261C86.032 59.1261 87.2693 58.6683 88.426 58.3575C90.9803 57.6713 93.5337 56.973 96.069 56.2273C97.1295 55.9154 98.1938 55.619 99.2524 55.3022C99.9528 55.0926 100.725 55.0594 101.387 54.7281C101.716 54.5638 102.058 54.4611 102.412 54.3628C102.69 54.2855 102.765 54.1653 102.497 54.3438" stroke="#C2E3AA" stroke-width="2.57778" stroke-linecap="round"/>
<path d="M96.1771 56.5645C96.1114 56.5645 96.3597 56.642 96.4428 56.702C96.9149 57.043 97.3464 57.4476 97.8044 57.8075C99.4571 59.106 100.327 61.4114 100.694 63.4294C101.323 66.8919 99.3376 70.0775 96.4902 71.898C95.1378 72.7626 93.5931 73.3512 92.0116 73.6249C91.4899 73.7152 90.9295 73.7695 90.4033 73.6818C90.2351 73.6538 90.0765 73.529 89.9146 73.511C89.8675 73.5058 89.995 73.5629 90.0285 73.5964C90.1783 73.7462 90.2874 73.9005 90.465 74.0281C91.1722 74.5365 91.9722 75.0053 92.728 75.4372C93.8856 76.0987 95.1536 76.663 96.3811 77.1831C98.164 77.9386 99.7557 79.0657 101.467 79.9585C101.945 80.208 102.439 80.4278 102.923 80.6654C103.139 80.771 103.425 80.8251 103.607 80.988C103.739 81.1063 104.504 81.6508 104.29 81.3296" stroke="#C2E3AA" stroke-width="2.57778" stroke-linecap="round"/>
<path d="M93.9837 65.3527C94.4694 65.1122 95.114 65.039 95.6356 64.8788C97.2345 64.3878 98.8924 64.0594 100.502 63.588C102.34 63.0496 104.152 62.4645 105.965 61.8499C106.551 61.6514 107.573 61.521 108.042 61.1518" stroke="#C2E3AA" stroke-width="2.57778" stroke-linecap="round"/>
<path d="M82.1842 90.2333C76.5109 89.603 57.7574 117.024 49.0898 130.813H90.0638C82.8146 119.151 87.0433 105.993 90.0638 100.871C92.0337 92.5972 89.2758 91.0213 82.1842 90.2333Z" fill="#FF9BA5"/>
<path d="M48.6953 130.026L64.8485 105.993" stroke="#744B15" stroke-width="2" stroke-linecap="round"/>
<path d="M86.9106 108.751C84.9407 115.055 82.7344 128.45 89.6684 131.602" stroke="#744B15" stroke-width="2" stroke-linecap="round"/>
</g>
<defs>
<linearGradient id="paint0_linear_5_73249" x1="0" y1="101.672" x2="165.299" y2="101.672" gradientUnits="userSpaceOnUse">
<stop stop-color="#00F5A0"/>
<stop offset="1" stop-color="#00D9F5"/>
</linearGradient>
</defs>
</svg>
