<svg width="149" height="150" viewBox="0 0 149 150" fill="none" xmlns="http://www.w3.org/2000/svg">
<rect y="0.27832" width="149" height="149" rx="74.5" fill="white"/>
<path d="M38.1045 101.653C36.5098 101.653 34.8397 101.798 33.2808 101.419C32.5132 101.232 30.4496 100.829 30.3304 99.7565C29.845 95.3876 39.9229 93.7545 43.2911 92.4858C43.2911 92.4858 48.61 99.3389 50.0583 102.075C51.2094 104.249 40.4439 112.834 38.444 114.427C37.6219 115.081 36.7115 115.848 35.8156 116.399C35.1748 116.794 34.2032 116.98 33.5969 116.405C32.6131 115.473 32.7863 113.694 32.9881 112.483C33.3933 110.052 34.3552 107.777 35.7863 105.786C36.13 105.308 39.064 101.653 38.1045 101.653Z" fill="#FEEFA0"/>
<path d="M90.371 110.873C89.128 109.649 87.8776 108.403 86.6261 107.17C83.8724 104.457 80.6753 99.7439 78.2891 96.7213C80.564 94.6045 82.67 92.3571 84.904 90.204C90.371 84.9349 94.2113 82.1007 98.9542 77.4279L104.356 72.1631C104.356 75.9774 103.695 79.718 103.136 83.5117C102.732 86.2536 101.811 89.838 101.045 92.4797C100.471 94.4592 99.6972 96.7227 98.9542 98.6603C97.6246 102.128 95.9783 107.486 92.9815 110.025C92.3301 110.577 91.2265 111.716 90.371 110.873Z" fill="#D9D9D9"/>
<path d="M36.6196 53.4567C37.5537 54.8782 38.5062 56.3105 39.4466 57.7416C41.5161 60.8907 45.4049 64.8319 47.8366 67.6832C50.2695 65.8767 52.7953 64.2568 55.2551 62.4964C61.2747 58.1884 64.679 55.004 69.9978 51.2851L76.0013 47.0392C72.3758 46.3434 68.6981 46.2977 64.9887 46.1444C62.3077 46.0336 58.7303 46.2675 56.0776 46.524C54.0899 46.7162 51.7952 47.0493 49.816 47.4119C46.2741 48.0609 40.8766 48.6702 37.9088 51.0954C37.2637 51.6225 35.9767 52.4784 36.6196 53.4567Z" fill="#D9D9D9"/>
<path d="M55.8141 106.62C55.235 107.272 55.4692 106.777 54.7926 106.391C51.168 104.319 36.6053 88.2833 37.6567 86.9691C39.1917 85.0503 45.1596 83.9517 47.4122 83.3555C49.0812 82.9137 50.8775 82.4483 52.5963 82.2573C53.6289 83.8061 61.675 94.5538 61.675 94.5538C60.716 98.0755 58.7536 103.313 55.8141 106.62Z" fill="#91D5DD"/>
<path d="M48.0684 83.5557L60.91 96.4542" stroke="#5F8083" stroke-width="1.16592" stroke-linecap="round"/>
<path d="M41.7138 68.7755C41.0802 69.4091 39.3987 71.1582 38.959 71.9176C43.9065 78.102 48.8286 83.9898 54.6101 89.3983C58.8706 93.3839 62.7959 98.004 67.7863 101.137C68.777 101.76 72.6035 105.148 73.6279 104.124C74.709 103.042 75.8363 101.977 76.9872 100.969C79.2512 98.9885 81.5105 97.1022 83.706 95.0439C94.2102 85.1962 104.999 74.0434 114.556 63.2325C118.758 58.4799 121.331 53.4559 121.331 46.9768C121.331 43.5107 120.835 39.0768 117.3 37.3093C115.021 36.1698 112.54 35.2563 109.909 35.2563C106.302 35.2563 103.471 36.0708 99.9336 36.6748C97.4714 37.0951 94.9543 38.4558 92.571 39.2503C89.5579 40.2546 86.4724 41.3681 83.6033 42.7403C80.5004 44.2243 77.3893 45.7516 74.3008 47.2678L74.0571 47.3874C72.6438 48.0812 71.3394 48.9883 69.9325 49.7017C68.4841 50.4361 67.0393 51.1963 65.6587 52.0532C62.4226 54.0618 59.1147 55.9307 55.9165 58.0068C54.4937 58.9303 52.9285 59.657 51.6799 60.8249C50.5915 61.8432 49.1561 62.3758 48.0873 63.3911C46.085 65.2933 43.6794 66.8098 41.7138 68.7755Z" fill="#ACC7CE"/>
<path d="M93.5781 39.6963L112.585 64.7031" stroke="#5F8083" stroke-width="1.16592" stroke-linecap="round"/>
<path d="M84.4358 52.1992C85.1358 52.1992 86.7276 52.1992 87.7588 52.4277C89.2238 52.7524 89.7018 52.975 90.5297 53.7201C91.4965 54.5902 92.5759 55.3297 93.5608 56.1914C94.5262 57.0361 94.9634 58.2408 95.5675 59.3282C96.5098 61.0243 96.4436 63.9401 96.0322 65.7917C95.4851 68.2537 94.0695 70.0528 92.2406 71.78C91.2862 72.6814 89.8848 73.0534 88.7131 73.586C88.1548 73.8398 87.3107 74.3662 86.7276 74.4309C85.8116 74.5327 84.9634 74.2763 84.0661 74.2514C80.7295 74.1587 77.888 72.7098 75.7965 70.1536C74.6651 68.7707 74.0271 66.6572 73.8427 64.9363C73.552 62.2231 74.0018 59.8541 75.4269 57.5222C76.7687 55.3265 78.8281 53.9494 81.1723 52.9596C82.1972 52.5269 83.3088 52.1992 84.4358 52.1992Z" fill="#FD6229" stroke="#5F8083" stroke-width="1.54214" stroke-linecap="round"/>
</svg>
