<svg width="149" height="150" viewBox="0 0 149 150" fill="none" xmlns="http://www.w3.org/2000/svg">
<rect y="0.27832" width="149" height="149" rx="74.5" fill="white"/>
<path fill-rule="evenodd" clip-rule="evenodd" d="M125.634 88.4214C126.193 88.2631 126.775 88.5879 126.933 89.147C128.791 95.7064 128.442 100.378 125.846 103.386C123.287 106.352 118.851 107.32 113.541 107.32C112.96 107.32 112.489 106.849 112.489 106.268C112.489 105.687 112.96 105.216 113.541 105.216C118.753 105.216 122.338 104.231 124.253 102.011C126.132 99.8346 126.712 96.0892 124.909 89.7205C124.75 89.1614 125.075 88.5798 125.634 88.4214Z" fill="white"/>
<path fill-rule="evenodd" clip-rule="evenodd" d="M113.541 99.9549C114.123 99.9549 114.594 100.426 114.594 101.007V105.742L118.381 108.582C118.846 108.931 118.94 109.59 118.592 110.055C118.243 110.52 117.584 110.614 117.119 110.266L112.489 106.794V101.007C112.489 100.426 112.96 99.9549 113.541 99.9549Z" fill="white"/>
<path fill-rule="evenodd" clip-rule="evenodd" d="M106.541 104.123C105.982 104.281 105.4 103.956 105.242 103.397C103.384 96.8381 103.732 92.1664 106.329 89.1582C108.888 86.1925 113.324 85.2244 118.633 85.2244C119.214 85.2244 119.686 85.6955 119.686 86.2766C119.686 86.8577 119.214 87.3287 118.633 87.3287C113.421 87.3287 109.837 88.3137 107.922 90.533C106.043 92.7098 105.462 96.4552 107.266 102.824C107.425 103.383 107.1 103.965 106.541 104.123Z" fill="white"/>
<path fill-rule="evenodd" clip-rule="evenodd" d="M118.633 92.5896C118.052 92.5896 117.581 92.1185 117.581 91.5374V86.8028L113.794 83.9621C113.329 83.6134 113.234 82.954 113.583 82.4891C113.932 82.0242 114.591 81.93 115.056 82.2787L119.685 85.7507V91.5374C119.685 92.1185 119.214 92.5896 118.633 92.5896Z" fill="white"/>
<path d="M22.5083 82.954L24.0518 89.9147C24.0687 89.9906 24.0867 90.068 24.1059 90.1468C26.0012 97.9255 34.2572 102.059 42.2635 102.059H46.8187L114.926 100.726C124.805 99.7782 126.503 95.0982 126.117 92.8767L124.766 59.8503C124.612 53.4523 120.071 51.6554 117.82 51.5566H100.842L56.6586 52.4452L32.9271 53.3338C22.8942 53.4523 20.7719 60.492 20.9648 63.9971V70.8525C20.9648 71.9087 21.0418 72.9634 21.1952 74.0083L22.5083 82.954Z" fill="#D9D9D9"/>
<path fill-rule="evenodd" clip-rule="evenodd" d="M107.228 63.115C107.237 63.696 106.792 64.1739 106.235 64.1823L36.7059 65.2344C36.1494 65.2428 35.6918 64.7787 35.6837 64.1976C35.6756 63.6166 36.1202 63.1388 36.6767 63.1304L106.206 62.0782C106.763 62.0698 107.22 62.534 107.228 63.115ZM37.1951 75.7558C37.1951 75.1748 37.6463 74.7037 38.2028 74.7037H105.969C106.525 74.7037 106.977 75.1748 106.977 75.7558C106.977 76.3369 106.525 76.808 105.969 76.808H38.2028C37.6463 76.808 37.1951 76.3369 37.1951 75.7558Z" fill="#3B3B3B"/>
<path fill-rule="evenodd" clip-rule="evenodd" d="M102.247 89.5108C101.423 90.1096 100.359 91.1264 99.2999 92.2427L98.4999 91.6976L99.2999 92.2427C98.95 92.6117 98.453 92.7076 98.1273 92.7275C97.7808 92.7487 97.4326 92.6994 97.1343 92.6252C96.8313 92.5498 96.5234 92.4346 96.2547 92.2849C96.0076 92.1473 95.6865 91.9212 95.5094 91.5855C95.4032 91.3843 95.2638 91.1682 95.083 90.9383C95.0423 90.8866 95.0162 90.8712 95.0138 90.8698C95.0137 90.8697 95.0168 90.8704 95.0129 90.8698C94.9931 90.867 94.8746 90.8602 94.616 90.9591C94.0841 91.1626 93.3662 91.6543 92.5361 92.3932C90.9077 93.843 89.1798 95.9396 88.0849 97.4387C87.7865 97.8473 87.1539 97.9734 86.6719 97.7205C86.1899 97.4676 86.041 96.9314 86.3394 96.5228C87.4685 94.9769 89.2819 92.767 91.0493 91.1934C91.9172 90.4208 92.8609 89.7216 93.7713 89.3732C94.234 89.1962 94.7818 89.0731 95.3508 89.1535C95.9612 89.2399 96.4501 89.5395 96.7911 89.9731C97.014 90.2564 97.1989 90.536 97.3491 90.8112C97.3579 90.8168 97.3689 90.8234 97.382 90.8307C97.4621 90.8754 97.5808 90.9228 97.7127 90.9556C97.7694 90.9698 97.819 90.9788 97.8601 90.9844C98.8864 89.9123 99.9826 88.8642 100.911 88.1898C101.374 87.8536 101.916 87.5176 102.46 87.3885C102.749 87.3198 103.16 87.2811 103.573 87.4467C104.007 87.6205 104.24 87.9361 104.353 88.2231C104.647 88.9721 104.738 89.9423 104.745 90.8625C104.749 91.4494 104.719 92.0491 104.671 92.6115L108.664 89.9326C109.096 89.6423 109.702 89.5585 110.24 89.7665C110.819 89.9905 111.595 90.3405 112.243 90.7603C112.566 90.9695 112.893 91.2186 113.148 91.5027C113.279 91.6484 113.409 91.8244 113.503 92.0262C113.596 92.0054 113.704 91.978 113.828 91.9424C114.597 91.7226 115.56 91.3169 116.22 91.0025C116.714 90.7669 117.34 90.9154 117.618 91.3342C117.895 91.753 117.72 92.2835 117.226 92.519C116.517 92.8571 115.427 93.3215 114.485 93.591C114.038 93.7188 113.501 93.8404 113.022 93.8228C112.78 93.8139 112.417 93.7657 112.098 93.5509C111.743 93.3112 111.599 92.9737 111.591 92.6597C111.583 92.6451 111.563 92.6108 111.513 92.5555C111.411 92.4413 111.239 92.3002 110.997 92.1431C110.604 91.8891 110.118 91.6518 109.682 91.4684L105.047 94.5789C103.93 95.3284 102.386 94.5122 102.528 93.3913C102.623 92.6344 102.698 91.7293 102.692 90.8733C102.688 90.2727 102.643 89.7341 102.555 89.3003C102.465 89.3574 102.362 89.4269 102.247 89.5108ZM103.016 89.0636C103.016 89.0636 103.015 89.0637 103.014 89.0639C103.015 89.0637 103.016 89.0636 103.016 89.0636ZM113.11 92.0844C113.102 92.0841 113.103 92.0837 113.111 92.0845C113.111 92.0845 113.111 92.0844 113.11 92.0844ZM103.773 93.2143C103.773 93.2144 103.772 93.2145 103.772 93.2147L104.068 93.5311L103.772 93.2147L103.773 93.2143ZM97.984 90.9916C97.984 90.9917 97.9834 90.9917 97.9824 90.9918L97.984 90.9916Z" fill="#5F8083"/>
<path d="M101.788 82.5662L100.932 87.868C100.722 89.169 102.504 89.9576 103.553 89.0284L109.351 83.8953C109.478 83.7823 109.583 83.6503 109.659 83.5054L130.25 44.3423C130.345 44.1615 130.412 43.9582 130.351 43.7663C129.851 42.1874 125.116 43.9368 122.337 45.2285C122.05 45.3615 121.824 45.574 121.684 45.8318L101.925 82.1664C101.856 82.2927 101.81 82.4275 101.788 82.5662Z" fill="#FD6229"/>
<path d="M105.683 86.8986L101.821 85.5311V88.9498L105.683 86.8986Z" fill="#FD6229"/>
<path fill-rule="evenodd" clip-rule="evenodd" d="M126.824 44.7143C125.38 45.0859 123.646 45.8002 122.344 46.4179C122.218 46.4779 122.112 46.5763 122.045 46.7038L119.349 51.7658H125.215L128.857 44.6903C128.887 44.6328 128.9 44.5943 128.905 44.5717C128.899 44.5583 128.891 44.553 128.876 44.5442C128.836 44.522 128.738 44.4854 128.544 44.4719C128.145 44.4443 127.556 44.5259 126.824 44.7143ZM124.532 53.093H118.643L103.27 81.9661C103.238 82.0274 103.216 82.0928 103.205 82.1602L102.858 84.3548L106.19 85.56L109.146 82.8869C109.207 82.8321 109.256 82.7681 109.292 82.6978L124.532 53.093ZM107.673 86.0962L110.184 83.8253C110.366 83.6608 110.514 83.4688 110.623 83.2578L130.188 45.2503C130.298 45.0364 130.456 44.6543 130.325 44.232C130.215 43.8777 129.977 43.6011 129.651 43.4176C129.343 43.2443 128.991 43.1719 128.656 43.1487C127.994 43.1028 127.204 43.2367 126.422 43.4379C124.838 43.8455 123.002 44.6069 121.662 45.2428C121.245 45.4409 120.921 45.7551 120.722 46.128L101.948 81.3904C101.85 81.5742 101.784 81.7705 101.752 81.9725L100.939 87.1178C100.814 87.9133 101.189 88.5772 101.777 88.9794V89.4335L102.195 89.2065C102.97 89.5315 103.946 89.4659 104.675 88.807L107.29 86.4418L107.825 86.1515L107.673 86.0962ZM104.533 86.3901L103.244 85.9238V87.0895L104.533 86.3901Z" fill="black"/>
</svg>
