<svg width="149" height="150" viewBox="0 0 149 150" fill="none" xmlns="http://www.w3.org/2000/svg">
<g clip-path="url(#clip0_5_21869)">
<rect y="0.397461" width="149" height="149" rx="74.5" fill="white"/>
<path d="M47.4793 96.1967C43.9092 105.547 42.3083 135.369 41.9541 149.111H80.8433C80.3333 143.671 83.3226 119.644 84.881 108.31C85.901 104.57 89.4145 96.6925 91.0437 93.2216C99.5441 92.0315 101.244 88.1922 101.032 86.4213C101.032 81.8311 96.2148 80.2585 93.8064 80.046C97.2065 79.706 101.74 78.0626 103.582 77.2834C107.832 74.5632 106.486 68.358 105.282 65.5954C105.452 61.3452 103.369 60.141 102.307 60.0701C101.117 59.2201 93.3105 61.841 89.5562 63.2578C98.7366 58.8376 101.032 56.1741 101.032 55.3949C100.692 49.1046 97.2065 48.6655 95.5064 49.2321C85.476 51.2722 75.6014 56.1741 71.9179 58.37C54.7047 67.933 51.942 84.5087 47.4793 96.1967Z" fill="#FCB7A0"/>
<path fill-rule="evenodd" clip-rule="evenodd" d="M98.5284 50.0851C97.5382 49.3595 96.3931 49.3848 95.6414 49.6354L95.617 49.6435L95.5917 49.6487C85.6227 51.6763 75.7935 56.5548 72.1361 58.7352L72.1305 58.7385L72.1249 58.7416C57.9206 66.6329 53.6743 79.3121 50.0487 90.1383C49.3248 92.2998 48.6257 94.3874 47.877 96.3483C47.0017 98.6406 46.2375 102.219 45.5804 106.541C44.9246 110.854 44.3797 115.878 43.9347 121.044C43.0635 131.159 42.5771 141.803 42.3911 148.687H80.3874C80.3101 147.222 80.4078 144.868 80.6165 142.004C80.8499 138.802 81.2251 134.929 81.6645 130.875C82.5434 122.766 83.6809 113.922 84.4605 108.252L84.4642 108.225L84.4715 108.198C85.503 104.416 89.0341 96.504 90.6596 93.041L90.7574 92.8326L90.9854 92.8007C99.4067 91.6217 100.78 87.8873 100.61 86.4719L100.607 86.4467V86.4213C100.607 84.3039 99.5071 82.8829 98.0886 81.9467C96.6562 81.0013 94.9223 80.5711 93.7696 80.4694L93.7646 79.6231C97.0788 79.2917 101.53 77.6868 103.383 76.9062C105.322 75.6488 106.01 73.592 106.053 71.4469C106.096 69.2861 105.477 67.1055 104.893 65.7652L104.854 65.6758L104.858 65.5784C104.94 63.523 104.476 62.2639 103.917 61.5209C103.356 60.774 102.681 60.521 102.279 60.4942L102.159 60.4862L102.06 60.416C102.023 60.3893 101.884 60.3365 101.563 60.3299C101.263 60.3237 100.873 60.358 100.406 60.4304C99.4733 60.5748 98.2878 60.8616 97.0092 61.2229C94.455 61.9447 91.577 62.9497 89.7068 63.6554L89.3724 62.8748C93.9479 60.6718 96.7889 58.9153 98.479 57.6233C99.3247 56.9769 99.8725 56.4541 100.204 56.0578C100.37 55.8596 100.476 55.7005 100.538 55.58C100.569 55.5202 100.587 55.474 100.597 55.4408C100.604 55.4189 100.606 55.4053 100.607 55.3989C100.438 52.3366 99.5113 50.8052 98.5284 50.0851ZM99.0308 49.3994C100.298 50.3282 101.283 52.1568 101.457 55.372L101.457 55.3835V55.395C101.457 55.588 101.389 55.7847 101.293 55.9705C101.194 56.162 101.049 56.3733 100.856 56.6035C100.471 57.0639 99.8709 57.6293 98.9952 58.2987C98.0088 59.0527 96.6598 59.948 94.8477 60.982C95.4971 60.7784 96.147 60.5832 96.778 60.4049C98.069 60.0402 99.2928 59.7426 100.276 59.5904C100.766 59.5144 101.211 59.4724 101.581 59.48C101.882 59.4863 102.196 59.5255 102.443 59.6561C103.091 59.7327 103.931 60.1246 104.597 61.0102C105.292 61.9356 105.78 63.3741 105.711 65.5151C106.319 66.9434 106.948 69.1991 106.903 71.4637C106.857 73.781 106.1 76.1768 103.811 77.6414L103.781 77.6608L103.748 77.6748C102.284 78.2942 99.1123 79.4647 96.1353 80.0986C96.9424 80.3575 97.7855 80.7282 98.5569 81.2373C100.144 82.2846 101.449 83.9375 101.457 86.3966C101.691 88.5098 99.6845 92.376 91.3319 93.6096C89.6653 97.1754 86.2969 104.759 85.2988 108.395C84.5201 114.06 83.386 122.881 82.5096 130.967C82.0706 135.016 81.6967 138.878 81.4643 142.066C81.2311 145.265 81.1433 147.753 81.267 149.072L81.3106 149.537H41.5186L41.5298 149.101C41.707 142.223 42.1962 131.323 43.0878 120.971C43.5337 115.795 44.0805 110.751 44.74 106.413C45.3983 102.084 46.173 98.4281 47.0828 96.0451C47.8129 94.1332 48.4991 92.0798 49.2141 89.9403C52.8342 79.1079 57.1919 66.068 71.7064 58.0017C75.4173 55.7904 85.3194 50.8752 95.3978 48.8207C96.3465 48.5123 97.7796 48.4826 99.0308 49.3994Z" fill="#DC8173"/>
<path fill-rule="evenodd" clip-rule="evenodd" d="M87.1246 83.8834C87.2352 84.1834 87.0815 84.5162 86.7815 84.6267C85.5071 85.0962 85.0325 86.2782 85.0458 87.8187C85.0591 89.3524 85.571 91.0449 86.0475 92.1354C86.3909 92.888 86.9651 93.2682 87.5694 93.4473C88.1932 93.6322 88.834 93.595 89.2138 93.5073C89.5254 93.4354 89.8362 93.6297 89.9081 93.9412C89.98 94.2528 89.7857 94.5636 89.4742 94.6355C88.9332 94.7604 88.0863 94.8082 87.2403 94.5574C86.3758 94.3012 85.4986 93.726 84.9918 92.6109L84.9901 92.6072L84.9884 92.6034C84.4738 91.427 83.9031 89.5728 83.888 87.8287C83.873 86.0894 84.4255 84.2608 86.3812 83.5402C86.6813 83.4297 87.0141 83.5833 87.1246 83.8834Z" fill="#DC8173"/>
<path fill-rule="evenodd" clip-rule="evenodd" d="M74.1086 106.283C74.2891 105.849 74.7868 105.644 75.2202 105.825L77.7703 106.887C78.2036 107.068 78.4085 107.566 78.228 107.999C78.0474 108.432 77.5498 108.637 77.1164 108.457L74.5663 107.394C74.1329 107.214 73.928 106.716 74.1086 106.283Z" fill="#DC8173"/>
<path d="M43.0169 117.235L41.5293 129.773C57 139.803 76.4516 134.661 84.2436 130.835L84.6687 119.572C70.7281 127.393 51.0922 121.273 43.0169 117.235Z" fill="white"/>
<path fill-rule="evenodd" clip-rule="evenodd" d="M42.4908 116.259L43.3021 116.664C47.2843 118.656 54.1456 121.172 61.7306 122.219C69.3222 123.266 77.5567 122.831 84.3569 119.016L85.3488 118.46L84.8665 131.24L84.5247 131.408C80.5584 133.355 73.6666 135.62 65.8079 136.136C57.9451 136.652 49.0661 135.419 41.1826 130.308L40.8496 130.092L42.4908 116.259ZM43.5445 118.2L42.2096 129.451C49.7142 134.192 58.1579 135.36 65.7244 134.864C73.1834 134.374 79.7443 132.269 83.6212 130.428L83.9899 120.657C77.0578 124.169 68.9322 124.5 61.5563 123.482C54.3097 122.482 47.7146 120.17 43.5445 118.2Z" fill="#91D5DD"/>
<path d="M40.0418 129.135L39.4043 150.174H87.0064V129.135C65.0754 133.895 46.5588 131.119 40.0418 129.135Z" fill="#1A4E66"/>
<path d="M101.945 59.4195L100.06 71.2903C100.013 71.5817 98.1043 71.5815 97.1555 71.5449L85.0707 70.5562L63.3771 70.1175L36.2983 68.5014C33.6898 68.3457 31.6831 66.1353 31.7794 63.5239L34.1849 37.561C34.1645 35.6576 35.5592 34.9833 37.0453 34.8501C38.6969 34.7022 40.3628 35.0353 42.0209 35.0176L47.1257 34.963L55.6238 35.0957L82.0148 35.7078L102.73 36.9957C103.227 37.0266 103.7 37.2156 104.081 37.5352C104.698 38.0529 105.004 38.8531 104.888 39.6504L103.616 48.4453L101.945 59.4195Z" fill="#50B557" stroke="#AFD89D" stroke-width="1.84372" stroke-linejoin="round"/>
<path d="M102.455 66.9794L101.775 78.9797C101.758 79.2742 99.8585 79.4662 98.911 79.5254L86.788 79.7584L65.1605 81.506L38.0566 82.6244C35.4456 82.7321 33.2265 80.735 33.0595 78.1272L32.8388 52.054C32.6269 50.1623 33.9466 49.351 35.4117 49.0689C37.04 48.7554 38.731 48.9192 40.3789 48.7346L45.4523 48.1663L53.9206 47.4428L80.2391 45.3947L100.979 44.5905C101.476 44.5712 101.966 44.7116 102.377 44.9912C103.043 45.4441 103.428 46.2095 103.393 47.0144L103.013 55.8927L102.455 66.9794Z" fill="#50B557" stroke="#AFD89C" stroke-width="1.84372" stroke-linejoin="round"/>
<path d="M43.5573 49.9606L42.1996 61.9033C42.1663 62.1964 44.0058 62.7068 44.9297 62.9253L56.8388 65.2043L77.8597 70.5828L104.384 76.267C106.94 76.8145 109.464 75.2213 110.07 72.6793L114.695 47.0186C115.224 45.19 114.06 44.1673 112.664 43.6416C111.112 43.0573 109.418 42.9329 107.825 42.4724L102.92 41.0546L94.6961 38.9099L69.1026 32.4422L48.7971 28.1435C48.3107 28.0405 47.804 28.0961 47.3515 28.3021C46.6183 28.6359 46.11 29.3253 46.0079 30.1244L44.8815 38.9392L43.5573 49.9606Z" fill="#50B557" stroke="#AFD89F" stroke-width="1.84372" stroke-linejoin="round"/>
<path d="M51.7619 49.8258L58.1474 47.9775L56.4672 51.3136L60.2285 50.5692L59.6726 52.3271L62.5875 52.2819M52.9707 33.7717C53.3865 35.5145 52.9319 38.787 47.7873 37.9338L44.5878 57.2259C46.2381 57.1031 49.205 57.9123 47.871 62.1314L53.4227 62.9199L70.3559 64.4067L88.4459 65.2924L99.5493 66.8695C101.014 67.3327 103.991 67.5004 104.177 64.4653C104.162 63.4937 104.779 61.9486 107.37 63.5412L108.391 54.1956L109.18 48.6439C106.743 48.1958 102.786 46.2357 106.452 41.9805C106.638 41.3945 106.249 40.176 103.214 39.9898L52.9707 33.7717Z" stroke="#AFD89D" stroke-width="1.84372" stroke-linecap="round" stroke-linejoin="round"/>
<path d="M45.7557 56.4104L43.385 44.6269C43.3268 44.3377 45.1162 43.6724 46.0181 43.376L57.6896 40.0903L78.1756 32.9397L104.119 25.0156C106.619 24.2522 109.27 25.6245 110.09 28.1057L116.885 53.2788C117.568 55.0557 116.496 56.1739 115.149 56.8166C113.653 57.531 111.975 57.7995 110.427 58.394L105.662 60.2246L97.6502 63.0625L72.701 71.6879L52.8358 77.7016C52.3599 77.8456 51.8503 77.8334 51.3819 77.6667C50.6229 77.3966 50.0577 76.7531 49.8879 75.9656L48.0143 67.2788L45.7557 56.4104Z" fill="#50B557" stroke="#AFD89C" stroke-width="1.84372" stroke-linejoin="round"/>
<path d="M56.2021 58.1911L61.4271 54.0813L61.1218 57.8041L64.3287 55.7024L64.4733 57.5404L67.1581 56.4045M51.2969 42.857C52.3364 44.3164 53.1433 47.5202 48.0546 48.6603L52.33 67.7429C53.8135 67.0097 56.8673 66.6461 57.2143 71.0575L62.6562 69.7046L78.9093 64.7271L96.0092 58.7583L106.893 56.0526C108.425 55.9321 111.246 54.9704 110.28 52.0873C109.901 51.1924 109.894 49.5285 112.892 50.0324L110.331 40.9868L108.978 35.545C106.552 36.0441 102.149 35.7124 103.949 30.3923C103.901 29.7797 103.084 28.7959 100.201 29.7625L51.2969 42.857Z" stroke="#AED79B" stroke-width="1.84372" stroke-linecap="round" stroke-linejoin="round"/>
<path d="M28.8523 62.6933L27.4707 50.7367C27.4368 50.4432 29.3233 49.9306 30.2707 49.711L42.4829 47.4187L64.0398 42.0149L91.3433 36.2786C93.9124 35.7388 96.446 37.3366 97.0661 39.8875L101.786 65.5767C103.107 70.0523 94.928 70.0808 90.4379 71.352L89.708 71.5586L81.2742 73.7132L55.028 80.2115L34.1873 84.5372C33.6997 84.6384 33.1926 84.5842 32.7374 84.3821C31.978 84.045 31.4493 83.3366 31.3422 82.5127L30.2003 73.7275L28.8523 62.6933Z" fill="#50B557" stroke="#AAD69A" stroke-width="1.84372" stroke-linejoin="round"/>
<path d="M36.2853 55.3356L35.3635 43.3514C35.3409 43.0572 37.1978 42.6142 38.1291 42.4295L50.1133 40.5858L71.3161 35.9765L102.659 30.4453L103.581 35.0546L107.269 60.8667C108.006 63.8167 104.503 64.5542 102.659 64.5542L95.2844 66.3979L86.9877 68.2416L61.1756 73.7728L39.9728 77.4602L38.1291 76.5384L37.2072 66.3979L36.2853 55.3356Z" fill="#50B557" stroke="#AAD69A" stroke-width="1.84372" stroke-linejoin="round"/>
<path d="M46.4257 59.9447L51.9568 56.2572L51.3606 59.9447L54.7224 58.101L54.7224 59.9447L57.488 59.0228M42.7382 44.273C43.6601 45.8095 44.2132 49.0667 39.0508 49.8042L41.8164 69.1633C43.3528 68.5487 46.4257 68.4258 46.4257 72.8507L51.9568 71.9289L68.5503 68.2414L86.0657 63.6321L97.128 61.7884C98.6644 61.7884 101.553 61.0509 100.815 58.101C100.508 57.1791 100.631 55.5197 103.581 56.2572L101.737 47.0386L100.815 41.5075C98.3572 41.8147 93.9937 41.1387 96.2062 35.9763C96.2062 35.3617 95.4687 34.3169 92.5187 35.0544L42.7382 44.273Z" stroke="#AAD69A" stroke-width="1.84372" stroke-linecap="round" stroke-linejoin="round"/>
<path d="M90.6748 48.8823L96.206 47.0386" stroke="#AFD89D" stroke-width="1.84372" stroke-linecap="round" stroke-linejoin="round"/>
<path d="M90.6748 51.6479L96.206 49.8042" stroke="#AFD89D" stroke-width="1.84372" stroke-linecap="round" stroke-linejoin="round"/>
<path d="M92.5195 54.4136L95.2851 53.4917" stroke="#AFD89D" stroke-width="1.84372" stroke-linecap="round" stroke-linejoin="round"/>
<path d="M70.6805 39.8999C71.8261 39.7567 73.054 39.2415 74.1953 39.2415C74.7443 39.1195 76.327 39.1847 76.8661 39.2415C78.2172 39.3837 80.4512 40.4672 81.503 41.2446C82.8524 42.242 84.4747 43.2161 85.5093 44.5832C86.8653 46.3751 87.4428 48.7747 87.7999 50.9171C87.9987 52.1104 88.0965 53.08 87.7164 54.265C87.4533 55.0851 87.2946 56.1355 86.7983 56.8523C85.6848 58.4607 84.3543 59.7972 82.959 61.1924C82.3328 61.8186 81.4887 62.3649 80.7055 62.7783C79.897 63.2049 79.3073 63.7649 78.5389 64.1971C77.9761 64.5137 76.9722 64.8781 76.34 64.9483C76.34 65.2822 74.6013 65.3242 74.1953 65.4491C73.0065 65.8149 72.1389 65.4491 70.8938 65.4491C69.8524 65.4491 69.0173 65.0009 68.019 64.9483C67.2665 64.9087 66.4083 64.4122 65.6913 64.1971C64.6083 63.8723 63.5739 63.4385 62.6773 62.7412C60.9397 61.3896 59.467 59.6575 58.7545 57.52C57.7754 54.5827 57.5767 51.2345 59.1718 48.4874C59.9977 47.0651 60.5376 45.834 61.8056 44.7501C62.6172 44.0563 63.0837 43.0464 63.9478 42.4873C65.8389 41.2636 68.4457 40.1793 70.6805 39.8999Z" fill="#469D4C" stroke="#AFD89C" stroke-width="1.84372" stroke-linecap="round"/>
<path d="M64.0635 45.8057C64.9301 45.8057 65.8151 45.4782 66.6424 45.256C68.4693 44.7652 70.2956 44.2657 72.1089 43.7324C72.8674 43.5093 73.6287 43.2973 74.3858 43.0707C74.8868 42.9208 75.439 42.897 75.9128 42.6601C76.1479 42.5426 76.3927 42.4691 76.6458 42.3988C76.8448 42.3436 76.8984 42.2576 76.7068 42.3853" stroke="#C2E3AA" stroke-width="1.84372" stroke-linecap="round"/>
<path d="M72.1867 43.9736C72.1397 43.9736 72.3173 44.0291 72.3767 44.072C72.7144 44.3159 73.023 44.6053 73.3506 44.8627C74.5327 45.7915 75.1547 47.4404 75.4171 48.8837C75.8674 51.3602 74.4472 53.6387 72.4107 54.9407C71.4434 55.5591 70.3386 55.9801 69.2074 56.1759C68.8342 56.2404 68.4334 56.2793 68.0571 56.2166C67.9368 56.1965 67.8234 56.1073 67.7076 56.0944C67.6739 56.0907 67.765 56.1315 67.789 56.1555C67.8962 56.2627 67.9742 56.373 68.1012 56.4643C68.6071 56.8279 69.1792 57.1632 69.7198 57.4721C70.5477 57.9452 71.4547 58.3488 72.3326 58.7208C73.6079 59.2612 74.7463 60.0673 75.9702 60.7059C76.3122 60.8843 76.6656 61.0416 77.012 61.2115C77.166 61.287 77.3704 61.3257 77.5006 61.4422C77.5952 61.5269 78.1424 61.9163 77.9892 61.6865" stroke="#C2E3AA" stroke-width="1.84372" stroke-linecap="round"/>
<path d="M70.6185 50.2588C70.9659 50.0868 71.4269 50.0345 71.8 49.9199C72.9435 49.5687 74.1294 49.3338 75.2804 48.9966C76.5949 48.6115 77.8913 48.1931 79.1881 47.7535C79.6067 47.6115 80.3382 47.5182 80.6734 47.2542" stroke="#C2E3AA" stroke-width="1.84372" stroke-linecap="round"/>
<path d="M72.131 71.1205C69.0709 70.7805 58.9555 85.5711 54.2803 93.009H76.3812C72.4711 86.7187 74.752 79.6209 76.3812 76.8583C77.4438 72.3956 75.9562 71.5455 72.131 71.1205Z" fill="#FCB7A0"/>
<path fill-rule="evenodd" clip-rule="evenodd" d="M63.0176 79.2681C63.2124 79.3991 63.2642 79.6631 63.1333 79.858L54.4204 92.821C54.2894 93.0158 54.0254 93.0676 53.8305 92.9367C53.6357 92.8057 53.584 92.5416 53.7149 92.3468L62.4278 79.3838C62.5587 79.189 62.8228 79.1372 63.0176 79.2681ZM74.8078 80.7028C75.0318 80.7728 75.1567 81.0112 75.0867 81.2352C74.5641 82.9075 74.0125 85.5172 74.0488 87.9023C74.0857 90.3278 74.7221 92.3096 76.3445 93.047C76.5582 93.1442 76.6526 93.3961 76.5555 93.6098C76.4584 93.8235 76.2064 93.918 75.9927 93.8209C73.8749 92.8582 73.2363 90.3773 73.1988 87.9152C73.1607 85.4125 73.7354 82.7095 74.2754 80.9817C74.3454 80.7576 74.5837 80.6327 74.8078 80.7028Z" fill="#DC8173"/>
</g>
<defs>
<clipPath id="clip0_5_21869">
<rect y="0.397461" width="149" height="149" rx="74.5" fill="white"/>
</clipPath>
</defs>
</svg>
