<svg width="149" height="150" viewBox="0 0 149 150" fill="none" xmlns="http://www.w3.org/2000/svg">
<rect y="0.397461" width="149" height="149" rx="74.5" fill="white"/>
<path d="M22.8605 75.3455C22.8605 74.8402 22.6784 72.0651 22.4718 69.0883C22.1918 65.0559 22.3144 61.0045 22.8605 56.9994C22.8605 49.3324 31.8054 46.6855 36.2778 46.3204L58.7312 44.4036L86.661 43.856L109.936 43.856C117.165 43.856 120.797 51.7055 121.163 55.6303L123.079 72.3334L123.627 91.7748C124.284 101.194 116.599 103.914 112.674 104.097L104.186 104.644L85.8396 105.466L55.4453 105.466L45.649 105.466C41.9623 105.466 38.2808 105.191 34.6349 104.644C28.0631 103.987 25.5075 95.0606 25.0511 90.6795C24.3209 85.9333 22.8605 76.2217 22.8605 75.3455Z" fill="#7B96CF"/>
<path d="M33.5391 56.1781L33.5391 63.8451L43.3967 63.8451L43.1228 55.9043L33.8129 56.1781" stroke="#222222" stroke-width="2.00237"/>
<path d="M36.2773 88.2153L47.2302 88.2153M49.9684 88.2153L60.0998 88.2153M63.3857 88.2153L74.6124 88.2153M36.2773 93.4179L43.6705 93.4179M46.1349 93.4179L53.8019 93.418M57.0878 93.418L65.3025 93.418M68.0407 93.418L75.1601 93.418M78.9936 93.418L88.0297 93.418" stroke="#222222" stroke-width="2.00237" stroke-linecap="round"/>
<path d="M99.8037 56.4518C100.351 57.4558 101.228 59.7377 100.351 60.833M103.09 55.6303C103.82 56.6344 105.061 59.0805 104.185 60.833M106.102 54.2612C107.014 55.4478 108.511 58.4233 107.197 60.833" stroke="#222222" stroke-width="2.00237" stroke-linecap="round"/>
<circle cx="104.733" cy="90.9532" r="4.92879" fill="#C4C4C4"/>
<circle cx="109.661" cy="90.9532" r="4.92879" fill="#686873"/>
<circle cx="117.043" cy="93.7798" r="18.3677" fill="#FCD400"/>
<path d="M124.476 90.3078L123.875 92.3556H112.425L113.026 90.3078H124.476ZM119.104 104.113L112.637 96.2041L112.602 94.7212H115.818C116.654 94.7212 117.367 94.6035 117.956 94.3681C118.545 94.1268 118.995 93.7679 119.308 93.2912C119.62 92.8087 119.776 92.2026 119.776 91.4729C119.776 90.3961 119.452 89.5516 118.804 88.9396C118.156 88.3218 117.161 88.0128 115.818 88.0128H112.425L113.026 86.0356H115.818C117.255 86.0356 118.433 86.274 119.352 86.7506C120.277 87.2214 120.96 87.8687 121.402 88.6925C121.849 89.5104 122.073 90.4373 122.073 91.4729C122.073 92.4086 121.867 93.2706 121.455 94.0592C121.048 94.8418 120.394 95.4715 119.493 95.9481C118.598 96.4247 117.414 96.6631 115.941 96.6631H115.888L121.861 103.972V104.113H119.104ZM124.476 86.0356L123.875 88.0835L114.863 88.0128L115.464 86.0356H124.476Z" fill="#947100"/>
<path d="M116.809 109.583C116.196 109.583 116.688 110.036 116.809 109.794" stroke="#947100" stroke-width="1.55208" stroke-linecap="round"/>
<path d="M121.328 108.313C126.054 106.53 134.631 99.8783 131.136 87.5381" stroke="#947100" stroke-width="1.55208" stroke-linecap="round"/>
<path d="M103.848 86.0224C105.007 83.5555 109.411 78.5505 117.757 78.2651" stroke="#947100" stroke-width="1.55208" stroke-linecap="round"/>
</svg>
