<svg width="149" height="150" viewBox="0 0 149 150" fill="none" xmlns="http://www.w3.org/2000/svg">
<rect y="0.397461" width="149" height="149" rx="74.5" fill="white"/>
<path fill-rule="evenodd" clip-rule="evenodd" d="M129.842 88.2256C130.449 88.0539 131.079 88.4062 131.251 89.0127C133.266 96.1275 132.888 101.195 130.072 104.458C127.296 107.675 122.484 108.725 116.725 108.725C116.095 108.725 115.584 108.214 115.584 107.583C115.584 106.953 116.095 106.442 116.725 106.442C122.379 106.442 126.267 105.374 128.344 102.967C130.382 100.605 131.012 96.5428 129.055 89.6347C128.883 89.0282 129.236 88.3974 129.842 88.2256Z" fill="white"/>
<path fill-rule="evenodd" clip-rule="evenodd" d="M116.725 100.736C117.356 100.736 117.867 101.247 117.867 101.877V107.013L121.975 110.094C122.479 110.472 122.581 111.187 122.203 111.692C121.825 112.196 121.11 112.298 120.606 111.92L115.584 108.154V101.877C115.584 101.247 116.095 100.736 116.725 100.736Z" fill="white"/>
<path fill-rule="evenodd" clip-rule="evenodd" d="M109.133 105.256C108.526 105.428 107.895 105.076 107.723 104.469C105.708 97.3544 106.086 92.2871 108.902 89.0241C111.679 85.8073 116.49 84.7573 122.249 84.7573C122.88 84.7573 123.391 85.2682 123.391 85.8985C123.391 86.5288 122.88 87.0397 122.249 87.0397C116.596 87.0397 112.708 88.1081 110.63 90.5154C108.593 92.8766 107.963 96.9391 109.92 103.847C110.091 104.454 109.739 105.085 109.133 105.256Z" fill="white"/>
<path fill-rule="evenodd" clip-rule="evenodd" d="M122.249 92.7461C121.619 92.7461 121.108 92.2352 121.108 91.6049V86.4693L117 83.388C116.495 83.0098 116.393 82.2945 116.771 81.7903C117.15 81.286 117.865 81.1838 118.369 81.562L123.391 85.3281V91.6049C123.391 92.2352 122.88 92.7461 122.249 92.7461Z" fill="white"/>
<path d="M17.9838 82.2946L19.658 89.8449C19.7472 90.2469 19.8676 90.6874 20.0133 91.1568C22.3867 98.8032 30.3046 103.018 38.3108 103.018H44.353L118.229 101.572C128.944 100.544 130.785 95.4674 130.367 93.0577L128.902 57.2343C128.734 50.2945 123.809 48.3454 121.368 48.2383H102.951L55.0262 49.2021L29.2849 50.166C18.4023 50.2945 16.1003 57.9304 16.3095 61.7323V69.3027C16.3095 70.3588 16.3865 71.4135 16.5399 72.4585L17.9838 82.2946Z" fill="#D9D9D9"/>
<path fill-rule="evenodd" clip-rule="evenodd" d="M109.878 60.7756C109.887 61.4058 109.405 61.9241 108.801 61.9332L33.3833 63.0745C32.7797 63.0836 32.2833 62.5801 32.2745 61.9499C32.2658 61.3197 32.748 60.8014 33.3516 60.7922L108.77 59.651C109.373 59.6419 109.87 60.1454 109.878 60.7756ZM33.9139 74.4869C33.9139 73.8567 34.4033 73.3457 35.007 73.3457H108.512C109.116 73.3457 109.605 73.8567 109.605 74.4869C109.605 75.1172 109.116 75.6282 108.512 75.6282H35.007C34.4033 75.6282 33.9139 75.1172 33.9139 74.4869Z" fill="#3B3B3B"/>
<path fill-rule="evenodd" clip-rule="evenodd" d="M104.475 89.406C103.582 90.0555 102.427 91.1583 101.279 92.3692L100.411 91.778L101.279 92.3692C100.899 92.7695 100.36 92.8735 100.007 92.8951C99.6309 92.9181 99.2532 92.8646 98.9297 92.7841C98.601 92.7023 98.2671 92.5774 97.9756 92.415C97.7076 92.2658 97.3593 92.0205 97.1672 91.6564C97.052 91.4381 96.9008 91.2037 96.7047 90.9544C96.6605 90.8982 96.6322 90.8815 96.6296 90.88C96.6295 90.88 96.6329 90.8807 96.6287 90.8801C96.6072 90.8771 96.4786 90.8696 96.1982 90.9769C95.6212 91.1977 94.8425 91.731 93.9421 92.5325C92.1758 94.1051 90.3016 96.3792 89.1139 98.0053C88.7903 98.4484 88.1041 98.5853 87.5812 98.311C87.0584 98.0366 86.8969 97.455 87.2206 97.0119C88.4453 95.335 90.4123 92.9379 92.3294 91.2311C93.2708 90.393 94.2944 89.6346 95.2819 89.2567C95.7837 89.0647 96.378 88.9312 96.9951 89.0184C97.6572 89.1121 98.1875 89.4371 98.5575 89.9074C98.7992 90.2147 98.9998 90.518 99.1627 90.8165C99.1723 90.8226 99.1841 90.8298 99.1984 90.8377C99.2853 90.8861 99.4141 90.9376 99.5571 90.9732C99.6186 90.9885 99.6724 90.9983 99.7169 91.0044C100.83 89.8414 102.019 88.7046 103.026 87.9731C103.528 87.6084 104.117 87.244 104.706 87.104C105.02 87.0294 105.466 86.9874 105.914 87.1671C106.384 87.3555 106.637 87.6979 106.759 88.0092C107.079 88.8216 107.178 89.874 107.185 90.8722C107.19 91.5087 107.157 92.1593 107.105 92.7693L111.435 89.8635C111.905 89.5486 112.562 89.4577 113.145 89.6833C113.774 89.9263 114.615 90.306 115.318 90.7612C115.668 90.9882 116.023 91.2584 116.299 91.5665C116.441 91.7246 116.583 91.9155 116.685 92.1344C116.785 92.1119 116.902 92.0822 117.038 92.0435C117.871 91.805 118.916 91.3651 119.631 91.024C120.167 90.7685 120.846 90.9296 121.148 91.3838C121.449 91.8381 121.259 92.4135 120.723 92.669C119.954 93.0357 118.772 93.5394 117.75 93.8318C117.265 93.9704 116.682 94.1022 116.163 94.0832C115.9 94.0736 115.507 94.0212 115.161 93.7882C114.775 93.5282 114.62 93.1621 114.611 92.8216C114.603 92.8057 114.58 92.7685 114.527 92.7085C114.416 92.5847 114.229 92.4316 113.966 92.2612C113.541 91.9857 113.013 91.7283 112.54 91.5294L107.512 94.9033C106.3 95.7162 104.626 94.8309 104.78 93.6151C104.884 92.7941 104.965 91.8124 104.958 90.8839C104.953 90.2324 104.905 89.6482 104.809 89.1776C104.712 89.2396 104.601 89.315 104.475 89.406ZM105.309 88.9209C105.309 88.9209 105.309 88.921 105.308 88.9212C105.309 88.921 105.309 88.9209 105.309 88.9209ZM116.259 92.1976C116.25 92.1972 116.251 92.1967 116.26 92.1976C116.26 92.1976 116.259 92.1976 116.259 92.1976ZM106.13 93.4231C106.13 93.4233 106.13 93.4234 106.13 93.4235L106.45 93.7667L106.13 93.4235L106.13 93.4231ZM99.8514 91.0122C99.8513 91.0123 99.8507 91.0123 99.8496 91.0124L99.8514 91.0122Z" fill="#5F8083"/>
<circle cx="75.276" cy="51.6164" r="17.0729" fill="#FC6E47"/>
<path fill-rule="evenodd" clip-rule="evenodd" d="M67.1067 45.6771C67.6139 45.271 68.373 45.3309 68.8021 45.8107L74.5847 52.2765L80.9939 46.3631C81.4695 45.9242 82.2312 45.9333 82.695 46.3833C83.1589 46.8333 83.1493 47.5539 82.6737 47.9928L76.1428 54.0186L82.0352 60.6072C82.4644 61.0871 82.4011 61.8053 81.8939 62.2113C81.3868 62.6173 80.6277 62.5575 80.1985 62.0776L74.4159 55.6119L68.0068 61.5253C67.5311 61.9641 66.7695 61.9551 66.3056 61.5051C65.8417 61.055 65.8513 60.3344 66.327 59.8955L72.8579 53.8698L66.9654 47.2811C66.5363 46.8013 66.5995 46.0831 67.1067 45.6771Z" fill="white"/>
</svg>
