<svg width="149" height="150" viewBox="0 0 149 150" fill="none" xmlns="http://www.w3.org/2000/svg">
<rect y="0.397461" width="149" height="149" rx="74.5" fill="white"/>
<path fill-rule="evenodd" clip-rule="evenodd" d="M130.21 92.2774C130.811 92.1074 131.435 92.4561 131.605 93.0562C133.599 100.097 133.225 105.111 130.438 108.34C127.691 111.524 122.929 112.563 117.23 112.563C116.607 112.563 116.101 112.057 116.101 111.433C116.101 110.81 116.607 110.304 117.23 110.304C122.825 110.304 126.672 109.247 128.728 106.865C130.745 104.528 131.368 100.508 129.432 93.6718C129.262 93.0717 129.61 92.4474 130.21 92.2774Z" fill="white"/>
<path fill-rule="evenodd" clip-rule="evenodd" d="M117.23 104.657C117.854 104.657 118.36 105.163 118.36 105.786V110.868L122.425 113.918C122.924 114.292 123.026 115 122.651 115.499C122.277 115.998 121.569 116.099 121.07 115.725L116.101 111.998V105.786C116.101 105.163 116.607 104.657 117.23 104.657Z" fill="white"/>
<path fill-rule="evenodd" clip-rule="evenodd" d="M109.717 109.131C109.117 109.301 108.492 108.953 108.322 108.352C106.328 101.312 106.702 96.2974 109.489 93.0684C112.236 89.8851 116.998 88.846 122.697 88.846C123.321 88.846 123.826 89.3517 123.826 89.9754C123.826 90.5991 123.321 91.1047 122.697 91.1047C117.102 91.1047 113.255 92.1619 111.199 94.5441C109.182 96.8807 108.559 100.901 110.496 107.737C110.666 108.337 110.317 108.961 109.717 109.131Z" fill="white"/>
<path fill-rule="evenodd" clip-rule="evenodd" d="M122.697 96.7516C122.073 96.7516 121.567 96.246 121.567 95.6222V90.5402L117.502 87.491C117.003 87.1168 116.902 86.4089 117.276 85.91C117.65 85.411 118.358 85.3099 118.857 85.6841L123.826 89.4109V95.6222C123.826 96.246 123.32 96.7516 122.697 96.7516Z" fill="white"/>
<path d="M19.5184 86.4087L21.1752 93.8801C21.2552 94.2409 21.3606 94.633 21.4871 95.0493C23.8142 102.71 31.7629 106.916 39.7691 106.916H45.6126L118.718 105.485C129.321 104.467 131.143 99.444 130.729 97.0595L129.28 61.6097C129.114 54.7423 124.24 52.8135 121.824 52.7075H103.6L56.1745 53.6613L30.7016 54.6151C19.9326 54.7423 17.6546 62.2986 17.8617 66.0608V73.5357C17.8617 74.5918 17.9387 75.6465 18.092 76.6915L19.5184 86.4087Z" fill="#D9D9D9"/>
<path fill-rule="evenodd" clip-rule="evenodd" d="M110.454 65.1139C110.463 65.7376 109.986 66.2505 109.388 66.2595L34.757 67.3889C34.1597 67.3979 33.6684 66.8997 33.6598 66.276C33.6511 65.6524 34.1283 65.1395 34.7256 65.1304L109.357 64.0011C109.954 63.9921 110.446 64.4903 110.454 65.1139ZM35.2821 78.6823C35.2821 78.0586 35.7663 77.553 36.3637 77.553H109.102C109.7 77.553 110.184 78.0586 110.184 78.6823C110.184 79.306 109.7 79.8116 109.102 79.8116H36.3637C35.7663 79.8116 35.2821 79.306 35.2821 78.6823Z" fill="#3B3B3B"/>
<path fill-rule="evenodd" clip-rule="evenodd" d="M105.108 93.4463C104.223 94.0889 103.081 95.1803 101.944 96.3786L101.086 95.7935L101.944 96.3786C101.569 96.7746 101.035 96.8776 100.686 96.899C100.314 96.9217 99.94 96.8688 99.6198 96.7891C99.2945 96.7082 98.9641 96.5846 98.6756 96.4239C98.4104 96.2762 98.0658 96.0335 97.8757 95.6732C97.7617 95.4572 97.6121 95.2252 97.418 94.9785C97.3743 94.9229 97.3463 94.9064 97.3437 94.9049C97.3436 94.9049 97.347 94.9056 97.3428 94.905C97.3215 94.902 97.1943 94.8946 96.9167 95.0008C96.3458 95.2193 95.5752 95.747 94.6843 96.5402C92.9363 98.0963 91.0816 100.347 89.9064 101.956C89.5861 102.394 88.9071 102.53 88.3897 102.258C87.8723 101.987 87.7125 101.411 88.0328 100.973C89.2447 99.3134 91.1912 96.9413 93.0883 95.2523C94.0199 94.423 95.0328 93.6725 96.0101 93.2985C96.5066 93.1085 97.0947 92.9764 97.7054 93.0628C98.3606 93.1554 98.8854 93.4771 99.2514 93.9425C99.4906 94.2465 99.6891 94.5467 99.8504 94.842C99.8598 94.8481 99.8716 94.8552 99.8857 94.863C99.9717 94.9109 100.099 94.9619 100.241 94.9971C100.302 95.0123 100.355 95.022 100.399 95.028C101.5 93.8772 102.677 92.7522 103.673 92.0283C104.17 91.6674 104.753 91.3068 105.336 91.1682C105.647 91.0945 106.088 91.0529 106.531 91.2307C106.997 91.4172 107.247 91.756 107.368 92.064C107.684 92.868 107.782 93.9094 107.789 94.8971C107.794 95.5271 107.761 96.1708 107.71 96.7744L111.995 93.899C112.459 93.5874 113.11 93.4975 113.687 93.7207C114.309 93.9612 115.141 94.3369 115.837 94.7874C116.184 95.012 116.535 95.2793 116.808 95.5843C116.949 95.7407 117.089 95.9296 117.19 96.1462C117.289 96.1239 117.405 96.0945 117.539 96.0562C118.364 95.8203 119.398 95.3849 120.106 95.0474C120.636 94.7945 121.308 94.9539 121.606 95.4035C121.904 95.853 121.716 96.4224 121.186 96.6752C120.425 97.0381 119.255 97.5365 118.244 97.8259C117.764 97.963 117.187 98.0935 116.673 98.0747C116.413 98.0651 116.024 98.0133 115.682 97.7828C115.3 97.5254 115.146 97.1632 115.137 96.8262C115.129 96.8105 115.107 96.7737 115.054 96.7144C114.944 96.5918 114.76 96.4403 114.499 96.2717C114.078 95.999 113.556 95.7444 113.088 95.5475L108.113 98.8862C106.914 99.6907 105.257 98.8146 105.409 97.6115C105.512 96.799 105.592 95.8275 105.585 94.9087C105.581 94.264 105.533 93.6859 105.438 93.2203C105.342 93.2816 105.232 93.3562 105.108 93.4463ZM105.933 92.9662C105.933 92.9662 105.932 92.9663 105.931 92.9666C105.932 92.9663 105.933 92.9662 105.933 92.9662ZM116.768 96.2087C116.759 96.2084 116.76 96.2079 116.769 96.2087C116.769 96.2087 116.769 96.2087 116.768 96.2087ZM106.745 97.4215C106.745 97.4216 106.745 97.4218 106.745 97.4219L107.062 97.7615L106.745 97.4219L106.745 97.4215ZM100.532 95.0357C100.532 95.0358 100.531 95.0358 100.53 95.0359L100.532 95.0357Z" fill="#5F8083"/>
<path d="M103.025 58.4002V53.9292C103.025 53.1762 103.482 52.4768 104.228 52.2813C111.269 50.4353 119.983 57.0812 126.057 63.3945C127.432 64.8234 130.024 63.6672 129.539 61.7655C124.414 41.6544 112.942 37.9232 105.651 38.9076C104.338 39.0848 103.025 38.1646 103.025 36.8721V34.8774C103.025 33.235 101.02 32.3802 99.7841 33.4961L85.2071 46.6619C84.3153 47.4673 84.3996 48.8667 85.382 49.5648L99.9591 59.9218C101.235 60.828 103.025 59.9393 103.025 58.4002Z" fill="#FC6E47"/>
</svg>
