<svg width="149" height="150" viewBox="0 0 149 150" fill="none" xmlns="http://www.w3.org/2000/svg">
<rect y="0.397461" width="149" height="149" rx="74.5" fill="white"/>
<path fill-rule="evenodd" clip-rule="evenodd" d="M121.101 88.3438C121.619 88.197 122.159 88.4982 122.305 89.0165C124.028 95.0973 123.705 99.4283 121.298 102.217C118.925 104.966 114.813 105.864 109.89 105.864C109.352 105.864 108.915 105.427 108.915 104.888C108.915 104.35 109.352 103.913 109.89 103.913C114.722 103.913 118.045 103 119.821 100.943C121.563 98.9245 122.101 95.4523 120.428 89.5481C120.282 89.0298 120.583 88.4906 121.101 88.3438Z" fill="white"/>
<path fill-rule="evenodd" clip-rule="evenodd" d="M109.891 99.036C110.429 99.036 110.866 99.4727 110.866 100.011V104.401L114.377 107.034C114.808 107.357 114.896 107.969 114.572 108.4C114.249 108.831 113.638 108.918 113.207 108.595L108.915 105.376V100.011C108.915 99.4727 109.352 99.036 109.891 99.036Z" fill="white"/>
<path fill-rule="evenodd" clip-rule="evenodd" d="M103.401 102.9C102.883 103.047 102.344 102.746 102.197 102.228C100.475 96.1468 100.798 91.8159 103.205 89.0271C105.577 86.2777 109.69 85.3803 114.612 85.3803C115.151 85.3803 115.587 85.817 115.587 86.3557C115.587 86.8944 115.151 87.3311 114.612 87.3311C109.78 87.3311 106.457 88.2442 104.682 90.3016C102.94 92.3197 102.402 95.7918 104.074 101.696C104.221 102.214 103.92 102.754 103.401 102.9Z" fill="white"/>
<path fill-rule="evenodd" clip-rule="evenodd" d="M114.612 92.2082C114.073 92.2082 113.637 91.7715 113.637 91.2328V86.8435L110.125 84.21C109.694 83.8868 109.607 83.2754 109.93 82.8445C110.253 82.4135 110.865 82.3262 111.296 82.6494L115.587 85.8682V91.2328C115.587 91.7715 115.151 92.2082 114.612 92.2082Z" fill="white"/>
<path d="M25.4989 83.2751L26.9298 89.7281C28.5663 97.1082 36.4764 100.987 44.0357 100.987H48.036L111.176 99.7509C120.334 98.8722 121.908 94.5335 121.55 92.4741L120.298 61.8566C120.155 55.9254 115.945 54.2595 113.859 54.168H98.1185L57.1582 54.9918L35.1576 55.8155C25.8566 55.9254 23.8891 62.4516 24.068 65.701V71.9407C24.068 72.9968 24.145 74.0515 24.2983 75.0965L25.4989 83.2751Z" fill="#D9D9D9"/>
<path fill-rule="evenodd" clip-rule="evenodd" d="M104.039 64.8831C104.046 65.4218 103.634 65.8647 103.118 65.8725L38.6601 66.8479C38.1442 66.8557 37.72 66.4254 37.7125 65.8868C37.705 65.3482 38.1172 64.9052 38.633 64.8974L103.091 63.922C103.607 63.9142 104.031 64.3445 104.039 64.8831ZM39.1137 76.6019C39.1137 76.0632 39.5319 75.6265 40.0478 75.6265H102.871C103.387 75.6265 103.805 76.0632 103.805 76.6019C103.805 77.1406 103.387 77.5773 102.871 77.5773H40.0478C39.5319 77.5773 39.1137 77.1406 39.1137 76.6019Z" fill="#3B3B3B"/>
<path fill-rule="evenodd" clip-rule="evenodd" d="M99.4216 89.3537C98.6576 89.9087 97.6711 90.8514 96.6895 91.8863L95.9479 91.3809L96.6895 91.8863C96.3651 92.2283 95.9044 92.3173 95.6025 92.3357C95.2812 92.3554 94.9584 92.3097 94.6819 92.2409C94.4009 92.1709 94.1155 92.0642 93.8664 91.9254C93.6373 91.7979 93.3397 91.5883 93.1755 91.277C93.0771 91.0905 92.9478 90.8901 92.7802 90.677C92.7425 90.6291 92.7182 90.6148 92.716 90.6135C92.7159 90.6134 92.7188 90.6141 92.7152 90.6135C92.6969 90.611 92.587 90.6046 92.3473 90.6963C91.8541 90.885 91.1886 91.3408 90.4191 92.0258C88.9095 93.3699 87.3076 95.3135 86.2926 96.7033C86.0159 97.082 85.4294 97.199 84.9826 96.9645C84.5357 96.7301 84.3977 96.233 84.6744 95.8542C85.7211 94.4211 87.4022 92.3723 89.0407 90.9136C89.8453 90.1972 90.7202 89.549 91.5642 89.2261C91.9931 89.062 92.501 88.9478 93.0284 89.0224C93.5943 89.1025 94.0476 89.3803 94.3637 89.7822C94.5703 90.0449 94.7418 90.3041 94.881 90.5592C94.8892 90.5644 94.8993 90.5705 94.9115 90.5773C94.9858 90.6187 95.0958 90.6627 95.2181 90.6931C95.2707 90.7062 95.3166 90.7146 95.3547 90.7198C96.3061 89.7258 97.3224 88.7542 98.1829 88.129C98.6119 87.8173 99.115 87.5058 99.6191 87.3862C99.8873 87.3225 100.268 87.2866 100.651 87.4401C101.053 87.6012 101.269 87.8938 101.374 88.1598C101.647 88.8542 101.731 89.7537 101.737 90.6068C101.741 91.1508 101.713 91.7068 101.669 92.2282L105.37 89.7447C105.771 89.4755 106.333 89.3979 106.832 89.5907C107.369 89.7984 108.087 90.1229 108.688 90.512C108.988 90.706 109.291 90.9369 109.527 91.2002C109.649 91.3353 109.769 91.4985 109.857 91.6855C109.942 91.6663 110.043 91.6409 110.158 91.6079C110.871 91.4041 111.764 91.028 112.375 90.7365C112.833 90.5181 113.413 90.6558 113.671 91.0441C113.929 91.4323 113.766 91.9241 113.308 92.1425C112.651 92.4559 111.641 92.8864 110.767 93.1363C110.353 93.2547 109.855 93.3674 109.41 93.3511C109.186 93.3429 108.85 93.2982 108.554 93.099C108.225 92.8768 108.092 92.564 108.084 92.2729C108.077 92.2593 108.058 92.2276 108.012 92.1763C107.917 92.0704 107.758 91.9396 107.533 91.7939C107.169 91.5584 106.719 91.3385 106.314 91.1685L102.017 94.0521C100.982 94.7469 99.5506 93.9902 99.6819 92.9511C99.7706 92.2494 99.8401 91.4103 99.8343 90.6168C99.8302 90.0599 99.7888 89.5606 99.7069 89.1585C99.6237 89.2115 99.5287 89.2759 99.4216 89.3537ZM100.134 88.9391C100.134 88.9391 100.134 88.9392 100.133 88.9394C100.134 88.9391 100.134 88.939 100.134 88.9391ZM109.493 91.7396C109.485 91.7393 109.486 91.7388 109.494 91.7396C109.493 91.7396 109.493 91.7396 109.493 91.7396ZM100.836 92.787C100.836 92.7871 100.836 92.7872 100.836 92.7874L101.11 93.0807L100.836 92.7874L100.836 92.787ZM95.4696 90.7265C95.4695 90.7265 95.469 90.7266 95.4681 90.7266L95.4696 90.7265Z" fill="#5F8083"/>
<path d="M37.3532 93.7595C39.1948 87.5563 43.8553 86.3286 45.9553 86.4901C49.7354 85.3154 53.2651 87.293 54.5574 88.4286C61.4391 96.0857 55.9709 103.25 52.3766 105.875C49.9535 107.329 46.1168 107.127 44.5014 106.844C36.5536 104.421 36.4243 97.1115 37.3532 93.7595Z" fill="#1FAD66"/>
<path fill-rule="evenodd" clip-rule="evenodd" d="M52.2095 91.737C52.5234 91.9128 52.6354 92.3098 52.4596 92.6237L47.89 100.784C47.4217 101.62 46.3147 101.836 45.5662 101.237L42.1552 98.5085C41.8742 98.2837 41.8287 97.8737 42.0534 97.5928C42.2782 97.3118 42.6882 97.2663 42.9691 97.491L45.1802 99.2599C45.9287 99.8587 47.0357 99.6426 47.504 98.8063L51.3228 91.9871C51.4986 91.6732 51.8956 91.5612 52.2095 91.737Z" fill="white"/>
<path d="M98.0139 60.5155V56.4917C98.0139 55.8139 98.4237 55.1845 99.0921 55.0085C105.405 53.3472 113.218 59.3285 118.663 65.0104C119.896 66.2964 122.22 65.2558 121.785 63.5443C117.19 45.4443 106.905 42.0863 100.368 42.9722C99.1912 43.1316 98.0139 42.3035 98.0139 41.1402V39.345C98.0139 37.8668 96.2158 37.0976 95.1082 38.1019L82.0391 49.951C81.2395 50.676 81.3151 51.9354 82.1959 52.5636L95.265 61.885C96.4085 62.7006 98.0139 61.9008 98.0139 60.5155Z" fill="#FC6E47"/>
</svg>
