<svg width="149" height="150" viewBox="0 0 149 150" fill="none" xmlns="http://www.w3.org/2000/svg">
<rect y="0.397461" width="149" height="149" rx="74.5" fill="white"/>
<path d="M43.5835 70.4468C44.8093 67.6449 46.8858 65.2034 48.7531 62.8026C53.1391 57.1635 60.3956 53.8661 67.4677 53.8661C91.403 53.8661 91.4521 56.4944 91.4521 55.5792C93.1522 51.8657 95.4115 49.1892 99.477 48.2857C101.391 47.8605 101.19 56.4719 101.19 57.7533C101.19 59.9138 102.579 60.279 104.116 61.7607C104.825 62.4446 105.531 63.0757 106.229 63.7744C109.771 67.3158 112.174 72.913 113.373 77.6701C115.376 77.6701 118.666 77.1374 120.566 77.6801C120.779 77.741 120.666 78.7568 120.666 78.9325C120.666 80.357 120.486 81.7777 120.486 83.1703C120.486 85.2828 120.698 89.8537 119.304 91.646C118.938 92.1159 118.672 92.7126 118.322 93.2189C116.234 96.2347 112.714 98.6631 109.936 101.013C108.417 102.299 106.651 103.41 104.937 104.4C99.5371 107.52 94.9867 110.11 88.9206 111.753C85.7249 112.619 80.5435 113.085 77.346 113.016C70.6721 112.87 64.5166 111.361 58.2707 109.229C53.0265 105.725 49.9857 103.353 45.2867 95.8438C44.5196 94.0269 43.6912 92.217 43.2129 90.3035C42.3587 86.8868 41.8604 83.1292 41.8604 79.6137C41.8604 76.499 42.3251 73.3232 43.5835 70.4468Z" fill="#FBBBB9"/>
<path d="M66.3189 111.44C66.2084 112.775 65.8474 114.888 65.5789 117.184C65.24 120.08 62.5606 119.112 59.3713 116.815C56.182 114.518 54.0752 109.051 54.0752 104.913C54.0752 104.594 54.0984 102.928 54.5209 102.816C54.5209 102.574 63.9425 106.002 66.6721 107.133C66.6721 107.133 66.3765 110.744 66.3189 111.44Z" fill="#FBBBB9"/>
<path d="M98.8975 111.44C98.7871 112.775 98.426 114.888 98.1575 117.184C97.8186 120.08 95.1392 119.112 91.9499 116.815C88.7606 114.518 86.6538 109.051 86.6538 104.913C86.6538 104.594 86.677 102.928 87.0995 102.816C87.0995 102.574 96.5211 106.002 99.2507 107.133C99.2507 107.133 98.9551 110.744 98.8975 111.44Z" fill="#FBBBB9"/>
<path d="M43.5807 76.5955C43.2448 76.6375 42.8254 76.9258 42.4495 77.001C41.3002 77.2309 40.0668 77.2703 38.9172 77.0223C36.1923 76.4346 33.9216 73.6787 34.2857 70.8115C34.4615 69.4272 35.6838 68.6678 37.0443 69.008C37.6467 69.1585 37.6349 70.189 37.5512 70.6407C37.4246 71.3245 36.915 72.1219 36.372 72.5563C35.1092 73.5665 33.223 73.4624 31.9593 72.5403C30.5803 71.5339 29.9424 69.3477 29.9424 67.706C29.9424 66.0598 30.2817 64.5187 31.4791 63.288C31.9499 62.8041 32.5408 62.4733 33.1172 62.1408C33.2887 62.0418 34.0274 61.5676 34.1683 61.7086" stroke="#FBBBB9" stroke-width="1.81967" stroke-linecap="round"/>
<path d="M105.281 73.6223C105.45 73.6012 105.423 73.479 105.423 73.3369" stroke="#FBBBB9" stroke-width="1.81967" stroke-linecap="round"/>
<path d="M100.856 72.4806C101.004 72.3622 101.107 72.3733 101.285 72.3379" stroke="#4B4B4B" stroke-width="3.63935" stroke-linecap="round"/>
<path d="M96.9048 77.4619C99.1138 77.4619 100.893 78.4068 102.096 81.3273C102.549 82.4271 102.096 85.3516 102.096 85.3516" stroke="#F59F9D" stroke-width="1.81967" stroke-linecap="round"/>
<rect x="70.0835" y="90.5508" width="16.5705" height="16.5705" rx="8.28526" fill="#F1D84A" stroke="#947100" stroke-width="1.05923"/>
<path d="M78.9644 92.5332C79.4461 92.5332 79.8191 92.5576 80.2664 92.7623C80.607 92.9182 80.9544 93.0704 81.2484 93.3042C81.6704 93.6399 82.0857 93.9452 82.4668 94.3335C82.911 94.7861 83.1712 95.4076 83.507 95.9374C83.8109 96.417 84.137 97.0675 84.1707 97.6414C84.2056 98.2336 84.2016 98.8256 84.2016 99.4199C84.2016 99.5422 84.2466 99.7714 84.1853 99.8818C84.1396 99.964 84.0914 100.132 84.0707 100.225C84.0248 100.432 83.8957 100.634 83.8398 100.829C83.8101 100.933 83.6567 101.267 83.5797 101.306" stroke="#947100" stroke-width="1.05923" stroke-linecap="round"/>
<path d="M72.4839 100.978C72.4839 101.248 72.6769 101.508 72.8039 101.734C72.9438 101.983 73.1066 102.215 73.2713 102.449C73.4051 102.638 73.6095 102.823 73.775 102.989C74.1747 103.388 74.57 103.73 75.068 104.004C75.4446 104.211 75.8024 104.368 76.2136 104.496C76.4932 104.584 76.8496 104.617 77.0992 104.742" stroke="#947100" stroke-width="1.05923" stroke-linecap="round"/>
<path d="M107.7 54.6671L116.064 49.2837" stroke="#C44538" stroke-width="2.11845" stroke-linecap="round"/>
<path d="M87.2236 36.979L89.0504 46.8806" stroke="#C44538" stroke-width="2.11845" stroke-linecap="round"/>
<path d="M105.105 33.5181L102.605 43.9965" stroke="#C44538" stroke-width="2.11845" stroke-linecap="round"/>
</svg>
