<svg width="149" height="150" viewBox="0 0 149 150" fill="none" xmlns="http://www.w3.org/2000/svg">
<rect y="0.897461" width="149" height="149" rx="74.5" fill="white"/>
<path d="M103.003 76L100.94 88.9886C100.889 89.3074 98.8002 89.3072 97.7621 89.2672L84.5393 88.1854L60.803 87.7053L31.1744 85.937C28.3202 85.7667 26.1245 83.3482 26.23 80.4909L28.8619 52.0832C28.8397 50.0006 30.3657 49.2628 31.9917 49.1171C33.7988 48.9552 35.6215 49.3197 37.4358 49.3003L43.0213 49.2406L52.3196 49.3858L81.1957 50.0555L103.862 51.4647C104.405 51.4985 104.923 51.7053 105.34 52.055C106.015 52.6214 106.349 53.497 106.223 54.3694L104.831 63.9925L103.003 76Z" fill="#50B557" stroke="#AFD89D" stroke-width="2.01733" stroke-linejoin="round"/>
<path d="M103.56 84.2714L102.816 97.4017C102.797 97.7239 100.719 97.934 99.6824 97.9988L86.4179 98.2537L62.7538 100.166L33.0977 101.39C30.2409 101.507 27.8129 99.3223 27.6301 96.4689L27.3886 67.9406C27.1568 65.8708 28.6008 64.9831 30.2038 64.6744C31.9854 64.3314 33.8356 64.5106 35.6387 64.3086L41.1899 63.6868L50.4556 62.8951L79.2523 60.6542L101.945 59.7742C102.489 59.7532 103.025 59.9068 103.475 60.2127C104.204 60.7083 104.624 61.5458 104.587 62.4264L104.171 72.1408L103.56 84.2714Z" fill="#50B557" stroke="#AFD89C" stroke-width="2.01733" stroke-linejoin="round"/>
<path d="M39.1164 65.6504L37.6308 78.7176C37.5943 79.0384 39.6071 79.5967 40.6181 79.8358L53.6485 82.3294L76.6488 88.2144L105.671 94.4339C108.467 95.033 111.229 93.2897 111.892 90.5083L116.953 62.4313C117.531 60.4306 116.258 59.3115 114.73 58.7363C113.032 58.0971 111.178 57.9609 109.435 57.457L104.069 55.9058L95.0706 53.5591L67.0671 46.4824L44.8496 41.7789C44.3173 41.6662 43.763 41.7271 43.2678 41.9525C42.4656 42.3177 41.9094 43.072 41.7977 43.9464L40.5653 53.5912L39.1164 65.6504Z" fill="#50B557" stroke="#AFD89F" stroke-width="2.01733" stroke-linejoin="round"/>
<path d="M48.0938 65.5026L55.0806 63.4802L53.2421 67.1305L57.3576 66.316L56.7494 68.2394L59.9387 68.19M49.4164 47.9367C49.8713 49.8437 49.3739 53.4243 43.7449 52.4908L40.2442 73.5995C42.0498 73.4652 45.2961 74.3506 43.8365 78.9669L49.911 79.8297L68.4386 81.4565L88.232 82.4256L100.381 84.1512C101.984 84.658 105.241 84.8415 105.444 81.5206C105.428 80.4575 106.103 78.767 108.938 80.5094L110.055 70.2839L110.918 64.2094C108.252 63.7191 103.923 61.5744 107.934 56.9185C108.137 56.2774 107.712 54.9441 104.391 54.7404L49.4164 47.9367Z" stroke="#AFD89D" stroke-width="2.01733" stroke-linecap="round" stroke-linejoin="round"/>
<path d="M41.5215 72.7072L38.9276 59.8141C38.8639 59.4977 40.8218 58.7698 41.8087 58.4454L54.5792 54.8503L76.9942 47.0265L105.381 38.3562C108.116 37.5209 111.017 39.0224 111.914 41.7372L119.349 69.2807C120.096 71.2249 118.923 72.4484 117.449 73.1517C115.812 73.9334 113.976 74.2271 112.283 74.8777L107.068 76.8806L98.3026 79.9856L71.0042 89.4233L49.2683 96.0032C48.7476 96.1609 48.1901 96.1475 47.6775 95.9651C46.8471 95.6696 46.2287 94.9654 46.0428 94.1038L43.9929 84.5991L41.5215 72.7072Z" fill="#50B557" stroke="#AFD89C" stroke-width="2.01733" stroke-linejoin="round"/>
<path d="M52.9515 74.6557L58.6684 70.1588L58.3344 74.2322L61.8433 71.9326L62.0015 73.9437L64.9391 72.7008M47.5844 57.8777C48.7218 59.4745 49.6046 62.98 44.0368 64.2275L48.7148 85.1069C50.338 84.3046 53.6793 83.9069 54.059 88.7336L60.0132 87.2533L77.7969 81.8071L96.507 75.2763L108.415 72.3158C110.091 72.184 113.179 71.1317 112.121 67.9771C111.707 66.998 111.699 65.1774 114.98 65.7287L112.177 55.8313L110.697 49.8771C108.042 50.4232 103.224 50.0603 105.195 44.2393C105.142 43.5689 104.248 42.4926 101.093 43.5501L47.5844 57.8777Z" stroke="#AED79B" stroke-width="2.01733" stroke-linecap="round" stroke-linejoin="round"/>
<path d="M23.0267 79.582L21.515 66.4995C21.4779 66.1784 23.542 65.6175 24.5787 65.3773L37.9408 62.8691L61.5276 56.9565L91.4021 50.68C94.2131 50.0894 96.9853 51.8376 97.6637 54.6288L102.828 82.7369C104.273 87.634 95.3243 87.6652 90.4114 89.056L89.6128 89.2821L80.3848 91.6396L51.6672 98.7498L28.8641 103.483C28.3306 103.594 27.7757 103.534 27.2776 103.313C26.4468 102.944 25.8683 102.169 25.7511 101.268L24.5016 91.6552L23.0267 79.582Z" fill="#50B557" stroke="#AAD69A" stroke-width="2.01733" stroke-linejoin="round"/>
<path d="M31.1598 71.5314L30.1511 58.4187C30.1263 58.0968 32.1581 57.6121 33.1771 57.41L46.2898 55.3927L69.4891 50.3494L103.784 44.2974L104.792 49.3407L108.827 77.5834C109.634 80.8111 105.801 81.618 103.784 81.618L95.7144 83.6354L86.6364 85.6527L58.3938 91.7047L35.1944 95.7394L33.1771 94.7307L32.1684 83.6354L31.1598 71.5314Z" fill="#50B557" stroke="#AAD69A" stroke-width="2.01733" stroke-linejoin="round"/>
<path d="M42.2549 76.5745L48.3069 72.5399L47.6545 76.5745L51.3329 74.5572L51.3329 76.5745L54.3589 75.5658M38.2202 59.4272C39.2289 61.1083 39.8341 64.6723 34.1855 65.4792L37.2115 86.6612C38.8927 85.9887 42.2549 85.8543 42.2549 90.6958L48.3069 89.6872L66.4629 85.6525L85.6275 80.6092L97.7315 78.5919C99.4126 78.5919 102.573 77.7849 101.766 74.5572C101.43 73.5485 101.564 71.7329 104.792 72.5399L102.775 62.4532L101.766 56.4012C99.0764 56.7374 94.3021 55.9977 96.7229 50.3492C96.7229 49.6768 95.9159 48.5336 92.6882 49.3405L38.2202 59.4272Z" stroke="#AAD69A" stroke-width="2.01733" stroke-linecap="round" stroke-linejoin="round"/>
<path d="M90.6709 64.4705L96.7229 62.4531" stroke="#AFD89D" stroke-width="2.01733" stroke-linecap="round" stroke-linejoin="round"/>
<path d="M90.6709 67.4963L96.7229 65.479" stroke="#AFD89D" stroke-width="2.01733" stroke-linecap="round" stroke-linejoin="round"/>
<path d="M92.6887 70.5223L95.7147 69.5137" stroke="#AFD89D" stroke-width="2.01733" stroke-linecap="round" stroke-linejoin="round"/>
<path d="M68.7939 54.6418C70.0473 54.4851 71.3909 53.9213 72.6396 53.9213C73.2403 53.7879 74.972 53.8593 75.5619 53.9213C77.0402 54.077 79.4846 55.2625 80.6354 56.1131C82.1119 57.2044 83.887 58.2702 85.0189 59.766C86.5027 61.7267 87.1345 64.3522 87.5252 66.6964C87.7428 68.002 87.8498 69.0629 87.4339 70.3595C87.1461 71.2569 86.9724 72.4061 86.4294 73.1905C85.2111 74.9503 83.7552 76.4126 82.2285 77.9393C81.5434 78.6244 80.6198 79.2221 79.7628 79.6744C78.8782 80.1413 78.233 80.7539 77.3922 81.2269C76.7764 81.5733 75.678 81.9719 74.9863 82.0488C74.9863 82.4141 73.0839 82.46 72.6396 82.5967C71.3389 82.997 70.3896 82.5967 69.0273 82.5967C67.8878 82.5967 66.974 82.1063 65.8817 82.0488C65.0584 82.0055 64.1194 81.4623 63.3348 81.2269C62.1499 80.8714 61.0181 80.3968 60.0371 79.6338C58.1358 78.155 56.5244 76.2597 55.7449 73.9211C54.6736 70.7071 54.4562 67.0437 56.2015 64.0379C57.1051 62.4816 57.6959 61.1346 59.0832 59.9487C59.9712 59.1896 60.4818 58.0845 61.4272 57.4728C63.4964 56.1339 66.3486 54.9474 68.7939 54.6418Z" fill="#469D4C" stroke="#AFD89C" stroke-width="2.01733" stroke-linecap="round"/>
<path d="M61.5532 61.1042C62.5015 61.1042 63.4697 60.746 64.375 60.5028C66.3739 59.9657 68.3722 59.4193 70.3563 58.8357C71.1862 58.5916 72.0191 58.3597 72.8476 58.1117C73.3957 57.9477 73.9999 57.9217 74.5183 57.6625C74.7756 57.5339 75.0434 57.4535 75.3203 57.3766C75.5381 57.3161 75.5967 57.222 75.3871 57.3617" stroke="#C2E3AA" stroke-width="2.01733" stroke-linecap="round"/>
<path d="M70.4417 59.0991C70.3903 59.0991 70.5846 59.1598 70.6496 59.2068C71.0191 59.4736 71.3568 59.7902 71.7152 60.0719C73.0086 61.0881 73.6892 62.8923 73.9763 64.4715C74.469 67.1812 72.915 69.6742 70.6867 71.0989C69.6284 71.7755 68.4195 72.2361 67.1819 72.4504C66.7735 72.521 66.335 72.5635 65.9232 72.4949C65.7916 72.473 65.6675 72.3753 65.5408 72.3612C65.5039 72.3571 65.6037 72.4018 65.6299 72.4281C65.7472 72.5453 65.8326 72.6661 65.9715 72.7659C66.525 73.1637 67.151 73.5306 67.7425 73.8686C68.6484 74.3863 69.6408 74.8279 70.6014 75.235C71.9967 75.8262 73.2423 76.7082 74.5815 77.4069C74.9557 77.6022 75.3423 77.7742 75.7213 77.9601C75.8898 78.0428 76.1135 78.0851 76.2559 78.2126C76.3595 78.3052 76.9582 78.7313 76.7906 78.4799" stroke="#C2E3AA" stroke-width="2.01733" stroke-linecap="round"/>
<path d="M68.7255 65.9765C69.1055 65.7882 69.61 65.731 70.0182 65.6056C71.2695 65.2213 72.567 64.9643 73.8263 64.5954C75.2646 64.174 76.6831 63.7162 78.102 63.2352C78.5601 63.0799 79.3605 62.9778 79.7272 62.6889" stroke="#C2E3AA" stroke-width="2.01733" stroke-linecap="round"/>
<circle cx="108.429" cy="97.8915" r="18.8798" fill="#FCD400"/>
<path d="M107.61 105.92C106.366 105.92 105.258 105.691 104.284 105.233C103.317 104.776 102.548 104.145 101.979 103.342C101.41 102.538 101.114 101.617 101.091 100.579H104.786C104.827 101.277 105.12 101.843 105.666 102.277C106.211 102.711 106.859 102.928 107.61 102.928C108.208 102.928 108.736 102.796 109.194 102.532C109.657 102.263 110.018 101.89 110.276 101.415C110.54 100.934 110.672 100.383 110.672 99.7611C110.672 99.1277 110.537 98.5705 110.267 98.0895C110.003 97.6086 109.636 97.2332 109.167 96.9634C108.698 96.6936 108.161 96.5557 107.557 96.5499C107.029 96.5499 106.516 96.6584 106.017 96.8754C105.525 97.0924 105.141 97.3886 104.865 97.764L101.478 97.1569L102.331 87.6552H113.346V90.7696H105.472L105.006 95.283H105.111C105.428 94.8372 105.906 94.4677 106.545 94.1744C107.185 93.8812 107.9 93.7345 108.692 93.7345C109.777 93.7345 110.745 93.9897 111.595 94.5C112.446 95.0102 113.117 95.7111 113.61 96.6027C114.103 97.4883 114.346 98.5089 114.34 99.6643C114.346 100.878 114.065 101.958 113.496 102.902C112.933 103.84 112.144 104.579 111.129 105.119C110.12 105.653 108.947 105.92 107.61 105.92Z" fill="#947100"/>
</svg>
