<svg width="149" height="150" viewBox="0 0 149 150" fill="none" xmlns="http://www.w3.org/2000/svg">
<rect y="0.897461" width="149" height="149" rx="74.5" fill="white"/>
<path d="M26.482 76.1973C26.482 75.7663 26.3267 73.399 26.1504 70.8596C25.9115 67.4197 26.0161 63.9637 26.482 60.5471C26.482 54.0067 34.1125 51.7487 37.9277 51.4372L57.0817 49.8021L80.9075 49.335L100.762 49.335C106.929 49.335 110.028 56.0311 110.339 59.3792L111.974 73.6279L112.442 90.2125C113.002 98.2478 106.446 100.568 103.098 100.724L95.857 101.191L80.2067 101.892L54.2787 101.892L45.9219 101.892C42.7769 101.892 39.6363 101.658 36.5262 101.191C30.9201 100.63 28.74 93.0155 28.3507 89.2781C27.7278 85.2293 26.482 76.9448 26.482 76.1973Z" fill="#DBDBDE"/>
<path d="M35.5911 59.8464L35.5911 66.3868L44.0002 66.3868L43.7666 59.6128L35.8247 59.8464" stroke="#787878" stroke-width="2.21053"/>
<path d="M92.1206 60.0801C92.5878 60.9366 93.3353 62.8831 92.5878 63.8175M94.9236 59.3794C95.5465 60.2358 96.6055 62.3225 95.858 63.8175M97.4931 58.2114C98.2717 59.2236 99.5486 61.7619 98.4274 63.8175" stroke="#787878" stroke-width="2.21053" stroke-linecap="round"/>
<circle cx="96.3251" cy="89.5112" r="4.20455" fill="#C4C4C4"/>
<circle cx="100.53" cy="89.5112" r="4.20455" fill="#E9E9E9"/>
<rect x="60.1562" y="77.46" width="65.625" height="18.75" rx="3.50379" fill="#1FAD66"/>
<path d="M73.5413 88.9912L73.6816 86.5193L71.6064 87.8804L70.8618 86.5864L73.0774 85.4756L70.8618 84.3647L71.6064 83.0708L73.6816 84.4319L73.5413 81.96H75.0244L74.8901 84.4319L76.9653 83.0708L77.71 84.3647L75.4883 85.4756L77.71 86.5864L76.9653 87.8804L74.8901 86.5193L75.0244 88.9912H73.5413ZM85.9985 88.9912L86.1389 86.5193L84.0637 87.8804L83.3191 86.5864L85.5347 85.4756L83.3191 84.3647L84.0637 83.0708L86.1389 84.4319L85.9985 81.96H87.4817L87.3474 84.4319L89.4226 83.0708L90.1672 84.3647L87.9456 85.4756L90.1672 86.5864L89.4226 87.8804L87.3474 86.5193L87.4817 88.9912H85.9985ZM98.4558 88.9912L98.5962 86.5193L96.521 87.8804L95.7764 86.5864L97.9919 85.4756L95.7764 84.3647L96.521 83.0708L98.5962 84.4319L98.4558 81.96H99.939L99.8047 84.4319L101.88 83.0708L102.625 84.3647L100.403 85.4756L102.625 86.5864L101.88 87.8804L99.8047 86.5193L99.939 88.9912H98.4558ZM110.913 88.9912L111.053 86.5193L108.978 87.8804L108.234 86.5864L110.449 85.4756L108.234 84.3647L108.978 83.0708L111.053 84.4319L110.913 81.96H112.396L112.262 84.4319L114.337 83.0708L115.082 84.3647L112.86 85.4756L115.082 86.5864L114.337 87.8804L112.262 86.5193L112.396 88.9912H110.913Z" fill="black"/>
</svg>
