<svg width="149" height="150" viewBox="0 0 149 150" fill="none" xmlns="http://www.w3.org/2000/svg">
<rect y="0.897461" width="149" height="149" rx="74.5" fill="white"/>
<rect width="94.0625" height="94.0625" transform="translate(29.0026 35.3867)" fill="white"/>
<path d="M31.0447 47.9286V51.7012C31.0447 55.1645 33.8522 57.972 37.3155 57.972H115.182C118.646 57.972 121.453 55.1645 121.453 51.7012V47.9285C121.453 44.4653 118.646 41.6577 115.182 41.6577L37.3155 41.6577C33.8522 41.6577 31.0447 44.4653 31.0447 47.9286Z" fill="#CEECF0"/>
<path d="M58.0448 117.451C47.4405 118.267 46.8285 111.333 46.8287 104.876V84.1428V51.5142H107.327V104.876C107.327 114.732 99.8501 116.998 97.131 117.451H58.0448Z" fill="#C44538"/>
<line x1="60.4825" y1="53.0819" x2="60.4825" y2="103.648" stroke="black" stroke-width="3.13542" stroke-linecap="round" stroke-dasharray="18.81 15.68"/>
<rect x="86.1053" y="84.8223" width="10.8762" height="12.9155" rx="3.13542" fill="#FCD400"/>
<path d="M43.96 51.8545L109.897 51.8545" stroke="black" stroke-width="1.56771" stroke-linecap="round"/>
</svg>
