<svg width="149" height="150" viewBox="0 0 149 150" fill="none" xmlns="http://www.w3.org/2000/svg">
<rect y="0.897461" width="149" height="149" rx="74.5" fill="white"/>
<path d="M23.4095 79.0099C23.4095 78.5002 23.2258 75.7006 23.0173 72.6975C22.7348 68.6294 22.8585 64.5422 23.4095 60.5017C23.4095 52.767 32.4333 50.0967 36.9453 49.7284L59.597 47.7947L87.7736 47.2422L111.254 47.2422C118.547 47.2422 122.212 55.1611 122.58 59.1206L124.514 75.9713L125.066 95.5844C125.729 105.087 117.976 107.831 114.016 108.015L105.453 108.568L86.9449 109.396L56.2821 109.396L46.3993 109.396C42.68 109.396 38.9659 109.119 35.2878 108.568C28.658 107.905 26.0798 98.8992 25.6194 94.4794C24.8827 89.6912 23.4095 79.8939 23.4095 79.0099Z" fill="#91D5DD"/>
<path d="M34.1824 59.6727L34.1824 67.4075L44.1271 67.4075L43.8509 59.3965L34.4587 59.6727" stroke="#222222" stroke-width="2.00909"/>
<path d="M36.9451 91.9932L47.9947 91.9932M50.7571 91.9932L60.978 91.9932M64.2929 91.9932L75.6188 91.9932M36.9451 97.2417L44.4036 97.2417M46.8898 97.2417L54.6245 97.2417M57.9394 97.2417L66.2266 97.2417M68.989 97.2417L76.1713 97.2417M80.0387 97.2417L89.1546 97.2418" stroke="#222222" stroke-width="2.00909" stroke-linecap="round"/>
<path d="M101.033 59.9492C101.585 60.9621 102.469 63.2641 101.585 64.369M104.348 59.1205C105.084 60.1333 106.337 62.6011 105.453 64.369M107.386 57.7393C108.307 58.9363 109.817 61.9381 108.491 64.369" stroke="#222222" stroke-width="2.00909" stroke-linecap="round"/>
<circle cx="106.005" cy="94.7551" r="4.97234" fill="#C4C4C4"/>
<circle cx="110.977" cy="94.7555" r="4.97234" fill="#686873"/>
<circle cx="118.425" cy="97.6071" r="18.5299" fill="#1FAD66"/>
<path d="M118.187 113.549C117.572 113.549 118.065 114.004 118.187 113.762" stroke="#1FAD66" stroke-width="1.55729" stroke-linecap="round"/>
<path d="M105.112 89.7813C106.281 87.2927 110.725 82.2434 119.144 81.9556" stroke="#1FAD66" stroke-width="1.55729" stroke-linecap="round"/>
<path fill-rule="evenodd" clip-rule="evenodd" d="M127.437 88.8203C127.975 88.6679 128.535 88.9807 128.687 89.5191C130.476 95.8354 130.141 100.334 127.641 103.231C125.176 106.087 120.904 107.019 115.792 107.019C115.232 107.019 114.778 106.565 114.778 106.006C114.778 105.446 115.232 104.993 115.792 104.993C120.811 104.993 124.262 104.044 126.107 101.907C127.916 99.8108 128.475 96.2041 126.738 90.0713C126.585 89.5329 126.898 88.9728 127.437 88.8203Z" fill="white"/>
<path fill-rule="evenodd" clip-rule="evenodd" d="M115.792 99.9266C116.351 99.9266 116.805 100.38 116.805 100.94V105.499L120.452 108.235C120.9 108.57 120.991 109.205 120.655 109.653C120.319 110.101 119.684 110.191 119.236 109.856L114.779 106.512V100.94C114.779 100.38 115.232 99.9266 115.792 99.9266Z" fill="white"/>
<path fill-rule="evenodd" clip-rule="evenodd" d="M109.051 103.94C108.512 104.093 107.952 103.78 107.8 103.242C106.011 96.9253 106.346 92.4267 108.846 89.5299C111.311 86.674 115.583 85.7418 120.696 85.7418C121.255 85.7418 121.709 86.1955 121.709 86.755C121.709 87.3146 121.255 87.7682 120.696 87.7682C115.677 87.7682 112.225 88.7166 110.38 90.8538C108.571 92.95 108.012 96.5566 109.749 102.689C109.902 103.228 109.589 103.788 109.051 103.94Z" fill="white"/>
<path fill-rule="evenodd" clip-rule="evenodd" d="M120.695 92.8342C120.136 92.8342 119.682 92.3805 119.682 91.821V87.2618L116.035 84.5262C115.587 84.1905 115.497 83.5555 115.832 83.1078C116.168 82.6602 116.803 82.5694 117.251 82.9052L121.709 86.2486V91.821C121.709 92.3805 121.255 92.8342 120.695 92.8342Z" fill="white"/>
</svg>
