<svg width="149" height="150" viewBox="0 0 149 150" fill="none" xmlns="http://www.w3.org/2000/svg">
<rect y="0.897461" width="149" height="149" rx="74.5" fill="white"/>
<path d="M44.3975 59.6155C44.4864 51.2633 44.398 41.8137 44.3977 32.2177C44.3977 28.4111 45.0983 24.878 47.9125 22.142C54.1074 16.1191 97.6882 14.1914 99.8992 24.9538C101.548 32.9798 101.711 45.6072 102.744 55.129C103.493 62.0365 103.863 69.3581 103.863 76.322C103.863 83.4165 104.032 90.6089 104.566 97.6842C105.085 104.561 106.121 112.598 102.574 118.903C101.021 121.665 93.0338 121.355 90.2727 121.481C82.4487 121.836 74.6116 121.378 66.7886 121.259C62.7067 121.198 51.8714 121.637 49.4489 117.276C48.787 116.085 48.2887 115.306 47.9128 113.943C45.8874 106.601 46.3186 98.3352 45.7388 90.7978C44.8815 79.6535 44.2789 70.7639 44.3975 59.6155Z" fill="#949494"/>
<path d="M54.6735 32.8388C55.4447 32.3908 56.623 32.2324 57.4966 32.0196C61.7328 30.9877 93.5835 29.0647 94.2933 34.7401C94.5112 36.4825 94.5038 38.2278 94.5038 39.989C94.5038 41.9986 94.6287 44.0052 94.6063 46.0165C94.575 48.824 94.969 53.7354 92.1873 55.8265C89.9876 57.4801 84.0608 57.1963 81.3902 57.3941C76.6841 57.7425 71.8339 58.0895 67.1269 57.6671C63.8555 57.3735 59.0385 57.2989 56.2103 55.5939C55.1789 54.9721 54.6905 52.7822 54.5255 51.771C53.7563 47.0553 53.5238 42.3359 53.5238 37.5719C53.5238 36.6545 53.6073 35.7512 53.6263 34.8412C53.6407 34.1477 53.978 33.2428 54.6735 32.8388Z" fill="#EBE7E4"/>
<path d="M52.1744 66.8781C52.3932 66.735 52.7276 66.6844 52.9755 66.6165C54.1776 66.2868 63.2159 65.6726 63.4174 67.4854C63.4773 68.0244 63.4772 68.5643 63.4771 69.1088L63.4771 69.1619C63.4771 69.8038 63.5126 70.4447 63.5062 71.0872C63.4973 71.9839 63.6091 73.5526 62.8198 74.2205C62.1955 74.7487 60.5137 74.6581 59.7558 74.7212C58.4204 74.8325 57.044 74.9434 55.7083 74.8084C54.78 74.7147 53.4131 74.6908 52.6105 74.1462C52.3178 73.9476 52.1792 73.2482 52.1324 72.9252C51.9141 71.419 51.8481 69.9115 51.8481 68.3899C51.8481 68.0969 51.8718 67.8084 51.8772 67.5177C51.8813 67.2962 51.977 67.0072 52.1744 66.8781Z" fill="#EBE7E4"/>
<path d="M68.5641 66.8781C68.7829 66.735 69.1173 66.6844 69.3652 66.6165C70.5673 66.2868 79.6056 65.6726 79.807 67.4854C79.8669 68.0244 79.8668 68.5643 79.8668 69.1088L79.8668 69.1619C79.8668 69.8038 79.9022 70.4447 79.8958 71.0872C79.887 71.9839 79.9988 73.5526 79.2094 74.2205C78.5852 74.7487 76.9033 74.6581 76.1455 74.7212C74.81 74.8325 73.4337 74.9434 72.098 74.8084C71.1696 74.7147 69.8027 74.6908 69.0001 74.1462C68.7074 73.9476 68.5689 73.2482 68.5221 72.9252C68.3038 71.419 68.2378 69.9115 68.2378 68.3899C68.2378 68.0969 68.2615 67.8084 68.2669 67.5177C68.271 67.2962 68.3667 67.0072 68.5641 66.8781Z" fill="#EBE7E4"/>
<path d="M84.9526 66.8781C85.1714 66.735 85.5058 66.6844 85.7537 66.6165C86.9558 66.2868 95.9941 65.6726 96.1956 67.4854C96.2554 68.0244 96.2554 68.5643 96.2553 69.1088L96.2553 69.1619C96.2553 69.8038 96.2908 70.4447 96.2844 71.0872C96.2755 71.9839 96.3873 73.5526 95.598 74.2205C94.9737 74.7487 93.2919 74.6581 92.534 74.7212C91.1986 74.8325 89.8222 74.9434 88.4865 74.8084C87.5582 74.7147 86.1913 74.6908 85.3887 74.1462C85.096 73.9476 84.9574 73.2482 84.9106 72.9252C84.6923 71.419 84.6263 69.9115 84.6263 68.3899C84.6263 68.0969 84.65 67.8084 84.6554 67.5177C84.6595 67.2962 84.7552 67.0072 84.9526 66.8781Z" fill="#EBE7E4"/>
<path d="M52.1744 80.4777C52.3932 80.3346 52.7276 80.284 52.9755 80.2161C54.1776 79.8865 63.2159 79.2723 63.4174 81.085C63.4773 81.624 63.4772 82.1639 63.4771 82.7084L63.4771 82.7615C63.4771 83.4034 63.5126 84.0444 63.5062 84.6868C63.4973 85.5835 63.6091 87.1522 62.8198 87.8201C62.1955 88.3483 60.5137 88.2577 59.7558 88.3208C58.4204 88.4321 57.044 88.543 55.7083 88.408C54.78 88.3143 53.4131 88.2904 52.6105 87.7458C52.3178 87.5472 52.1792 86.8478 52.1324 86.5248C51.9141 85.0186 51.8481 83.5112 51.8481 81.9895C51.8481 81.6965 51.8718 81.408 51.8772 81.1173C51.8813 80.8958 51.977 80.6068 52.1744 80.4777Z" fill="#EBE7E4"/>
<path d="M68.5641 80.4777C68.7829 80.3346 69.1173 80.284 69.3652 80.2161C70.5673 79.8865 79.6056 79.2723 79.807 81.085C79.8669 81.624 79.8668 82.1639 79.8668 82.7084L79.8668 82.7615C79.8668 83.4034 79.9022 84.0444 79.8958 84.6868C79.887 85.5835 79.9988 87.1522 79.2094 87.8201C78.5852 88.3483 76.9033 88.2577 76.1455 88.3208C74.81 88.4321 73.4337 88.543 72.098 88.408C71.1696 88.3143 69.8027 88.2904 69.0001 87.7458C68.7074 87.5472 68.5689 86.8478 68.5221 86.5248C68.3038 85.0186 68.2378 83.5112 68.2378 81.9895C68.2378 81.6965 68.2615 81.408 68.2669 81.1173C68.271 80.8958 68.3667 80.6068 68.5641 80.4777Z" fill="#EBE7E4"/>
<path d="M84.9526 80.4777C85.1714 80.3346 85.5058 80.284 85.7537 80.2161C86.9558 79.8865 95.9941 79.2723 96.1956 81.085C96.2554 81.624 96.2554 82.1639 96.2553 82.7084L96.2553 82.7615C96.2553 83.4034 96.2908 84.0444 96.2844 84.6868C96.2755 85.5835 96.3873 87.1522 95.598 87.8201C94.9737 88.3483 93.2919 88.2577 92.534 88.3208C91.1986 88.4321 89.8222 88.543 88.4865 88.408C87.5582 88.3143 86.1913 88.2904 85.3887 87.7458C85.096 87.5472 84.9574 86.8478 84.9106 86.5248C84.6923 85.0186 84.6263 83.5112 84.6263 81.9895C84.6263 81.6965 84.65 81.408 84.6554 81.1173C84.6595 80.8958 84.7552 80.6068 84.9526 80.4777Z" fill="#EBE7E4"/>
<path d="M52.1744 94.0773C52.3932 93.9343 52.7276 93.8837 52.9755 93.8157C54.1776 93.4861 63.2159 92.8719 63.4174 94.6846C63.4773 95.2236 63.4772 95.7635 63.4771 96.308L63.4771 96.3611C63.4771 97.003 63.5126 97.644 63.5062 98.2864C63.4973 99.1831 63.6091 100.752 62.8198 101.42C62.1955 101.948 60.5137 101.857 59.7558 101.92C58.4204 102.032 57.044 102.143 55.7083 102.008C54.78 101.914 53.4131 101.89 52.6105 101.345C52.3178 101.147 52.1792 100.447 52.1324 100.124C51.9141 98.6182 51.8481 97.1108 51.8481 95.5891C51.8481 95.2961 51.8718 95.0076 51.8772 94.7169C51.8813 94.4954 51.977 94.2064 52.1744 94.0773Z" fill="#EBE7E4"/>
<path d="M68.5641 94.0773C68.7829 93.9343 69.1173 93.8837 69.3652 93.8157C70.5673 93.4861 79.6056 92.8719 79.807 94.6846C79.8669 95.2236 79.8668 95.7635 79.8668 96.308L79.8668 96.3611C79.8668 97.003 79.9022 97.644 79.8958 98.2864C79.887 99.1831 79.9988 100.752 79.2094 101.42C78.5852 101.948 76.9033 101.857 76.1455 101.92C74.81 102.032 73.4337 102.143 72.098 102.008C71.1696 101.914 69.8027 101.89 69.0001 101.345C68.7074 101.147 68.5689 100.447 68.5221 100.124C68.3038 98.6182 68.2378 97.1108 68.2378 95.5891C68.2378 95.2961 68.2615 95.0076 68.2669 94.7169C68.271 94.4954 68.3667 94.2064 68.5641 94.0773Z" fill="#EBE7E4"/>
<path d="M84.9526 94.0773C85.1714 93.9343 85.5058 93.8837 85.7537 93.8157C86.9558 93.4861 95.9941 92.8719 96.1956 94.6846C96.2554 95.2236 96.2554 95.7635 96.2553 96.308L96.2553 96.3611C96.2553 97.003 96.2908 97.644 96.2844 98.2864C96.2755 99.1831 96.3873 100.752 95.598 101.42C94.9737 101.948 93.2919 101.857 92.534 101.92C91.1986 102.032 89.8222 102.143 88.4865 102.008C87.5582 101.914 86.1913 101.89 85.3887 101.345C85.096 101.147 84.9574 100.447 84.9106 100.124C84.6923 98.6182 84.6263 97.1108 84.6263 95.5891C84.6263 95.2961 84.65 95.0076 84.6554 94.7169C84.6595 94.4954 84.7552 94.2064 84.9526 94.0773Z" fill="#EBE7E4"/>
<g clip-path="url(#clip0_5_71411)">
<path d="M75.3606 133.593C75.0551 133.593 73.3769 133.703 71.5768 133.828C69.1384 133.997 66.6885 133.923 64.2665 133.593C59.6302 133.593 58.0295 128.184 57.8087 125.479L56.6497 111.901L56.3185 95.0116L56.3185 80.9369C56.3185 76.5655 61.0652 74.3688 63.4386 74.148L73.5392 72.9889L85.2957 72.6578C90.9917 72.2604 92.6365 76.9077 92.7469 79.2811L93.0781 84.4142L93.5748 95.5083L93.5748 113.888L93.5748 119.812C93.5748 122.041 93.4088 124.268 93.0781 126.473C92.6807 130.447 87.2827 131.992 84.6333 132.268C81.7632 132.709 75.8905 133.593 75.3606 133.593Z" fill="#91D5DD"/>
<path d="M63.769 127.135L68.4053 127.135L68.4053 121.174L63.6034 121.339L63.769 126.969" stroke="#222222" stroke-width="1.20428"/>
<path d="M83.1428 125.479L83.1428 118.856M83.1428 117.2L83.1428 111.074M83.1428 109.087L83.1428 102.298M86.2889 125.479L86.2889 121.009M86.2889 119.518L86.2889 114.882M86.2889 112.895L86.2889 107.928M86.2889 106.272L86.2889 101.967M86.2889 99.6484L86.2889 94.1841" stroke="#222222" stroke-width="1.20428" stroke-linecap="round"/>
</g>
<path d="M54.939 110.727H95.7869" stroke="#222222" stroke-width="2.30949" stroke-linecap="round"/>
<path d="M59.0212 24.4829H88.1002" stroke="#222222" stroke-width="2.30949" stroke-linecap="round"/>
<defs>
<clipPath id="clip0_5_71411">
<rect width="38.2078" height="24.1313" fill="white" transform="translate(55.6461 110.788)"/>
</clipPath>
</defs>
</svg>
