<svg width="149" height="150" viewBox="0 0 149 150" fill="none" xmlns="http://www.w3.org/2000/svg">
<rect y="0.897461" width="149" height="149" rx="74.5" fill="white"/>
<path fill-rule="evenodd" clip-rule="evenodd" d="M121.279 86.7703C121.814 86.6187 122.371 86.9298 122.523 87.4652C124.302 93.7473 123.968 98.2215 121.482 101.103C119.031 103.943 114.782 104.87 109.697 104.87C109.141 104.87 108.689 104.419 108.689 103.862C108.689 103.306 109.141 102.855 109.697 102.855C114.689 102.855 118.122 101.911 119.956 99.7859C121.755 97.7011 122.311 94.114 120.584 88.0145C120.432 87.479 120.743 86.922 121.279 86.7703Z" fill="white"/>
<path fill-rule="evenodd" clip-rule="evenodd" d="M109.697 97.8163C110.254 97.8163 110.705 98.2674 110.705 98.8239V103.358L114.332 106.079C114.778 106.413 114.868 107.045 114.534 107.49C114.2 107.935 113.568 108.025 113.123 107.691L108.69 104.366V98.8239C108.69 98.2674 109.141 97.8163 109.697 97.8163Z" fill="white"/>
<path fill-rule="evenodd" clip-rule="evenodd" d="M102.993 101.809C102.457 101.96 101.9 101.649 101.748 101.114C99.9691 94.8318 100.303 90.3576 102.789 87.4765C105.241 84.6362 109.489 83.709 114.574 83.709C115.131 83.709 115.582 84.1602 115.582 84.7167C115.582 85.2732 115.131 85.7244 114.574 85.7244C109.582 85.7244 106.149 86.6677 104.315 88.7932C102.516 90.878 101.96 94.4651 103.687 100.565C103.839 101.1 103.528 101.657 102.993 101.809Z" fill="white"/>
<path fill-rule="evenodd" clip-rule="evenodd" d="M114.574 90.7628C114.018 90.7628 113.566 90.3117 113.566 89.7552V85.2207L109.939 82.5C109.494 82.1661 109.403 81.5345 109.737 81.0893C110.071 80.6441 110.703 80.5539 111.148 80.8878L115.582 84.2131V89.7552C115.582 90.3117 115.131 90.7628 114.574 90.7628Z" fill="white"/>
<path d="M22.5129 81.5341L23.9912 88.2006C25.6818 95.8248 33.8536 99.8315 41.663 99.8315H45.7957L111.024 98.5549C120.485 97.6472 122.112 93.165 121.742 91.0374L120.448 59.4069C120.301 53.2794 115.952 51.5584 113.796 51.4639H97.5352L55.2197 52.3149L32.4912 53.166C22.8825 53.2794 20.8498 60.0216 21.0346 63.3785V69.8718C21.0346 70.9314 21.1119 71.9897 21.2658 73.0382L22.5129 81.5341Z" fill="#2AC28B"/>
<path fill-rule="evenodd" clip-rule="evenodd" d="M103.652 62.5336C103.66 63.09 103.234 63.5477 102.701 63.5557L36.1102 64.5634C35.5772 64.5715 35.1389 64.1269 35.1312 63.5705C35.1235 63.014 35.5493 62.5564 36.0822 62.5483L102.673 61.5406C103.206 61.5326 103.644 61.9771 103.652 62.5336ZM36.5787 74.6401C36.5787 74.0836 37.0108 73.6324 37.5438 73.6324H102.446C102.979 73.6324 103.411 74.0836 103.411 74.6401C103.411 75.1966 102.979 75.6478 102.446 75.6478H37.5438C37.0108 75.6478 36.5787 75.1966 36.5787 74.6401Z" fill="white"/>
<path fill-rule="evenodd" clip-rule="evenodd" d="M98.8805 87.8132C98.0913 88.3866 97.0721 89.3604 96.0581 90.4295L95.2919 89.9075L96.0581 90.4295C95.7229 90.7829 95.247 90.8748 94.9351 90.8939C94.6031 90.9142 94.2697 90.867 93.984 90.7959C93.6938 90.7236 93.3989 90.6134 93.1415 90.47C92.9049 90.3382 92.5974 90.1217 92.4278 89.8001C92.3261 89.6074 92.1926 89.4005 92.0194 89.1803C91.9804 89.1307 91.9554 89.116 91.9531 89.1146C91.953 89.1146 91.956 89.1152 91.9523 89.1147C91.9333 89.112 91.8198 89.1055 91.5722 89.2002C91.0627 89.3952 90.3752 89.866 89.5802 90.5737C88.0206 91.9622 86.3657 93.9702 85.3171 95.4059C85.0314 95.7972 84.4254 95.9181 83.9638 95.6758C83.5022 95.4336 83.3596 94.9201 83.6454 94.5288C84.7268 93.0482 86.4635 90.9317 88.1562 89.4246C88.9874 88.6846 89.8912 88.015 90.7632 87.6813C91.2063 87.5118 91.731 87.3939 92.2759 87.471C92.8605 87.5536 93.3287 87.8406 93.6553 88.2559C93.8687 88.5272 94.0459 88.795 94.1897 89.0585C94.1982 89.064 94.2086 89.0703 94.2212 89.0773C94.298 89.12 94.4117 89.1655 94.5379 89.1969C94.5923 89.2104 94.6398 89.2191 94.6791 89.2244C95.662 88.1976 96.7119 87.1939 97.6009 86.548C98.044 86.226 98.5638 85.9042 99.0846 85.7806C99.3617 85.7148 99.755 85.6777 100.151 85.8363C100.566 86.0027 100.789 86.305 100.897 86.5798C101.179 87.2972 101.267 88.2264 101.273 89.1077C101.277 89.6698 101.248 90.2442 101.202 90.7828L105.026 88.2171C105.44 87.9391 106.02 87.8588 106.536 88.058C107.091 88.2726 107.833 88.6078 108.454 89.0098C108.764 89.2102 109.077 89.4487 109.321 89.7208C109.446 89.8604 109.571 90.0289 109.661 90.2222C109.749 90.2023 109.853 90.1761 109.973 90.1419C110.708 89.9314 111.631 89.5429 112.263 89.2418C112.736 89.0161 113.335 89.1584 113.601 89.5595C113.868 89.9606 113.7 90.4686 113.227 90.6942C112.547 91.018 111.504 91.4627 110.601 91.7209C110.173 91.8433 109.659 91.9597 109.2 91.9429C108.968 91.9344 108.621 91.8882 108.316 91.6824C107.975 91.4529 107.837 91.1297 107.83 90.8289C107.822 90.8149 107.803 90.7821 107.755 90.7291C107.657 90.6198 107.493 90.4846 107.261 90.3342C106.885 90.0909 106.419 89.8637 106.001 89.688L101.562 92.667C100.492 93.3848 99.0139 92.6031 99.1495 91.5296C99.2411 90.8047 99.3129 89.9379 99.3069 89.1181C99.3027 88.5428 99.2599 88.027 99.1753 87.6115C99.0894 87.6662 98.9912 87.7328 98.8805 87.8132ZM99.6169 87.3848C99.6169 87.3848 99.6164 87.3849 99.6154 87.3851C99.6164 87.3849 99.6169 87.3848 99.6169 87.3848ZM109.285 90.278C109.277 90.2777 109.278 90.2772 109.286 90.278C109.286 90.278 109.285 90.278 109.285 90.278ZM100.342 91.3601C100.342 91.3602 100.342 91.3603 100.341 91.3604L100.624 91.6635L100.341 91.3604L100.342 91.3601ZM94.7978 89.2314C94.7978 89.2314 94.7972 89.2315 94.7962 89.2315L94.7978 89.2314Z" fill="#5F8083"/>
<path d="M96.4259 79.1468L95.6066 84.2245C95.4056 85.4704 97.1118 86.2257 98.1169 85.3358L103.67 80.4197C103.792 80.3114 103.892 80.1851 103.965 80.0463L123.686 42.5385C123.777 42.3654 123.841 42.1707 123.782 41.9868C123.303 40.4747 118.769 42.1501 116.106 43.3873C115.832 43.5146 115.616 43.7182 115.482 43.9651L96.5575 78.7639C96.4917 78.8848 96.4474 79.0139 96.4259 79.1468Z" fill="#FD6229"/>
<path d="M100.156 83.296L96.4583 81.9863V85.2605L100.156 83.296Z" fill="#FD6229"/>
<path fill-rule="evenodd" clip-rule="evenodd" d="M120.404 42.8948C119.021 43.2507 117.36 43.9348 116.114 44.5264C115.993 44.5839 115.892 44.6781 115.827 44.8002L113.246 49.6483H118.863L122.352 42.8718C122.38 42.8167 122.393 42.7799 122.397 42.7582C122.391 42.7454 122.384 42.7403 122.369 42.7319C122.331 42.7106 122.238 42.6756 122.051 42.6627C121.669 42.6362 121.106 42.7144 120.404 42.8948ZM118.209 50.9193H112.569L97.8459 78.572C97.8147 78.6307 97.7936 78.6934 97.7834 78.7579L97.4514 80.8597L100.642 82.014L103.473 79.4539C103.531 79.4014 103.579 79.3401 103.614 79.2728L118.209 50.9193ZM102.062 82.5276L104.467 80.3527C104.641 80.1951 104.784 80.0112 104.888 79.8092L123.626 43.4082C123.731 43.2033 123.883 42.8374 123.757 42.4329C123.652 42.0936 123.424 41.8287 123.112 41.6529C122.817 41.4869 122.479 41.4176 122.158 41.3954C121.525 41.3515 120.768 41.4797 120.02 41.6723C118.502 42.0627 116.744 42.792 115.461 43.401C115.061 43.5907 114.751 43.8916 114.56 44.2488L96.5795 78.0207C96.4858 78.1967 96.4226 78.3847 96.392 78.5781L95.6136 83.506C95.4932 84.2678 95.8524 84.9036 96.4157 85.2889V85.7237L96.8163 85.5064C97.5586 85.8176 98.4935 85.7548 99.1913 85.1237L101.696 82.8586L102.209 82.5805L102.062 82.5276ZM99.0558 82.809L97.8212 82.3624V83.4789L99.0558 82.809Z" fill="black"/>
</svg>
