<svg width="149" height="150" viewBox="0 0 149 150" fill="none" xmlns="http://www.w3.org/2000/svg">
<rect y="0.897461" width="149" height="149" rx="74.5" fill="white"/>
<path fill-rule="evenodd" clip-rule="evenodd" d="M119.939 87.2869C120.434 87.1469 120.948 87.4342 121.088 87.9287C122.731 93.7301 122.423 97.862 120.127 100.523C117.863 103.146 113.94 104.002 109.244 104.002C108.73 104.002 108.313 103.585 108.313 103.071C108.313 102.557 108.73 102.141 109.244 102.141C113.854 102.141 117.024 101.27 118.718 99.3066C120.379 97.3813 120.893 94.0687 119.298 88.4359C119.157 87.9414 119.445 87.427 119.939 87.2869Z" fill="white"/>
<path fill-rule="evenodd" clip-rule="evenodd" d="M109.244 97.4877C109.758 97.4877 110.174 97.9043 110.174 98.4183V102.606L113.524 105.118C113.936 105.427 114.019 106.01 113.711 106.421C113.402 106.832 112.819 106.916 112.408 106.607L108.313 103.536V98.4183C108.313 97.9043 108.73 97.4877 109.244 97.4877Z" fill="white"/>
<path fill-rule="evenodd" clip-rule="evenodd" d="M103.052 101.175C102.557 101.315 102.043 101.027 101.903 100.533C100.26 94.7313 100.568 90.5995 102.864 87.9388C105.128 85.3158 109.052 84.4596 113.747 84.4596C114.261 84.4596 114.678 84.8763 114.678 85.3902C114.678 85.9041 114.261 86.3208 113.747 86.3208C109.138 86.3208 105.967 87.1919 104.273 89.1548C102.612 91.0801 102.098 94.3927 103.694 100.026C103.834 100.52 103.546 101.034 103.052 101.175Z" fill="white"/>
<path fill-rule="evenodd" clip-rule="evenodd" d="M113.747 90.9737C113.233 90.9737 112.817 90.5571 112.817 90.0432V85.8556L109.467 83.3431C109.056 83.0348 108.972 82.4515 109.281 82.0404C109.589 81.6292 110.172 81.5459 110.583 81.8542L114.678 84.9251V90.0432C114.678 90.5571 114.261 90.9737 113.747 90.9737Z" fill="white"/>
<path d="M28.73 82.4511L30.0952 88.6075C31.6564 95.6484 39.203 99.3485 46.4149 99.3485H50.2313L110.469 98.1696C119.206 97.3313 120.708 93.1921 120.367 91.2273L119.172 62.017C119.036 56.3583 115.02 54.769 113.029 54.6816H98.0121L58.9343 55.4676L37.9449 56.2535C29.0713 56.3583 27.1942 62.5846 27.3648 65.6846V71.5593C27.3648 72.619 27.4421 73.6773 27.596 74.7257L28.73 82.4511Z" fill="#2AC28B"/>
<path fill-rule="evenodd" clip-rule="evenodd" d="M103.66 64.9044C103.667 65.4183 103.274 65.8409 102.782 65.8483L41.2865 66.7789C40.7943 66.7863 40.3896 66.3758 40.3824 65.8619C40.3753 65.348 40.7685 64.9254 41.2607 64.918L102.756 63.9874C103.248 63.98 103.653 64.3905 103.66 64.9044ZM41.7192 76.0846C41.7192 75.5707 42.1182 75.154 42.6104 75.154H102.546C103.039 75.154 103.438 75.5707 103.438 76.0846C103.438 76.5985 103.039 77.0151 102.546 77.0151H42.6104C42.1182 77.0151 41.7192 76.5985 41.7192 76.0846Z" fill="white"/>
<path fill-rule="evenodd" clip-rule="evenodd" d="M99.2546 88.2495C98.5258 88.7791 97.5845 89.6784 96.6481 90.6657L95.9405 90.1836L96.6481 90.6657C96.3386 90.9921 95.899 91.0769 95.611 91.0945C95.3045 91.1133 94.9965 91.0697 94.7327 91.004C94.4647 90.9373 94.1924 90.8355 93.9547 90.7031C93.7362 90.5814 93.4522 90.3814 93.2956 90.0845C93.2017 89.9065 93.0784 89.7154 92.9184 89.512C92.8824 89.4663 92.8593 89.4527 92.8572 89.4514C92.8571 89.4514 92.8599 89.452 92.8565 89.4515C92.8389 89.449 92.7341 89.4429 92.5054 89.5304C92.0349 89.7105 91.4 90.1453 90.6659 90.7989C89.2256 92.0811 87.6974 93.9355 86.729 95.2613C86.4651 95.6227 85.9055 95.7343 85.4792 95.5106C85.0529 95.2869 84.9212 94.8126 85.1851 94.4513C86.1838 93.084 87.7876 91.1294 89.3508 89.7377C90.1184 89.0543 90.9531 88.4359 91.7583 88.1278C92.1675 87.9712 92.6521 87.8623 93.1553 87.9335C93.6951 88.0099 94.1276 88.2749 94.4292 88.6584C94.6263 88.9089 94.7899 89.1562 94.9227 89.3996C94.9305 89.4046 94.9402 89.4104 94.9518 89.4169C95.0226 89.4564 95.1277 89.4984 95.2443 89.5274C95.2945 89.5399 95.3383 89.5479 95.3746 89.5528C96.2823 88.6046 97.2519 87.6776 98.0728 87.0811C98.4821 86.7838 98.9621 86.4866 99.443 86.3724C99.6989 86.3117 100.062 86.2774 100.428 86.4239C100.811 86.5776 101.017 86.8567 101.117 87.1105C101.378 87.773 101.458 88.6311 101.464 89.445C101.468 89.9641 101.441 90.4945 101.399 90.9919L104.93 88.6225C105.312 88.3658 105.848 88.2917 106.324 88.4757C106.837 88.6738 107.522 88.9834 108.096 89.3546C108.381 89.5397 108.671 89.7599 108.896 90.0112C109.012 90.1401 109.127 90.2958 109.21 90.4742C109.292 90.4559 109.388 90.4316 109.498 90.4001C110.178 90.2057 111.029 89.8469 111.613 89.5688C112.05 89.3605 112.603 89.4918 112.849 89.8622C113.095 90.2326 112.94 90.7018 112.503 90.9101C111.876 91.2091 110.912 91.6198 110.079 91.8583C109.683 91.9713 109.208 92.0788 108.784 92.0633C108.57 92.0554 108.25 92.0127 107.968 91.8227C107.653 91.6107 107.526 91.3123 107.519 91.0345C107.512 91.0216 107.494 90.9913 107.45 90.9424C107.36 90.8414 107.208 90.7166 106.993 90.5776C106.646 90.353 106.216 90.1431 105.831 89.9809L101.731 92.732C100.743 93.3949 99.3777 92.673 99.503 91.6816C99.5876 91.0121 99.6539 90.2117 99.6483 89.4546C99.6445 88.9233 99.605 88.447 99.5268 88.0633C99.4474 88.1138 99.3568 88.1753 99.2546 88.2495ZM99.9346 87.8539C99.9346 87.854 99.9342 87.8541 99.9333 87.8542C99.9342 87.854 99.9346 87.8539 99.9346 87.8539ZM108.863 90.5257C108.856 90.5255 108.856 90.5251 108.864 90.5258C108.863 90.5258 108.863 90.5257 108.863 90.5257ZM100.604 91.5251C100.604 91.5252 100.604 91.5253 100.604 91.5254L100.865 91.8052L100.604 91.5254L100.604 91.5251ZM95.4842 89.5592C95.4842 89.5592 95.4837 89.5593 95.4828 89.5594L95.4842 89.5592Z" fill="#5F8083"/>
<circle cx="76.6742" cy="55.6122" r="13.9584" fill="#FC6E47"/>
<path fill-rule="evenodd" clip-rule="evenodd" d="M71.4204 50.249C71.8127 49.917 72.3999 49.966 72.7319 50.3583L77.2049 55.6446L82.1625 50.8099C82.5304 50.4511 83.1196 50.4585 83.4784 50.8264C83.8372 51.1944 83.8298 51.7835 83.4619 52.1423L78.41 57.0689L82.968 62.4556C83.3 62.8479 83.2511 63.4351 82.8587 63.767C82.4664 64.099 81.8792 64.0501 81.5473 63.6578L77.0743 58.3715L72.1166 63.2062C71.7487 63.565 71.1595 63.5576 70.8007 63.1896C70.4419 62.8217 70.4493 62.2325 70.8172 61.8737L75.8691 56.9472L71.3111 51.5605C70.9791 51.1681 71.0281 50.581 71.4204 50.249Z" fill="white"/>
</svg>
