<svg width="149" height="150" viewBox="0 0 149 150" fill="none" xmlns="http://www.w3.org/2000/svg">
<rect y="0.897461" width="149" height="149" rx="74.5" fill="white"/>
<path d="M51.6589 43.5445C50.8968 34.702 56.5757 33.8486 59.9928 34.6106C60.3365 34.6872 60.6799 34.7607 61.0299 34.7999L108.402 40.106C108.877 40.1592 109.357 40.1479 109.835 40.1271C116.897 39.8202 117.167 48.2611 116.38 52.6599L114.197 72.1482L110.548 104.726C110.5 105.152 110.5 105.59 110.532 106.018C111.364 117.015 105.88 118.374 102.469 117.583C102.043 117.484 101.616 117.38 101.181 117.332L94.1835 116.548L50.9716 111.708C44.4263 111.653 44.1588 106.74 44.9223 103.891C45.0069 103.575 45.09 103.26 45.1437 102.937L47.8486 86.6918L50.7756 60.5597L51.6813 44.5922C51.701 44.2453 51.6887 43.8906 51.6589 43.5445Z" fill="#E7E6F4"/>
<path d="M38.484 47.015C36.7424 38.3123 42.291 36.8321 45.7717 37.209C46.1218 37.2469 46.4712 37.2816 46.8234 37.2816H94.4917C94.9701 37.2816 95.4459 37.217 95.9186 37.1431C102.902 36.0521 104.11 44.4105 103.818 48.8695V68.4797V101.261C103.818 101.69 103.866 102.126 103.945 102.547C105.996 113.382 100.697 115.344 97.22 114.938C96.7849 114.887 96.3497 114.831 95.9117 114.831H88.8706H45.3884C38.8777 115.505 38.0649 110.653 38.5066 107.736C38.5555 107.413 38.603 107.09 38.6205 106.764L39.5002 90.3183V64.0228L38.6229 48.0537C38.6038 47.7068 38.5521 47.3557 38.484 47.015Z" fill="#F5F5F5"/>
<path d="M62.3778 99.7945C63.6214 99.4254 65.9695 99.3791 67.5217 99.4333H103.49C105.356 99.3442 106.705 99.4308 107.667 99.6116C109.583 99.9715 109.818 102.164 109.818 104.113C109.818 107.319 109.742 110.944 106.539 111.071C105.815 111.099 105.094 111.092 104.49 111.066H98.8279H66.8557C64.9809 111.105 63.7487 111.018 62.9627 110.87C61.8026 110.653 62.0186 109.325 62.318 108.183C62.4562 107.656 62.5262 107.113 62.5262 106.568V104.238C62.5262 103.711 62.4568 103.187 62.3197 102.678C62.0196 101.564 61.2714 100.123 62.3778 99.7945Z" fill="#3EB597"/>
<path fill-rule="evenodd" clip-rule="evenodd" d="M48.8706 51.6595C48.8706 50.5833 49.743 49.7109 50.8191 49.7109H81.0211C82.0973 49.7109 82.9697 50.5833 82.9697 51.6595C82.9697 52.7356 82.0973 53.608 81.0211 53.608H50.8191C49.743 53.608 48.8706 52.7356 48.8706 51.6595Z" fill="#D4D4D4"/>
<path fill-rule="evenodd" clip-rule="evenodd" d="M48.8706 69.1961C48.8706 68.1199 49.743 67.2476 50.8191 67.2476H81.0211C82.0973 67.2476 82.9697 68.1199 82.9697 69.1961C82.9697 70.2722 82.0973 71.1446 81.0211 71.1446H50.8191C49.743 71.1446 48.8706 70.2722 48.8706 69.1961Z" fill="#D4D4D4"/>
<path fill-rule="evenodd" clip-rule="evenodd" d="M48.8706 78.9388C48.8706 77.8626 49.743 76.9902 50.8191 76.9902H81.0211C82.0973 76.9902 82.9697 77.8626 82.9697 78.9388C82.9697 80.0149 82.0973 80.8873 81.0211 80.8873H50.8191C49.743 80.8873 48.8706 80.0149 48.8706 78.9388Z" fill="#D4D4D4"/>
<path fill-rule="evenodd" clip-rule="evenodd" d="M48.8706 59.4534C48.8706 58.3773 49.743 57.5049 50.8191 57.5049H81.0211C82.0973 57.5049 82.9697 58.3773 82.9697 59.4534C82.9697 60.5295 82.0973 61.4019 81.0211 61.4019H50.8191C49.743 61.4019 48.8706 60.5295 48.8706 59.4534Z" fill="#D4D4D4"/>
<path fill-rule="evenodd" clip-rule="evenodd" d="M48.8706 86.7327C48.8706 85.6566 49.743 84.7842 50.8191 84.7842H81.0211C82.0973 84.7842 82.9697 85.6566 82.9697 86.7327C82.9697 87.8088 82.0973 88.6812 81.0211 88.6812H50.8191C49.743 88.6812 48.8706 87.8088 48.8706 86.7327Z" fill="#D4D4D4"/>
<path fill-rule="evenodd" clip-rule="evenodd" d="M92.7119 52.6336C92.7119 51.5574 92.8615 50.6851 93.0459 50.6851H98.2234C98.4079 50.6851 98.5575 51.5574 98.5575 52.6336C98.5575 53.7097 98.4079 54.5821 98.2234 54.5821H93.0459C92.8615 54.5821 92.7119 53.7097 92.7119 52.6336Z" fill="#D4D4D4"/>
<path fill-rule="evenodd" clip-rule="evenodd" d="M92.7119 70.1702C92.7119 69.0941 92.8615 68.2217 93.0459 68.2217H98.2234C98.4079 68.2217 98.5575 69.0941 98.5575 70.1702C98.5575 71.2463 98.4079 72.1187 98.2234 72.1187H93.0459C92.8615 72.1187 92.7119 71.2463 92.7119 70.1702Z" fill="#D4D4D4"/>
<path fill-rule="evenodd" clip-rule="evenodd" d="M92.7119 79.9129C92.7119 78.8367 92.8615 77.9644 93.0459 77.9644H98.2234C98.4079 77.9644 98.5575 78.8367 98.5575 79.9129C98.5575 80.989 98.4079 81.8614 98.2234 81.8614H93.0459C92.8615 81.8614 92.7119 80.989 92.7119 79.9129Z" fill="#D4D4D4"/>
<path fill-rule="evenodd" clip-rule="evenodd" d="M92.7119 60.428C92.7119 59.3519 92.8615 58.4795 93.0459 58.4795H98.2234C98.4079 58.4795 98.5575 59.3519 98.5575 60.428C98.5575 61.5041 98.4079 62.3765 98.2234 62.3765H93.0459C92.8615 62.3765 92.7119 61.5041 92.7119 60.428Z" fill="#D4D4D4"/>
<path fill-rule="evenodd" clip-rule="evenodd" d="M92.7119 87.7068C92.7119 86.6307 92.8615 85.7583 93.0459 85.7583H98.2234C98.4079 85.7583 98.5575 86.6307 98.5575 87.7068C98.5575 88.783 98.4079 89.6553 98.2234 89.6553H93.0459C92.8615 89.6553 92.7119 88.783 92.7119 87.7068Z" fill="#D4D4D4"/>
<path d="M104.218 107.588C103.74 107.588 103.329 107.497 102.984 107.315C102.641 107.131 102.376 106.872 102.191 106.536C102.005 106.199 101.912 105.8 101.912 105.339C101.912 104.89 102.005 104.495 102.191 104.156C102.376 103.817 102.638 103.552 102.975 103.363C103.314 103.173 103.711 103.078 104.167 103.078C104.474 103.078 104.759 103.125 105.023 103.218C105.29 103.309 105.522 103.446 105.719 103.63C105.919 103.814 106.074 104.045 106.185 104.324C106.296 104.601 106.352 104.925 106.352 105.296V105.629H102.427V104.878H105.138C105.138 104.704 105.098 104.549 105.017 104.415C104.937 104.28 104.825 104.175 104.681 104.099C104.54 104.021 104.376 103.983 104.188 103.983C103.992 103.983 103.819 104.025 103.668 104.111C103.518 104.194 103.401 104.307 103.317 104.449C103.232 104.589 103.188 104.746 103.186 104.918V105.632C103.186 105.848 103.229 106.035 103.314 106.192C103.4 106.349 103.522 106.471 103.68 106.556C103.837 106.641 104.024 106.684 104.24 106.684C104.383 106.684 104.514 106.665 104.633 106.627C104.752 106.589 104.854 106.532 104.939 106.456C105.023 106.381 105.088 106.288 105.132 106.178L106.324 106.252C106.264 106.521 106.14 106.756 105.952 106.957C105.767 107.156 105.527 107.311 105.232 107.423C104.94 107.533 104.602 107.588 104.218 107.588Z" fill="white"/>
<path d="M101.31 103.135V104.045H98.5112V103.135H101.31ZM99.1467 102.089H100.436V106.161C100.436 106.273 100.454 106.36 100.49 106.422C100.527 106.483 100.577 106.526 100.642 106.55C100.708 106.575 100.785 106.587 100.872 106.587C100.932 106.587 100.993 106.583 101.053 106.573C101.114 106.562 101.16 106.553 101.192 106.547L101.395 107.449C101.33 107.468 101.24 107.49 101.123 107.514C101.006 107.541 100.863 107.557 100.696 107.563C100.385 107.574 100.113 107.535 99.879 107.446C99.647 107.357 99.4664 107.219 99.3373 107.031C99.2082 106.843 99.1446 106.606 99.1467 106.32V102.089Z" fill="white"/>
<path d="M95.2203 107.585C94.9238 107.585 94.6595 107.537 94.4275 107.44C94.1955 107.342 94.0119 107.197 93.8768 107.005C93.7436 106.812 93.6771 106.571 93.6771 106.283C93.6771 106.04 93.7245 105.837 93.8193 105.672C93.9141 105.507 94.0432 105.374 94.2066 105.274C94.37 105.173 94.5556 105.097 94.7634 105.046C94.9732 104.995 95.1931 104.959 95.4231 104.938C95.6934 104.911 95.9113 104.887 96.0767 104.864C96.2421 104.839 96.3622 104.803 96.4368 104.756C96.5115 104.709 96.5488 104.639 96.5488 104.546V104.529C96.5488 104.348 96.4883 104.209 96.3672 104.111C96.2482 104.012 96.0787 103.963 95.8588 103.963C95.6268 103.963 95.4423 104.011 95.3051 104.108C95.1679 104.203 95.0771 104.322 95.0327 104.466L93.8405 104.375C93.901 104.11 94.02 103.88 94.1975 103.687C94.3751 103.492 94.604 103.342 94.8844 103.238C95.1669 103.131 95.4937 103.078 95.8649 103.078C96.1231 103.078 96.3702 103.107 96.6063 103.164C96.8443 103.221 97.0551 103.309 97.2387 103.428C97.4243 103.548 97.5706 103.701 97.6775 103.889C97.7844 104.075 97.8379 104.297 97.8379 104.557V107.503H96.6154V106.897H96.579C96.5044 107.034 96.4045 107.154 96.2795 107.258C96.1544 107.361 96.0041 107.441 95.8286 107.5C95.6531 107.557 95.4503 107.585 95.2203 107.585ZM95.5895 106.749C95.7792 106.749 95.9466 106.714 96.0918 106.644C96.2371 106.572 96.3511 106.475 96.4338 106.354C96.5165 106.233 96.5579 106.095 96.5579 105.942V105.478C96.5175 105.503 96.462 105.526 96.3914 105.547C96.3228 105.566 96.2452 105.584 96.1584 105.601C96.0717 105.616 95.9849 105.63 95.8982 105.643C95.8114 105.655 95.7328 105.665 95.6621 105.675C95.5108 105.695 95.3787 105.729 95.2657 105.774C95.1528 105.82 95.065 105.881 95.0025 105.959C94.9399 106.035 94.9087 106.129 94.9087 106.243C94.9087 106.408 94.9722 106.534 95.0993 106.621C95.2284 106.707 95.3918 106.749 95.5895 106.749Z" fill="white"/>
<path d="M90.9937 107.588C90.5176 107.588 90.1081 107.493 89.7651 107.304C89.4242 107.112 89.1619 106.847 88.9783 106.508C88.7968 106.168 88.706 105.778 88.706 105.336C88.706 104.889 88.7978 104.496 88.9814 104.159C89.167 103.82 89.4302 103.555 89.7712 103.366C90.1121 103.174 90.5176 103.078 90.9876 103.078C91.3931 103.078 91.7482 103.148 92.0528 103.286C92.3574 103.424 92.5985 103.619 92.776 103.869C92.9536 104.119 93.0514 104.413 93.0696 104.75H91.8531C91.8188 104.532 91.728 104.357 91.5807 104.224C91.4355 104.09 91.2449 104.022 91.0088 104.022C90.8091 104.022 90.6346 104.074 90.4853 104.176C90.338 104.276 90.2231 104.423 90.1403 104.617C90.0576 104.81 90.0163 105.044 90.0163 105.319C90.0163 105.598 90.0566 105.835 90.1373 106.03C90.22 106.225 90.336 106.374 90.4853 106.476C90.6346 106.579 90.8091 106.63 91.0088 106.63C91.1561 106.63 91.2882 106.601 91.4052 106.545C91.5243 106.488 91.6221 106.405 91.6988 106.297C91.7774 106.187 91.8289 106.056 91.8531 105.902H93.0696C93.0494 106.236 92.9526 106.529 92.7791 106.783C92.6076 107.036 92.3705 107.233 92.0679 107.375C91.7653 107.517 91.4073 107.588 90.9937 107.588Z" fill="white"/>
<path d="M86.5719 107.503V103.135H87.861V107.503H86.5719ZM87.2194 102.572C87.0278 102.572 86.8634 102.513 86.7262 102.393C86.591 102.272 86.5234 102.127 86.5234 101.958C86.5234 101.791 86.591 101.648 86.7262 101.529C86.8634 101.407 87.0278 101.347 87.2194 101.347C87.4111 101.347 87.5745 101.407 87.7097 101.529C87.8468 101.648 87.9154 101.791 87.9154 101.958C87.9154 102.127 87.8468 102.272 87.7097 102.393C87.5745 102.513 87.4111 102.572 87.2194 102.572Z" fill="white"/>
<path d="M85.5392 101.679V107.503H84.2501V101.679H85.5392Z" fill="white"/>
<path d="M78.8577 109.141V103.135H80.1286V103.869H80.1861C80.2426 103.751 80.3243 103.632 80.4312 103.511C80.5402 103.387 80.6814 103.285 80.8549 103.203C81.0304 103.12 81.2483 103.078 81.5085 103.078C81.8474 103.078 82.1601 103.162 82.4466 103.329C82.7331 103.494 82.962 103.743 83.1335 104.076C83.305 104.408 83.3907 104.824 83.3907 105.325C83.3907 105.812 83.307 106.223 83.1396 106.559C82.9741 106.892 82.7482 107.146 82.4617 107.318C82.1773 107.489 81.8585 107.574 81.5055 107.574C81.2553 107.574 81.0425 107.535 80.867 107.457C80.6935 107.38 80.5513 107.282 80.4403 107.165C80.3294 107.045 80.2446 106.925 80.1861 106.803H80.1468V109.141H78.8577ZM80.1195 105.319C80.1195 105.579 80.1579 105.805 80.2345 105.999C80.3112 106.192 80.4222 106.343 80.5674 106.451C80.7127 106.557 80.8892 106.61 81.097 106.61C81.3068 106.61 81.4843 106.556 81.6295 106.448C81.7748 106.338 81.8847 106.186 81.9594 105.993C82.0361 105.798 82.0744 105.573 82.0744 105.319C82.0744 105.067 82.0371 104.845 81.9624 104.654C81.8878 104.462 81.7778 104.312 81.6326 104.204C81.4873 104.096 81.3088 104.042 81.097 104.042C80.8872 104.042 80.7096 104.094 80.5644 104.199C80.4211 104.303 80.3112 104.451 80.2345 104.642C80.1579 104.834 80.1195 105.059 80.1195 105.319Z" fill="white"/>
<path d="M76.5374 105.643V103.135H77.8266V107.503H76.5889V106.71H76.5405C76.4356 106.965 76.2611 107.171 76.017 107.327C75.7749 107.482 75.4793 107.56 75.1303 107.56C74.8197 107.56 74.5463 107.493 74.3103 107.361C74.0742 107.228 73.8896 107.039 73.7565 106.795C73.6254 106.55 73.5588 106.257 73.5568 105.916V103.135H74.8459V105.7C74.8479 105.958 74.9215 106.162 75.0668 106.311C75.212 106.461 75.4067 106.536 75.6508 106.536C75.8062 106.536 75.9514 106.503 76.0866 106.437C76.2217 106.368 76.3307 106.268 76.4134 106.135C76.4981 106.002 76.5395 105.838 76.5374 105.643Z" fill="white"/>
<path d="M69.5783 107.503H67.3813V101.679H69.5964C70.2198 101.679 70.7564 101.796 71.2063 102.029C71.6562 102.26 72.0021 102.593 72.2442 103.027C72.4883 103.461 72.6104 103.981 72.6104 104.585C72.6104 105.192 72.4883 105.713 72.2442 106.149C72.0021 106.585 71.6541 106.92 71.2002 107.153C70.7483 107.386 70.2077 107.503 69.5783 107.503ZM68.6916 106.448H69.5238C69.9111 106.448 70.2369 106.383 70.5012 106.255C70.7675 106.124 70.9672 105.922 71.1004 105.649C71.2355 105.374 71.3031 105.02 71.3031 104.585C71.3031 104.155 71.2355 103.803 71.1004 103.53C70.9672 103.258 70.7685 103.057 70.5042 102.928C70.24 102.799 69.9142 102.734 69.5268 102.734H68.6916V106.448Z" fill="white"/>
</svg>
