<svg width="149" height="150" viewBox="0 0 149 150" fill="none" xmlns="http://www.w3.org/2000/svg">
<rect y="0.897461" width="149" height="149" rx="74.5" fill="white"/>
<path d="M41.5828 105.113C33.3053 105.865 29.681 103.01 28.4867 100.733C28.0758 99.9488 27.8119 99.0813 27.6502 98.2112C26.4751 91.8918 27.2665 66.3189 27.9396 51.5113C27.9969 50.2492 29.0376 49.2677 30.3009 49.2677L109.274 49.2677C119.482 48.4511 121.223 53.1152 120.766 56.239C120.674 56.8624 120.556 57.4856 120.556 58.1157V92.7028C120.556 102.18 113.034 104.925 109.274 105.113H41.5828Z" fill="#EBE8E5"/>
<path d="M24.0958 72.9595L26.8001 54.9311C27.2047 52.2336 29.3172 50.1132 32.0131 49.6984L34.1874 49.3639C34.6036 49.2998 35.0252 49.2782 35.4457 49.2992L57.377 50.3958L99.6839 50.3958H112.228C116.025 50.3958 118.938 53.7627 118.393 57.5198L114.431 84.8136C114.377 85.1834 114.36 85.5659 114.364 85.9396C114.491 97.5137 105.507 98.7962 100.352 97.9108C99.9044 97.8339 99.4546 97.7795 99.0001 97.7795H64.7102H32.5572C21.2753 98.6821 19.9591 92.5147 20.7113 89.3181L24.0958 72.9595Z" fill="#D9D9D9"/>
<path d="M60.1971 62.8062H28.7043C26.9969 62.8062 25.5155 63.9846 25.1316 65.6483C24.6014 67.9458 26.3464 70.1394 28.7043 70.1394H29.172L63.5817 71.2675H112.338C114.459 71.2675 116.252 69.6978 116.532 67.596L116.574 67.2793C116.89 64.9108 115.047 62.8062 112.658 62.8062L87.2735 62.8062H60.1971Z" fill="#3EB597"/>
</svg>
