<svg width="149" height="150" viewBox="0 0 149 150" fill="none" xmlns="http://www.w3.org/2000/svg">
<g clip-path="url(#clip0_5_15789)">
<rect y="0.897461" width="149" height="149" rx="74.5" fill="white"/>
<path d="M98.1564 41.9172V49.165L97.4177 79.6731C96.8267 82.2351 99.3878 83.2127 100.742 83.3813H117.365C119.729 83.7858 120.567 81.7519 120.69 80.6844L119.951 41.9172C120.247 40.0294 118.35 39.7821 117.365 39.8945H100.742C98.2303 39.49 97.9717 41.0744 98.1564 41.9172Z" fill="#D9D9D9"/>
<path fill-rule="evenodd" clip-rule="evenodd" d="M114.902 39.8304C115.16 39.8143 115.38 40.037 115.395 40.3278L116.018 53.0017V82.9063C116.018 83.1976 115.809 83.4338 115.551 83.4338C115.293 83.4338 115.084 83.1976 115.084 82.9063V53.031L114.462 40.3863C114.447 40.0955 114.645 39.8466 114.902 39.8304Z" fill="#AFADAC"/>
<path d="M95.7734 55.1181C95.7734 53.1381 96.1781 51.653 96.3804 51.158C97.5944 48.3528 100.781 49.3429 101.388 49.3429H105.03C106.729 49.7389 107.761 53.3581 108.065 55.1181C108.55 57.6263 107.862 66.0637 107.458 69.9689C107.094 71.685 105.687 72.334 105.03 72.444H99.5671C97.5033 72.972 96.5827 71.0139 96.3804 69.9689L95.7734 65.8437V55.1181Z" fill="#FC6E47"/>
<path d="M42.5752 77.519C50.609 74.1887 59.1567 72.9775 62.7137 72.7646C62.8918 72.754 63.0621 72.6985 63.2114 72.601L83.2466 59.5146C83.319 59.4673 83.4012 59.428 83.4836 59.4018C89.6504 57.4354 89.4804 63.4559 88.5824 66.9068C88.5498 67.0322 88.4927 67.1469 88.4104 67.2472C86.8987 69.0893 81.7825 73.6422 79.3479 75.7439L73.0329 80.9334C72.8022 81.123 72.6686 81.4053 72.6686 81.7032V83.7763C72.6686 84.1543 72.8856 84.4961 73.2135 84.6863C78.4895 87.7472 78.545 94.5501 77.8675 97.762C77.8526 97.8327 77.8451 97.9023 77.8451 97.9745V158.244C77.8451 158.795 77.3965 159.242 76.8432 159.242H33.4272C32.8738 159.242 32.4253 158.795 32.4253 158.244L32.4253 92.377C32.4253 81.6139 38.9244 78.0582 42.3064 77.5911C42.3995 77.5782 42.4885 77.555 42.5752 77.519Z" fill="#B17606"/>
<path fill-rule="evenodd" clip-rule="evenodd" d="M89.1532 60.9526C89.8225 62.7894 89.5232 65.2802 89.0673 67.0321C89.0173 67.224 88.9284 67.4045 88.7983 67.563C88.0163 68.5159 86.3322 70.1384 84.5652 71.7647C82.7882 73.4002 80.8964 75.0675 79.676 76.121L79.6714 76.1249L73.3517 81.3183C73.2363 81.4131 73.1695 81.5543 73.1695 81.7032V83.7763C73.1695 83.9592 73.2759 84.1451 73.4656 84.2551C76.2558 85.8739 77.6505 88.4777 78.2606 91.0529C78.8691 93.6212 78.7089 96.2002 78.3578 97.8646C78.3497 97.9028 78.346 97.9381 78.346 97.9745V158.244C78.346 159.071 77.6732 159.741 76.8432 159.741H33.4272C32.5972 159.741 31.9243 159.071 31.9243 158.244L31.9243 92.377C31.9243 86.8891 33.5841 83.1867 35.7233 80.7914C37.8535 78.4061 40.4339 77.3459 42.2376 77.0968C42.2916 77.0893 42.3387 77.0766 42.3827 77.0584C50.4807 73.7014 59.0862 72.4818 62.6836 72.2665C62.776 72.261 62.8618 72.2327 62.9367 72.1837L82.9719 59.0973C83.0814 59.0258 83.2046 58.9668 83.3308 58.9265C84.9341 58.4153 86.2111 58.3949 87.1982 58.7979C88.1994 59.2067 88.8108 60.0129 89.1532 60.9526ZM86.8182 59.7213C86.1308 59.4407 85.1164 59.4051 83.6363 59.877C83.5978 59.8893 83.5565 59.9089 83.5213 59.9319L63.4861 73.0183C63.2625 73.1643 63.0076 73.2469 62.7437 73.2627C61.4271 73.3415 59.4132 73.5594 56.9904 73.9747C58.1761 74.2007 59.6323 75.0719 60.9456 76.9146C62.4406 79.0121 63.7755 82.3941 64.3782 87.6459C64.9206 87.3514 65.436 87.0898 65.9019 86.8674C65.9683 86.8357 66.0346 86.7856 66.1015 86.7121C67.0928 85.6222 68.4348 85.1641 69.6675 85.0202C70.899 84.8765 72.0723 85.0392 72.8037 85.2432C73.0701 85.3175 73.2256 85.5929 73.151 85.8583C73.0764 86.1236 72.8 86.2785 72.5336 86.2042C71.9125 86.031 70.8709 85.8846 69.7841 86.0114C68.6985 86.1382 67.6188 86.5304 66.844 87.3822C66.7082 87.5315 66.5408 87.6692 66.3349 87.7674C65.7763 88.034 65.1467 88.3578 64.4863 88.7267C64.482 88.978 64.2883 89.191 64.0312 89.2146C63.9272 89.2241 63.8276 89.2012 63.7426 89.1542C62.5072 89.8849 61.2189 90.7511 60.1215 91.6802C59.1592 92.495 58.3683 93.3378 57.8823 94.1589C57.4038 94.9671 57.2495 95.7016 57.4424 96.3604L58.862 99.5027C58.9181 99.5211 58.9733 99.5429 59.0273 99.568L60.8337 100.408C60.9486 100.461 61.0797 100.469 61.2003 100.43L67.5042 98.3893C67.7673 98.3041 68.0499 98.4476 68.1354 98.7097C68.221 98.9717 68.077 99.2533 67.8139 99.3384L61.51 101.379C61.4999 101.382 61.4898 101.386 61.4797 101.389C61.4709 101.533 61.3992 101.673 61.2718 101.764C56.1695 105.413 54.6174 109.767 54.4651 111.385C54.4392 111.66 54.195 111.861 53.9195 111.836C53.6441 111.81 53.4417 111.567 53.4675 111.292C53.6444 109.413 55.2815 104.994 60.28 101.252L58.6037 100.472C58.4939 100.421 58.3692 100.412 58.2528 100.445L55.1098 101.35C55.0312 101.587 54.7853 101.733 54.5338 101.681C54.4509 101.664 54.3771 101.628 54.316 101.578L51.2662 102.456C51.1004 102.503 50.9217 102.523 50.7454 102.509C48.5151 102.338 46.7833 101.564 45.4666 100.402C44.1556 99.2445 43.2819 97.7263 42.7205 96.1008C42.1515 94.453 41.8958 92.6733 41.8376 90.9967L39.783 89.2649L40.4302 88.5031L41.831 89.6838C41.8581 88.5606 41.9669 87.5184 42.1175 86.6379C42.164 86.3662 42.4228 86.1835 42.6956 86.2298C42.9683 86.2761 43.1517 86.5339 43.1052 86.8056C42.6993 89.1774 42.6214 92.7457 43.6679 95.7761C44.1892 97.2856 44.982 98.6405 46.1311 99.6546C47.2744 100.664 48.7962 101.359 50.8226 101.514C50.8751 101.518 50.9335 101.513 50.9881 101.497L54.2431 100.56C54.7049 97.8446 54.5904 94.4984 54.2308 91.3198C53.8482 87.9388 53.1937 84.7915 52.6955 82.8754C52.6804 82.8173 52.653 82.761 52.6122 82.7079C50.9944 80.5996 49.6997 79.2984 48.7503 78.5298C48.2754 78.1453 47.8933 77.8994 47.6063 77.752C47.3045 77.597 47.151 77.5735 47.1199 77.5735C46.8432 77.5735 46.619 77.3501 46.619 77.0745C46.619 76.7989 46.8432 76.5755 47.1199 76.5755C47.3913 76.5755 47.7167 76.6859 48.0653 76.8649C48.4288 77.0515 48.8687 77.3396 49.3822 77.7553C50.4096 78.5871 51.7577 79.9511 53.4082 82.1019C53.526 82.2554 53.6151 82.4316 53.6654 82.6252C54.1743 84.5826 54.8381 87.7763 55.2264 91.208C55.5696 94.2413 55.7018 97.4952 55.3049 100.255L57.7811 99.5421L56.5025 96.7117L56.4933 96.682C56.1747 95.6508 56.4524 94.6094 57.0192 93.6519C57.5852 92.6959 58.469 91.7696 59.4727 90.9198C60.6791 89.8983 62.0945 88.9576 63.429 88.18C62.8626 82.7901 61.5332 79.463 60.1286 77.4923C58.6697 75.4453 57.1578 74.89 56.3172 74.912C56.0407 74.9193 55.8106 74.7018 55.8033 74.4263C55.8009 74.3363 55.8227 74.2511 55.8627 74.1771C52.0036 74.9008 47.3014 76.1003 42.7677 77.9797C42.6382 78.0334 42.5073 78.0671 42.3752 78.0853C40.7969 78.3033 38.4367 79.2546 36.4719 81.4547C34.516 83.6448 32.9262 87.1018 32.9262 92.377L32.9262 158.244C32.9262 158.52 33.1505 158.743 33.4272 158.743H76.8432C77.1199 158.743 77.3441 158.52 77.3441 158.244V97.9745C77.3441 97.8666 77.3555 97.7626 77.3773 97.6594C77.7037 96.112 77.8544 93.6836 77.2855 91.2822C76.7182 88.8878 75.4472 86.5597 72.9614 85.1175C72.4952 84.8471 72.1676 84.3494 72.1676 83.7763V81.7032C72.1676 81.2564 72.368 80.8329 72.7141 80.5485L79.0245 75.3628C80.2388 74.3144 82.1199 72.6565 83.8853 71.0317C85.663 69.3955 87.2929 67.8206 88.0225 66.9314C88.057 66.8894 88.0822 66.8404 88.0975 66.7816C88.5396 65.0826 88.7743 62.8377 88.2114 61.2931C87.9377 60.5421 87.4915 59.9962 86.8182 59.7213ZM69.2302 73.6305C68.2412 72.5236 67.2586 72.331 66.7333 72.4115L66.5809 71.4251C67.5028 71.2838 68.8079 71.6567 69.9786 72.9671C71.1481 74.2761 72.1891 76.5187 72.6644 80.1707C72.7 80.444 72.5064 80.6942 72.232 80.7297C71.9576 80.7651 71.7064 80.5723 71.6708 80.299C71.211 76.7655 70.2204 74.7389 69.2302 73.6305ZM56.7143 123.576C54.9105 122.498 53.6595 123.161 53.3186 123.501C53.123 123.696 52.8058 123.696 52.6101 123.501C52.4145 123.306 52.4145 122.99 52.6101 122.795C53.2712 122.137 55.0258 121.403 57.2297 122.72C57.467 122.862 57.5439 123.169 57.4016 123.405C57.2592 123.641 56.9515 123.718 56.7143 123.576Z" fill="#744B15"/>
<path fill-rule="evenodd" clip-rule="evenodd" d="M97.5401 49.3352C97.7916 49.0936 98.1704 49.1262 98.386 49.4081C99.041 50.2644 100.299 52.5845 100.181 55.2236C100.281 57.3857 100.4 60.6516 100.435 63.4695C100.453 64.8847 100.449 66.1968 100.41 67.2025C100.391 67.7036 100.362 68.1426 100.321 68.4857C100.3 68.6564 100.275 68.8179 100.241 68.958C100.223 69.0361 100.193 69.1475 100.142 69.26C100.028 69.7697 99.8186 70.4861 99.525 71.1048C99.3687 71.4342 99.1728 71.7696 98.9316 72.0311C98.6916 72.2913 98.3544 72.5327 97.9305 72.5327C97.5992 72.5327 97.3306 72.2318 97.3306 71.8605C97.3306 71.4893 97.5992 71.1883 97.9305 71.1883H97.9305C97.9316 71.1883 97.9427 71.1885 97.9686 71.1741C97.9976 71.1581 98.0413 71.1257 98.0973 71.0649C98.2129 70.9396 98.3395 70.7393 98.4657 70.4736C98.7167 69.9446 98.904 69.2891 98.9963 68.8496L99.0273 68.7021L99.0768 68.6327C99.0783 68.627 99.0799 68.6205 99.0817 68.6129C99.097 68.5483 99.1145 68.4477 99.1318 68.3051C99.166 68.0217 99.1927 67.6296 99.2115 67.1443C99.2489 66.1771 99.2528 64.8949 99.2354 63.4882C99.2005 60.6777 99.0809 57.4097 98.9811 55.2581L98.9795 55.222L98.9813 55.186C99.0896 53.0004 98.0167 50.9912 97.475 50.283C97.2594 50.0012 97.2885 49.5768 97.5401 49.3352ZM99.0681 68.662C99.068 68.6619 99.0685 68.6607 99.0694 68.6584C99.0685 68.6609 99.0681 68.662 99.0681 68.662Z" fill="#C44538"/>
<path fill-rule="evenodd" clip-rule="evenodd" d="M89.3985 43.1172C89.6292 42.8765 89.9921 42.8887 90.2092 43.1444L92.503 45.847C92.72 46.1027 92.7091 46.5051 92.4784 46.7458C92.2478 46.9865 91.8849 46.9743 91.6678 46.7186L89.374 44.016C89.1569 43.7603 89.1679 43.3579 89.3985 43.1172ZM86.4408 50.8048C86.5025 50.4604 86.8044 50.2366 87.115 50.3051L90.3977 51.0284C90.7083 51.0968 90.9101 51.4315 90.8484 51.776C90.7867 52.1205 90.4848 52.3442 90.1742 52.2758L86.8915 51.5525C86.5809 51.484 86.3791 51.1493 86.4408 50.8048Z" fill="#AFADAC"/>
<path fill-rule="evenodd" clip-rule="evenodd" d="M90.8484 73.1301C90.9101 73.532 90.7083 73.9225 90.3977 74.0024L87.115 74.8462C86.8044 74.9261 86.5025 74.665 86.4408 74.2632C86.3791 73.8613 86.5809 73.4708 86.8915 73.3909L90.1742 72.5471C90.4848 72.4672 90.7867 72.7283 90.8484 73.1301ZM92.4784 78.9987C92.7091 79.2795 92.72 79.749 92.503 80.0474L90.2092 83.2003C89.9921 83.4987 89.6292 83.5129 89.3985 83.2321C89.1679 82.9513 89.1569 82.4818 89.374 82.1834L91.6678 79.0305C91.8849 78.7321 92.2478 78.7179 92.4784 78.9987Z" fill="#AFADAC"/>
</g>
<defs>
<clipPath id="clip0_5_15789">
<rect y="0.897461" width="149" height="149" rx="74.5" fill="white"/>
</clipPath>
</defs>
</svg>
