<svg width="149" height="150" viewBox="0 0 149 150" fill="none" xmlns="http://www.w3.org/2000/svg">
<rect y="0.897461" width="149" height="149" rx="74.5" fill="white"/>
<path d="M106.214 47.7269H100.412C99.7068 47.7269 99.0894 47.2526 98.9076 46.5709L96.9735 39.3182C96.5701 37.8052 98.401 36.7099 99.5433 37.7809L107.28 45.0335C108.309 45.9991 107.626 47.7269 106.214 47.7269Z" fill="#E7E6F4"/>
<path d="M50.4623 107.879H43.4343C42.7366 107.879 42.124 107.415 41.9351 106.743L39.5925 98.4134C39.1714 96.9162 40.9637 95.7945 42.1262 96.8279L51.4969 105.157C52.5671 106.109 51.8942 107.879 50.4623 107.879Z" fill="#E7E6F4"/>
<path d="M42.1011 46.083C40.4981 37.9992 45.6374 36.6002 48.891 36.939C49.2412 36.9754 49.5909 37.0106 49.943 37.0106H94.4545C94.9329 37.0106 95.4099 36.9448 95.883 36.8737C102.374 35.8981 103.498 43.6894 103.225 47.8506V66.1953V96.8199C103.225 97.2485 103.273 97.6832 103.352 98.1045C105.242 108.161 100.345 110.019 97.0956 109.66C96.6603 109.612 96.2248 109.555 95.7868 109.555H89.2426H48.5666C42.4995 110.184 41.7216 105.682 42.1241 102.95L42.1253 102.942C42.1726 102.621 42.2198 102.301 42.2371 101.977L43.0584 86.6245V62.026L42.2395 47.1211C42.2204 46.7742 42.1687 46.4237 42.1011 46.083Z" fill="#F5F5F5"/>
<path fill-rule="evenodd" clip-rule="evenodd" d="M51.8242 50.461C51.8242 49.4543 52.6403 48.6382 53.647 48.6382H81.8999C82.9066 48.6382 83.7227 49.4543 83.7227 50.461C83.7227 51.4676 82.9066 52.2837 81.8999 52.2837H53.647C52.6403 52.2837 51.8242 51.4676 51.8242 50.461Z" fill="#D4D4D4"/>
<path fill-rule="evenodd" clip-rule="evenodd" d="M51.8242 66.8657C51.8242 65.8591 52.6403 65.043 53.647 65.043H81.8999C82.9066 65.043 83.7227 65.8591 83.7227 66.8657C83.7227 67.8724 82.9066 68.6885 81.8999 68.6885H53.647C52.6403 68.6885 51.8242 67.8724 51.8242 66.8657Z" fill="#D4D4D4"/>
<path fill-rule="evenodd" clip-rule="evenodd" d="M51.8242 75.9795C51.8242 74.9728 52.6403 74.1567 53.647 74.1567H81.8999C82.9066 74.1567 83.7227 74.9728 83.7227 75.9795C83.7227 76.9862 82.9066 77.8023 81.8999 77.8023H53.647C52.6403 77.8023 51.8242 76.9862 51.8242 75.9795Z" fill="#D4D4D4"/>
<path fill-rule="evenodd" clip-rule="evenodd" d="M51.8242 57.752C51.8242 56.7453 52.6403 55.9292 53.647 55.9292H81.8999C82.9066 55.9292 83.7227 56.7453 83.7227 57.752C83.7227 58.7587 82.9066 59.5747 81.8999 59.5747H53.647C52.6403 59.5747 51.8242 58.7587 51.8242 57.752Z" fill="#D4D4D4"/>
<path fill-rule="evenodd" clip-rule="evenodd" d="M51.8242 83.271C51.8242 82.2643 52.6403 81.4482 53.647 81.4482H81.8999C82.9066 81.4482 83.7227 82.2643 83.7227 83.271C83.7227 84.2777 82.9066 85.0938 81.8999 85.0938H53.647C52.6403 85.0938 51.8242 84.2777 51.8242 83.271Z" fill="#D4D4D4"/>
<path fill-rule="evenodd" clip-rule="evenodd" d="M52.7354 97.8533C52.7354 96.3433 53.7613 95.1191 55.0268 95.1191H90.5448C91.8104 95.1191 92.8363 96.3433 92.8363 97.8533C92.8363 99.3633 91.8104 100.587 90.5448 100.587H55.0268C53.7613 100.587 52.7354 99.3633 52.7354 97.8533Z" fill="#D4D4D4"/>
<path fill-rule="evenodd" clip-rule="evenodd" d="M92.8369 51.3721C92.8369 50.3654 92.9768 49.5493 93.1494 49.5493H97.9927C98.1653 49.5493 98.3052 50.3654 98.3052 51.3721C98.3052 52.3788 98.1653 53.1949 97.9927 53.1949H93.1494C92.9768 53.1949 92.8369 52.3788 92.8369 51.3721Z" fill="#D4D4D4"/>
<path fill-rule="evenodd" clip-rule="evenodd" d="M92.8369 67.7769C92.8369 66.7702 92.9768 65.9541 93.1494 65.9541H97.9927C98.1653 65.9541 98.3052 66.7702 98.3052 67.7769C98.3052 68.7836 98.1653 69.5996 97.9927 69.5996H93.1494C92.9768 69.5996 92.8369 68.7836 92.8369 67.7769Z" fill="#D4D4D4"/>
<path fill-rule="evenodd" clip-rule="evenodd" d="M92.8369 76.8911C92.8369 75.8844 92.9768 75.0684 93.1494 75.0684H97.9927C98.1653 75.0684 98.3052 75.8844 98.3052 76.8911C98.3052 77.8978 98.1653 78.7139 97.9927 78.7139H93.1494C92.9768 78.7139 92.8369 77.8978 92.8369 76.8911Z" fill="#D4D4D4"/>
<path fill-rule="evenodd" clip-rule="evenodd" d="M92.8369 58.6636C92.8369 57.6569 92.9768 56.8408 93.1494 56.8408H97.9927C98.1653 56.8408 98.3052 57.6569 98.3052 58.6636C98.3052 59.6703 98.1653 60.4864 97.9927 60.4864H93.1494C92.9768 60.4864 92.8369 59.6703 92.8369 58.6636Z" fill="#D4D4D4"/>
<path fill-rule="evenodd" clip-rule="evenodd" d="M92.8369 84.1821C92.8369 83.1755 92.9768 82.3594 93.1494 82.3594H97.9927C98.1653 82.3594 98.3052 83.1755 98.3052 84.1821C98.3052 85.1888 98.1653 86.0049 97.9927 86.0049H93.1494C92.9768 86.0049 92.8369 85.1888 92.8369 84.1821Z" fill="#D4D4D4"/>
<path d="M83.0437 97.1174C85.726 88.0825 92.514 86.2943 95.5727 86.5296C101.078 84.8186 106.219 87.699 108.102 89.353C118.125 100.506 110.16 110.94 104.925 114.764C101.396 116.881 95.808 116.587 93.4551 116.176C81.8791 112.646 81.6908 102 83.0437 97.1174Z" fill="#1FAD66"/>
<path fill-rule="evenodd" clip-rule="evenodd" d="M104.682 94.1714C105.139 94.4275 105.302 95.0057 105.046 95.463L97.9853 108.072C97.5154 108.911 96.4047 109.128 95.6537 108.527L90.0378 104.034C89.6286 103.707 89.5622 103.11 89.8896 102.7C90.217 102.291 90.8141 102.225 91.2233 102.552L95.0915 105.647C95.8425 106.248 96.9532 106.031 97.4231 105.192L103.39 94.5357C103.646 94.0785 104.225 93.9154 104.682 94.1714Z" fill="white"/>
</svg>
