<svg width="149" height="150" viewBox="0 0 149 150" fill="none" xmlns="http://www.w3.org/2000/svg">
<rect y="0.897461" width="149" height="149" rx="74.5" fill="white"/>
<path d="M45.0426 106.68C37.5478 107.362 34.2023 104.826 33.0539 102.749C32.6258 101.974 32.3659 101.094 32.2131 100.223C31.1623 94.2278 31.8846 70.9282 32.4995 57.4009C32.5523 56.2406 33.509 55.3382 34.6704 55.3382L107.276 55.3383C116.579 54.594 118.233 58.8012 117.851 61.6721C117.768 62.2967 117.648 62.9193 117.648 63.5494V95.2711C117.648 103.984 110.733 106.508 107.276 106.68H45.0426Z" fill="#EBE8E5"/>
<path d="M28.9657 77.1194L31.3971 60.9104C31.8017 58.213 33.9142 56.0925 36.6101 55.6777L38.1932 55.4342C38.6093 55.3702 39.0309 55.3485 39.4515 55.3695L59.5634 56.3751L98.459 56.3751H109.412C113.208 56.3751 116.122 59.7421 115.576 63.4991L112.023 87.973C111.97 88.3428 111.952 88.7246 111.956 89.0982C112.048 99.6569 103.868 100.863 99.1277 100.068C98.6795 99.993 98.2297 99.9382 97.7752 99.9382H66.3053H36.7448C26.3727 100.768 25.1626 95.0979 25.8541 92.1591L28.9657 77.1194Z" fill="#D9D9D9"/>
<path d="M62.1558 67.7852H33.2023C31.6326 67.7852 30.2706 68.8686 29.9177 70.3981C29.4302 72.5104 31.0345 74.5271 33.2023 74.5271H33.6323L65.2674 75.5643H110.093C112.042 75.5643 113.69 74.1211 113.948 72.1888L113.987 71.8976C114.277 69.7201 112.583 67.7852 110.386 67.7852H87.049H62.1558Z" fill="#91D5DD"/>
<circle cx="74.7497" cy="62.4103" r="17.9089" fill="#FC6E47"/>
<path fill-rule="evenodd" clip-rule="evenodd" d="M67.3312 55.6485C67.8401 55.2781 68.6018 55.3327 69.0324 55.7704L74.8344 61.6681L81.265 56.2743C81.7423 55.8739 82.5065 55.8822 82.9719 56.2927C83.4373 56.7032 83.4277 57.3605 82.9505 57.7608L76.3976 63.2572L82.3099 69.2669C82.7405 69.7046 82.677 70.3597 82.1681 70.7301C81.6592 71.1004 80.8976 71.0459 80.467 70.6081L74.665 64.7105L68.2343 70.1043C67.7571 70.5046 66.9929 70.4964 66.5275 70.0859C66.062 69.6754 66.0716 69.0181 66.5489 68.6178L73.1017 63.1214L67.1895 57.1117C66.7589 56.6739 66.8224 56.0189 67.3312 55.6485Z" fill="white"/>
</svg>
