<svg width="149" height="150" viewBox="0 0 149 150" fill="none" xmlns="http://www.w3.org/2000/svg">
<rect y="0.897461" width="149" height="149" rx="74.5" fill="white"/>
<circle cx="77.5266" cy="81.6321" r="28.2756" fill="#FCD400"/>
<path d="M86.4117 74.9868L85.4868 78.1393H67.8594L68.7843 74.9868H86.4117ZM78.142 96.2386L68.1858 84.0637L68.1314 81.7809H73.0823C74.3699 81.7809 75.4671 81.5997 76.3739 81.2373C77.2806 80.8659 77.9743 80.3134 78.4549 79.5796C78.9355 78.8368 79.1757 77.9037 79.1757 76.7804C79.1757 75.1227 78.677 73.8228 77.6796 72.8807C76.6822 71.9295 75.1497 71.4539 73.0823 71.4539H67.8594L68.7843 68.4102H73.0823C75.2948 68.4102 77.1083 68.777 78.5229 69.5108C79.9465 70.2355 80.9983 71.232 81.6784 72.5002C82.3675 73.7593 82.7121 75.1861 82.7121 76.7804C82.7121 78.2208 82.3947 79.5479 81.76 80.7618C81.1344 81.9666 80.1278 82.9359 78.7405 83.6696C77.3622 84.4034 75.5396 84.7703 73.2727 84.7703H73.1911L82.3857 96.0212V96.2386H78.142ZM86.4117 68.4102L85.4868 71.5626L71.6134 71.4539L72.5383 68.4102H86.4117Z" fill="#947100"/>
<path d="M77.1657 105.959C76.2229 105.959 76.9796 106.657 77.1657 106.285" stroke="#947100" stroke-width="1.55729" stroke-linecap="round"/>
<path d="M84.1221 104.005C91.3969 101.26 104.601 91.0203 99.2207 72.0234" stroke="#947100" stroke-width="1.55729" stroke-linecap="round"/>
<path d="M71.4493 64.0983V58.4579C71.4493 57.5079 72.0236 56.6256 72.9606 56.379C81.8089 54.0502 92.7606 62.4344 100.394 70.3989C102.122 72.2015 105.379 70.7429 104.77 68.3438C98.3289 42.9725 83.9124 38.2654 74.749 39.5073C73.0995 39.7308 71.4493 38.57 71.4493 36.9394V34.423C71.4493 32.351 68.9288 31.2727 67.3762 32.6804L49.0569 49.2898C47.9361 50.3059 48.0421 52.0713 49.2767 52.9519L67.596 66.0179C69.1989 67.1611 71.4493 66.04 71.4493 64.0983Z" fill="#FC6E47"/>
</svg>
