<svg width="149" height="150" viewBox="0 0 149 150" fill="none" xmlns="http://www.w3.org/2000/svg">
<rect y="0.897461" width="149" height="149" rx="74.5" fill="white"/>
<path d="M41.5829 44.7664C39.9152 36.3936 45.2456 34.9567 48.6053 35.3132C48.9554 35.3504 49.305 35.3854 49.6571 35.3854H95.6427C96.1211 35.3854 96.5976 35.3201 97.0704 35.2477C103.791 34.2182 104.954 42.2743 104.672 46.5746V65.5102V97.1421C104.672 97.5708 104.72 98.0059 104.8 98.4271C106.765 108.847 101.68 110.753 98.3247 110.373C97.8895 110.323 97.4539 110.267 97.016 110.267H90.2397H48.2533C41.9791 110.917 41.1849 106.251 41.6057 103.433C41.6539 103.11 41.7016 102.787 41.7191 102.461L42.5677 86.5976V61.2066L41.7215 45.8048C41.7025 45.4579 41.6508 45.1071 41.5829 44.7664Z" fill="#F5F5F5"/>
<path fill-rule="evenodd" clip-rule="evenodd" d="M51.6152 49.2692C51.6152 48.2301 52.4576 47.3877 53.4967 47.3877H82.6598C83.6989 47.3877 84.5413 48.2301 84.5413 49.2692C84.5413 50.3083 83.6989 51.1507 82.6598 51.1507H53.4967C52.4576 51.1507 51.6152 50.3083 51.6152 49.2692Z" fill="#D4D4D4"/>
<path fill-rule="evenodd" clip-rule="evenodd" d="M51.6152 56.7946C51.6152 55.7555 52.4576 54.9131 53.4967 54.9131H82.6598C83.6989 54.9131 84.5413 55.7555 84.5413 56.7946C84.5413 57.8337 83.6989 58.6761 82.6598 58.6761H53.4967C52.4576 58.6761 51.6152 57.8337 51.6152 56.7946Z" fill="#D4D4D4"/>
<path fill-rule="evenodd" clip-rule="evenodd" d="M93.9492 57.7355C93.9492 56.6964 94.0936 55.854 94.2718 55.854H99.2711C99.4493 55.854 99.5937 56.6964 99.5937 57.7355C99.5937 58.7746 99.4493 59.617 99.2711 59.617H94.2718C94.0936 59.617 93.9492 58.7746 93.9492 57.7355Z" fill="#D4D4D4"/>
<path d="M83.9158 103.592C86.5797 94.6191 93.3214 92.8431 96.3592 93.0768C101.827 91.3775 106.933 94.2382 108.803 95.8809C118.757 106.957 110.847 117.321 105.648 121.118C102.143 123.221 96.5928 122.929 94.2561 122.52C82.7591 119.015 82.5722 108.441 83.9158 103.592Z" fill="#1FAD66"/>
<path d="M91.4531 109.726L97.5872 114.634L104.948 101.489" stroke="white" stroke-width="1.55729" stroke-linecap="round"/>
<path fill-rule="evenodd" clip-rule="evenodd" d="M83.8512 86.027C83.1144 86.5623 82.1629 87.4715 81.2162 88.4696L80.5009 87.9822L81.2162 88.4696C80.9033 88.7995 80.4589 88.8853 80.1678 88.9031C79.8579 88.9221 79.5466 88.878 79.2799 88.8116C79.0089 88.7442 78.7336 88.6412 78.4933 88.5074C78.2724 88.3844 77.9854 88.1822 77.827 87.882C77.732 87.7021 77.6074 87.5089 77.4457 87.3033C77.4093 87.2571 77.386 87.2433 77.3838 87.242C77.3837 87.242 77.3866 87.2426 77.3831 87.2421C77.3654 87.2396 77.2594 87.2334 77.0282 87.3219C76.5526 87.5039 75.9107 87.9435 75.1685 88.6042C73.7125 89.9005 72.1675 91.7751 71.1885 93.1155C70.9217 93.4808 70.3561 93.5937 69.9251 93.3675C69.4941 93.1414 69.361 92.6619 69.6278 92.2966C70.6373 90.9144 72.2588 88.9384 73.8391 87.5315C74.6151 86.8406 75.4589 86.2154 76.2729 85.9039C76.6866 85.7456 77.1765 85.6356 77.6852 85.7075C78.2309 85.7847 78.6681 86.0526 78.973 86.4403C79.1723 86.6936 79.3376 86.9436 79.4719 87.1896C79.4798 87.1947 79.4896 87.2006 79.5013 87.2072C79.573 87.247 79.6791 87.2895 79.797 87.3188C79.8477 87.3315 79.8921 87.3395 79.9288 87.3445C80.8464 86.3859 81.8266 85.4488 82.6565 84.8458C83.0703 84.5452 83.5555 84.2448 84.0417 84.1293C84.3004 84.0679 84.6676 84.0333 85.0372 84.1814C85.4249 84.3367 85.6331 84.619 85.734 84.8755C85.9974 85.5453 86.0788 86.4128 86.0848 87.2356C86.0887 87.7603 86.0616 88.2966 86.0188 88.7994L89.5885 86.4041C89.9753 86.1445 90.517 86.0696 90.998 86.2556C91.5161 86.4559 92.2092 86.7689 92.7889 87.1441C93.078 87.3312 93.3704 87.5539 93.5981 87.8079C93.715 87.9383 93.8315 88.0956 93.9158 88.276C93.9984 88.2575 94.0952 88.233 94.2066 88.2011C94.8937 88.0046 95.7549 87.6419 96.3447 87.3607C96.7864 87.1501 97.346 87.2829 97.5945 87.6573C97.843 88.0318 97.6864 88.5061 97.2446 88.7167C96.6106 89.019 95.6362 89.4342 94.7936 89.6752C94.3942 89.7895 93.9137 89.8982 93.4853 89.8825C93.2689 89.8745 92.9447 89.8314 92.6597 89.6393C92.3418 89.425 92.2134 89.1232 92.206 88.8425C92.1993 88.8294 92.181 88.7988 92.1367 88.7493C92.0451 88.6472 91.8918 88.521 91.6747 88.3806C91.3239 88.1534 90.889 87.9413 90.4992 87.7773L86.3544 90.5585C85.3558 91.2286 83.9757 90.4988 84.1023 89.4966C84.1879 88.8198 84.2549 88.0106 84.2493 87.2452C84.2453 86.7082 84.2054 86.2266 84.1264 85.8387C84.0462 85.8898 83.9545 85.9519 83.8512 86.027ZM84.5387 85.6271C84.5387 85.6271 84.5382 85.6272 84.5373 85.6274C84.5382 85.6272 84.5387 85.6271 84.5387 85.6271ZM93.5647 88.3281C93.5572 88.3278 93.5581 88.3274 93.5656 88.3281C93.5653 88.3281 93.565 88.3281 93.5647 88.3281ZM85.2156 89.3384C85.2154 89.3385 85.2152 89.3386 85.2151 89.3387L85.4793 89.6216L85.2151 89.3387L85.2156 89.3384ZM80.0396 87.351C80.0396 87.351 80.0391 87.3511 80.0381 87.3512L80.0396 87.351Z" fill="#5F8083"/>
<path d="M81.5594 77.9362L80.7945 82.6767C80.6068 83.8399 82.1997 84.545 83.1381 83.7142L88.322 79.1245C88.4362 79.0235 88.5294 78.9055 88.5975 78.7759L107.009 43.7589C107.094 43.5973 107.154 43.4155 107.099 43.2439C106.652 41.8321 102.418 43.3963 99.933 44.5513C99.6771 44.6702 99.475 44.8602 99.3496 45.0908L81.6822 77.5786C81.6208 77.6915 81.5794 77.8121 81.5594 77.9362Z" fill="#FD6229"/>
<path d="M85.0421 81.8098L81.5896 80.5871V83.6439L85.0421 81.8098Z" fill="#FD6229"/>
<path fill-rule="evenodd" clip-rule="evenodd" d="M103.945 44.0916C102.654 44.4238 101.104 45.0625 99.9399 45.6148C99.8269 45.6684 99.7326 45.7564 99.6719 45.8704L97.2621 50.3965H102.507L105.763 44.07C105.79 44.0186 105.802 43.9842 105.806 43.964C105.8 43.952 105.794 43.9473 105.78 43.9395C105.744 43.9196 105.657 43.8869 105.483 43.8748C105.127 43.8501 104.6 43.9231 103.945 44.0916ZM101.896 51.5832H96.6303L82.8851 77.3996C82.8559 77.4544 82.8362 77.5129 82.8267 77.5731L82.5167 79.5353L85.4959 80.613L88.1389 78.2229C88.1931 78.1739 88.2374 78.1166 88.2698 78.0538L101.896 51.5832ZM86.8214 81.0924L89.0667 79.062C89.2294 78.9149 89.3623 78.7431 89.4593 78.5545L106.953 44.5708C107.052 44.3795 107.193 44.0379 107.076 43.6603C106.978 43.3435 106.765 43.0962 106.473 42.9321C106.198 42.7771 105.883 42.7124 105.583 42.6917C104.992 42.6507 104.285 42.7704 103.586 42.9502C102.17 43.3147 100.528 43.9955 99.3301 44.5641C98.9569 44.7413 98.6672 45.0221 98.4897 45.3556L81.7028 76.8848C81.6153 77.0492 81.5563 77.2247 81.5277 77.4053L80.801 82.0059C80.6886 82.7171 81.024 83.3107 81.5498 83.6704V84.0763L81.9239 83.8734C82.6169 84.164 83.4897 84.1054 84.1412 83.5162L86.4797 81.4014L86.9581 81.1419L86.8214 81.0924ZM84.0146 81.3552L82.862 80.9382V81.9806L84.0146 81.3552Z" fill="black"/>
</svg>
