<svg width="149" height="150" viewBox="0 0 149 150" fill="none" xmlns="http://www.w3.org/2000/svg">
<rect y="0.897461" width="149" height="149" rx="74.5" fill="white"/>
<path d="M56.0602 41.4016C55.9316 33.447 61.05 32.9873 64.0938 33.864C64.4322 33.9615 64.7701 34.0584 65.1166 34.121L107.52 41.7819C107.99 41.867 108.472 41.8867 108.95 41.9022C115.284 42.1078 115.013 49.7167 114.037 53.6326L110.877 71.124L105.605 100.304C105.528 100.726 105.498 101.162 105.501 101.591C105.563 111.466 100.6 112.408 97.5643 111.517C97.1441 111.394 96.7259 111.26 96.2949 111.182L90.0751 110.059L51.2911 103.052C45.4094 102.607 45.4317 98.196 46.2812 95.6585L46.2916 95.6272C46.3919 95.3278 46.4922 95.0282 46.5649 94.7209L49.9893 80.2385L54.2267 56.7841L56.0115 42.4474C56.0544 42.1027 56.0658 41.7489 56.0602 41.4016Z" fill="#F2F1FE"/>
<path d="M54.0199 46.6547C53.3575 38.7268 58.4334 37.9244 61.5293 38.5947C61.8734 38.6692 62.2171 38.7433 62.5671 38.7825L105.389 43.5789C105.864 43.6321 106.346 43.6195 106.824 43.6029C113.157 43.3827 113.398 50.9926 112.687 54.9652L110.708 72.6293L107.408 102.098C107.36 102.524 107.359 102.961 107.391 103.388C108.116 113.237 103.227 114.51 100.138 113.825C99.7108 113.73 99.2845 113.625 98.8493 113.576L92.5682 112.873L53.4011 108.486C47.5028 108.437 47.229 104.035 47.9061 101.446L47.9145 101.414C47.9944 101.108 48.0744 100.803 48.1263 100.491L50.5704 85.8116L53.2235 62.1256L54.0416 47.7015C54.0613 47.3546 54.0488 47.0009 54.0199 46.6547Z" fill="#E7E6F4"/>
<path d="M47.7948 51.0958C46.3788 43.2673 51.3549 41.9841 54.5006 42.3559C54.8503 42.3973 55.1995 42.4382 55.5516 42.4438L98.6356 43.1311C99.1139 43.1387 99.5924 43.0801 100.067 43.0179C106.35 42.1943 107.315 49.7466 106.987 53.7688L106.704 71.5411L106.231 101.19C106.224 101.619 106.265 102.054 106.337 102.476C107.999 112.211 103.254 113.945 100.114 113.558C99.6793 113.504 99.2449 113.44 98.807 113.433L92.4874 113.332L53.0805 112.704C47.2044 113.218 46.5116 108.862 46.9386 106.22L46.9438 106.188C46.9943 105.876 47.0447 105.564 47.0666 105.249L48.0985 90.4032L48.4787 66.5721L47.9163 52.1358C47.9028 51.7886 47.8567 51.4377 47.7948 51.0958Z" fill="#DDDCEC"/>
<path d="M42.073 49.8004C40.5322 41.9954 45.4873 40.633 48.6385 40.9546C48.9888 40.9903 49.3386 41.0257 49.6908 41.0257H92.7802C93.2586 41.0257 93.7361 40.9595 94.2094 40.8897C100.479 39.966 101.564 47.5019 101.3 51.5289V69.3034V98.9564C101.3 99.385 101.348 99.8193 101.427 100.241C103.244 109.947 98.5277 111.757 95.3817 111.42C94.9463 111.373 94.511 111.316 94.073 111.316H87.7526H48.3406C42.4735 111.924 41.7113 107.58 42.0961 104.932L42.1009 104.899C42.1463 104.586 42.1918 104.274 42.2086 103.958L43.0036 89.0979V65.2638L42.2111 50.8382C42.192 50.4913 42.1403 50.1412 42.073 49.8004Z" fill="#F5F5F5"/>
<path fill-rule="evenodd" clip-rule="evenodd" d="M51.498 54.0581C51.498 53.0827 52.2888 52.292 53.2642 52.292H80.6391C81.6145 52.292 82.4053 53.0827 82.4053 54.0581C82.4053 55.0335 81.6145 55.8242 80.6391 55.8242H53.2642C52.2888 55.8242 51.498 55.0335 51.498 54.0581Z" fill="#D4D4D4"/>
<path fill-rule="evenodd" clip-rule="evenodd" d="M51.498 69.9531C51.498 68.9777 52.2888 68.187 53.2642 68.187H80.6391C81.6145 68.187 82.4053 68.9777 82.4053 69.9531C82.4053 70.9285 81.6145 71.7193 80.6391 71.7193H53.2642C52.2888 71.7193 51.498 70.9285 51.498 69.9531Z" fill="#D4D4D4"/>
<path fill-rule="evenodd" clip-rule="evenodd" d="M51.498 78.7837C51.498 77.8083 52.2888 77.0176 53.2642 77.0176H80.6391C81.6145 77.0176 82.4053 77.8083 82.4053 78.7837C82.4053 79.7591 81.6145 80.5498 80.6391 80.5498H53.2642C52.2888 80.5498 51.498 79.7591 51.498 78.7837Z" fill="#D4D4D4"/>
<path fill-rule="evenodd" clip-rule="evenodd" d="M51.498 61.1231C51.498 60.1477 52.2888 59.3569 53.2642 59.3569H80.6391C81.6145 59.3569 82.4053 60.1477 82.4053 61.1231C82.4053 62.0985 81.6145 62.8892 80.6391 62.8892H53.2642C52.2888 62.8892 51.498 62.0985 51.498 61.1231Z" fill="#D4D4D4"/>
<path fill-rule="evenodd" clip-rule="evenodd" d="M51.498 85.8486C51.498 84.8732 52.2888 84.0825 53.2642 84.0825H80.6391C81.6145 84.0825 82.4053 84.8732 82.4053 85.8486C82.4053 86.8241 81.6145 87.6148 80.6391 87.6148H53.2642C52.2888 87.6148 51.498 86.8241 51.498 85.8486Z" fill="#D4D4D4"/>
<path fill-rule="evenodd" clip-rule="evenodd" d="M91.2344 54.9414C91.2344 53.966 91.3699 53.1753 91.5371 53.1753H96.23C96.3972 53.1753 96.5328 53.966 96.5328 54.9414C96.5328 55.9168 96.3972 56.7075 96.23 56.7075H91.5371C91.3699 56.7075 91.2344 55.9168 91.2344 54.9414Z" fill="#D4D4D4"/>
<path fill-rule="evenodd" clip-rule="evenodd" d="M91.2344 70.8364C91.2344 69.861 91.3699 69.0703 91.5371 69.0703H96.23C96.3972 69.0703 96.5328 69.861 96.5328 70.8364C96.5328 71.8118 96.3972 72.6026 96.23 72.6026H91.5371C91.3699 72.6026 91.2344 71.8118 91.2344 70.8364Z" fill="#D4D4D4"/>
<path fill-rule="evenodd" clip-rule="evenodd" d="M91.2344 79.667C91.2344 78.6916 91.3699 77.9009 91.5371 77.9009H96.23C96.3972 77.9009 96.5328 78.6916 96.5328 79.667C96.5328 80.6424 96.3972 81.4331 96.23 81.4331H91.5371C91.3699 81.4331 91.2344 80.6424 91.2344 79.667Z" fill="#D4D4D4"/>
<path fill-rule="evenodd" clip-rule="evenodd" d="M91.2344 62.0059C91.2344 61.0305 91.3699 60.2397 91.5371 60.2397H96.23C96.3972 60.2397 96.5328 61.0305 96.5328 62.0059C96.5328 62.9813 96.3972 63.772 96.23 63.772H91.5371C91.3699 63.772 91.2344 62.9813 91.2344 62.0059Z" fill="#D4D4D4"/>
<path fill-rule="evenodd" clip-rule="evenodd" d="M91.2344 86.7315C91.2344 85.7561 91.3699 84.9653 91.5371 84.9653H96.23C96.3972 84.9653 96.5328 85.7561 96.5328 86.7315C96.5328 87.7069 96.3972 88.4976 96.23 88.4976H91.5371C91.3699 88.4976 91.2344 87.7069 91.2344 86.7315Z" fill="#D4D4D4"/>
<path fill-rule="evenodd" clip-rule="evenodd" d="M51.498 94.6792C51.498 93.7038 52.2888 92.9131 53.2642 92.9131H80.6391C81.6145 92.9131 82.4053 93.7038 82.4053 94.6792C82.4053 95.6546 81.6145 96.4453 80.6391 96.4453H53.2642C52.2888 96.4453 51.498 95.6546 51.498 94.6792Z" fill="#D4D4D4"/>
<path fill-rule="evenodd" clip-rule="evenodd" d="M51.498 101.744C51.498 100.768 52.2888 99.9775 53.2642 99.9775H80.6391C81.6145 99.9775 82.4053 100.768 82.4053 101.744C82.4053 102.719 81.6145 103.51 80.6391 103.51H53.2642C52.2888 103.51 51.498 102.719 51.498 101.744Z" fill="#D4D4D4"/>
<path fill-rule="evenodd" clip-rule="evenodd" d="M91.2344 95.5625C91.2344 94.5871 91.3699 93.7964 91.5371 93.7964H96.23C96.3972 93.7964 96.5328 94.5871 96.5328 95.5625C96.5328 96.5379 96.3972 97.3286 96.23 97.3286H91.5371C91.3699 97.3286 91.2344 96.5379 91.2344 95.5625Z" fill="#D4D4D4"/>
<path fill-rule="evenodd" clip-rule="evenodd" d="M91.2344 102.627C91.2344 101.652 91.3699 100.861 91.5371 100.861H96.23C96.3972 100.861 96.5328 101.652 96.5328 102.627C96.5328 103.602 96.3972 104.393 96.23 104.393H91.5371C91.3699 104.393 91.2344 103.602 91.2344 102.627Z" fill="#D4D4D4"/>
<path d="M100.129 109.378V106.325C100.129 105.811 99.8246 105.333 99.3273 105.2C94.6308 103.94 88.8178 108.477 84.766 112.787C83.849 113.763 82.12 112.974 82.4433 111.675C85.8622 97.9445 93.5142 95.3971 98.378 96.0691C99.2536 96.1901 100.129 95.5619 100.129 94.6794V93.3176C100.129 92.1962 101.467 91.6126 102.291 92.3745L112.015 101.363C112.61 101.913 112.554 102.869 111.898 103.345L102.175 110.416C101.324 111.035 100.129 110.428 100.129 109.378Z" fill="#FC6E47"/>
</svg>
