<svg width="149" height="150" viewBox="0 0 149 150" fill="none" xmlns="http://www.w3.org/2000/svg">
<rect y="0.27832" width="149" height="149" rx="74.5" fill="white"/>
<path d="M55.3203 135.653C65.6675 114.731 93.4572 73.7056 121.838 76.9804" stroke="#CDDADA" stroke-width="2.0467" stroke-linecap="round"/>
<path d="M55.3219 131.563C56.3452 127.583 54.3667 118.805 38.266 115.53C35.3096 114.621 30.6932 111.164 35.8782 104.615C42.7006 98.7018 50.8192 86.9447 28.7148 87.2176" stroke="#CDDADA" stroke-width="2.0467" stroke-linecap="round"/>
<path d="M64.1918 117.573C66.2385 110.41 62.2815 96.0146 30.0801 95.7417M65.5563 137.017C69.1949 124.168 84.5224 100.108 116.724 106.657" stroke="#CDDADA" stroke-width="2.0467" stroke-linecap="round"/>
<path d="M29.7383 74.2517C33.1495 74.3654 41.6774 71.2499 48.4997 57.8781C51.4561 54.4669 60.0295 47.3034 70.6723 45.939C73.9698 46.0527 85.0675 49.0772 103.078 60.2659C106.831 61.0618 115.563 62.1761 120.475 60.2659" stroke="#CDDADA" stroke-width="2.0467" stroke-linecap="round"/>
<path d="M29.0566 51.0542C35.1968 45.9374 51.0928 37.8188 65.5562 46.2785C73.9704 45.8237 93.4596 45.5281 104.102 47.9841" stroke="#CDDADA" stroke-width="2.0467" stroke-linecap="round"/>
<path d="M120.475 44.9136C114.676 45.0273 101.986 48.2565 97.62 60.2638C94.0951 65.8354 86.4996 77.3197 84.3164 78.6842" stroke="#CDDADA" stroke-width="2.0467" stroke-linecap="round"/>
<path d="M29.7383 54.4662C41.5637 49.2357 64.1911 45.3242 60.0977 71.522C60.8937 78.5718 52.252 93.0124 62.4855 106.316" stroke="#CDDADA" stroke-width="2.0467" stroke-linecap="round"/>
<path d="M118.771 32.9764C115.246 33.7723 107.173 34.8867 103.079 32.9764C93.9827 31.0434 72.9244 29.7017 61.4629 39.7987" stroke="#CDDADA" stroke-width="2.0467" stroke-linecap="round"/>
<path d="M32.4668 31.6107C38.948 29.564 54.7759 29.564 66.2374 45.9376" stroke="#CDDADA" stroke-width="2.0467" stroke-linecap="round"/>
<path d="M29.7383 83.4619C47.1353 75.9574 85.6133 67.6341 100.35 94.3777C103.533 97.334 111.743 103.52 119.111 104.611" stroke="#CDDADA" stroke-width="2.0467" stroke-linecap="round"/>
<path d="M72.0363 11.144C73.9693 18.4212 74.8335 34.2036 62.8262 39.1157" stroke="#CDDADA" stroke-width="2.0467" stroke-linecap="round"/>
<path d="M61.2637 71.2338C62.4472 78.9289 70.0811 90.7921 74.7302 97.2046C88.9661 79.506 90.2805 67.3863 89.1582 63.5388C86.0802 50.842 76.3333 50.2328 71.8447 51.5153C59.5326 56.1323 60.3021 64.9816 61.2637 71.2338Z" fill="#FD6229"/>
<path d="M71.6445 58.335C66.6427 61.7977 67.3161 67.1522 68.2779 69.3966C70.2017 73.2441 75.1714 73.2441 77.4157 72.7632C82.8023 70.0699 82.5458 65.2284 81.7442 63.1444C79.4357 56.9883 74.0492 57.3731 71.6445 58.335Z" fill="#F5F5F5"/>
</svg>
