<svg width="149" height="150" viewBox="0 0 149 150" fill="none" xmlns="http://www.w3.org/2000/svg">
<rect y="0.27832" width="149" height="149" rx="74.5" fill="white"/>
<rect x="24.0566" y="48.3936" width="102.115" height="30.0338" rx="6.00675" fill="#1FAD66"/>
<path d="M49.3563 67.8374L49.6016 63.5179L45.9754 65.8963L44.6742 63.6352L48.5458 61.6941L44.6742 59.753L45.9754 57.4919L49.6016 59.8703L49.3563 55.5508H51.948L51.7134 59.8703L55.3396 57.4919L56.6408 59.753L52.7586 61.6941L56.6408 63.6352L55.3396 65.8963L51.7134 63.5179L51.948 67.8374H49.3563ZM65.6637 67.8374L65.909 63.5179L62.2828 65.8963L60.9816 63.6352L64.8532 61.6941L60.9816 59.753L62.2828 57.4919L65.909 59.8703L65.6637 55.5508H68.2554L68.0208 59.8703L71.647 57.4919L72.9482 59.753L69.066 61.6941L72.9482 63.6352L71.647 65.8963L68.0208 63.5179L68.2554 67.8374H65.6637ZM81.9711 67.8374L82.2164 63.5179L78.5902 65.8963L77.289 63.6352L81.1606 61.6941L77.289 59.753L78.5902 57.4919L82.2164 59.8703L81.9711 55.5508H84.5628L84.3282 59.8703L87.9544 57.4919L89.2556 59.753L85.3734 61.6941L89.2556 63.6352L87.9544 65.8963L84.3282 63.5179L84.5628 67.8374H81.9711ZM98.2785 67.8374L98.5238 63.5179L94.8976 65.8963L93.5964 63.6352L97.468 61.6941L93.5964 59.753L94.8976 57.4919L98.5238 59.8703L98.2785 55.5508H100.87L100.636 59.8703L104.262 57.4919L105.563 59.753L101.681 61.6941L105.563 63.6352L104.262 65.8963L100.636 63.5179L100.87 67.8374H98.2785Z" fill="black"/>
<circle cx="76.5146" cy="92.1611" r="19.8681" fill="#FD6229"/>
<path fill-rule="evenodd" clip-rule="evenodd" d="M86.1795 82.7396C86.7568 82.5761 87.3573 82.9116 87.5208 83.4888C89.439 90.2613 89.0791 95.0848 86.3986 98.1908C83.7559 101.253 79.1757 102.252 73.6937 102.252C73.0938 102.252 72.6074 101.766 72.6074 101.166C72.6074 100.566 73.0938 100.08 73.6937 100.08C79.0751 100.08 82.7761 99.0628 84.7538 96.7713C86.6935 94.5238 87.2929 90.6566 85.4304 84.0809C85.2669 83.5036 85.6023 82.9031 86.1795 82.7396Z" fill="white"/>
<path fill-rule="evenodd" clip-rule="evenodd" d="M73.6938 94.6479C74.2938 94.6479 74.7802 95.1343 74.7802 95.7343V100.623L78.6909 103.556C79.1709 103.916 79.2682 104.597 78.9082 105.077C78.5482 105.557 77.8673 105.654 77.3873 105.294L72.6075 101.709V95.7343C72.6075 95.1343 73.0939 94.6479 73.6938 94.6479Z" fill="white"/>
<path fill-rule="evenodd" clip-rule="evenodd" d="M66.465 98.9523C65.8877 99.1158 65.2872 98.7803 65.1237 98.2031C63.2055 91.4306 63.5654 86.6071 66.246 83.5011C68.8886 80.439 73.4689 79.4395 78.9508 79.4395C79.5507 79.4395 80.0371 79.9258 80.0371 80.5258C80.0371 81.1258 79.5507 81.6121 78.9508 81.6121C73.5694 81.6121 69.8684 82.6291 67.8908 84.9206C65.9511 87.1681 65.3517 91.0352 67.2142 97.611C67.3777 98.1883 67.0422 98.7888 66.465 98.9523Z" fill="white"/>
<path fill-rule="evenodd" clip-rule="evenodd" d="M78.9507 87.044C78.3507 87.044 77.8644 86.5576 77.8644 85.9576V81.0692L73.9536 78.1361C73.4736 77.7761 73.3763 77.0952 73.7363 76.6152C74.0963 76.1352 74.7772 76.038 75.2572 76.398L80.037 79.9828V85.9576C80.037 86.5576 79.5507 87.044 78.9507 87.044Z" fill="white"/>
</svg>
