<svg width="107" height="108" viewBox="0 0 107 108" fill="none" xmlns="http://www.w3.org/2000/svg">
<rect y="0.897461" width="107" height="107" rx="53.5" fill="white"/>
<path d="M34.4736 77.3294C31.3959 77.3294 28.6601 76.8022 26.2663 75.7478C23.8867 74.6934 22.0058 73.2257 20.6237 71.3449C19.2415 69.464 18.5077 67.291 18.4222 64.826H26.4586C26.5299 66.0086 26.9217 67.0417 27.6342 67.9251C28.3466 68.7943 29.2942 69.4711 30.4768 69.9556C31.6595 70.4401 32.9846 70.6823 34.4523 70.6823C36.0197 70.6823 37.4089 70.4116 38.6201 69.8701C39.8312 69.3144 40.7788 68.5449 41.4627 67.5618C42.1467 66.5786 42.4815 65.4458 42.4673 64.1634C42.4815 62.8382 42.1396 61.6698 41.4414 60.6582C40.7432 59.6465 39.7315 58.8557 38.4064 58.2857C37.0954 57.7158 35.5138 57.4308 33.6615 57.4308H29.7929V51.318H33.6615C35.1861 51.318 36.5184 51.0544 37.6583 50.5272C38.8124 50 39.7173 49.259 40.3727 48.3043C41.0282 47.3354 41.3488 46.2169 41.3345 44.9487C41.3488 43.709 41.0709 42.6333 40.5009 41.7213C39.9452 40.7951 39.1544 40.0756 38.1285 39.5626C37.1168 39.0496 35.927 38.7932 34.5591 38.7932C33.2197 38.7932 31.9801 39.0354 30.8402 39.5199C29.7003 40.0043 28.7812 40.6954 28.083 41.5931C27.3848 42.4765 27.0143 43.5309 26.9716 44.7563H19.3413C19.3983 42.3055 20.1036 40.1539 21.4572 38.3016C22.8251 36.435 24.649 34.9816 26.9288 33.9414C29.2087 32.887 31.7663 32.3598 34.6019 32.3598C37.5229 32.3598 40.0592 32.9084 42.2108 34.0055C44.3767 35.0884 46.0509 36.549 47.2336 38.3871C48.4162 40.2252 49.0076 42.2557 49.0076 44.4785C49.0218 46.9436 48.2951 49.0097 46.8275 50.6768C45.3741 52.3439 43.4647 53.4339 41.0994 53.9469V54.2889C44.1772 54.7164 46.5354 55.8563 48.174 57.7086C49.8269 59.5467 50.6462 61.8337 50.6319 64.5695C50.6319 67.0203 49.9337 69.2146 48.5373 71.1525C47.1552 73.0761 45.2458 74.5865 42.8093 75.6837C40.387 76.7808 37.6084 77.3294 34.4736 77.3294ZM73.9984 77.3294C71.9038 77.3152 69.8591 76.9518 67.8642 76.2394C65.8694 75.5127 64.074 74.3371 62.4781 72.7128C60.8823 71.0741 59.6141 68.9012 58.6737 66.1939C57.7333 63.4723 57.2702 60.1024 57.2844 56.0842C57.2844 52.3368 57.6834 48.9954 58.4813 46.0601C59.2793 43.1248 60.4263 40.6455 61.9224 38.6222C63.4186 36.5846 65.2211 35.0314 67.3299 33.9628C69.453 32.8941 71.8254 32.3598 74.4473 32.3598C77.1973 32.3598 79.6339 32.9012 81.757 33.9841C83.8943 35.0671 85.6184 36.549 86.9293 38.4298C88.2402 40.2964 89.0524 42.4053 89.3659 44.7563H81.5646C81.1656 43.075 80.3463 41.7356 79.1067 40.7381C77.8812 39.7265 76.3281 39.2206 74.4473 39.2206C71.4122 39.2206 69.0754 40.5387 67.4368 43.1747C65.8124 45.8108 64.9931 49.43 64.9788 54.0324H65.2781C65.9763 52.7785 66.8811 51.7027 67.9925 50.805C69.1039 49.9073 70.3578 49.2163 71.7542 48.7318C73.1649 48.2331 74.6539 47.9837 76.2212 47.9837C78.7861 47.9837 81.0873 48.5964 83.1249 49.8218C85.1767 51.0472 86.8011 52.7357 87.998 54.8873C89.1949 57.0247 89.7862 59.4755 89.772 62.2398C89.7862 65.1181 89.1308 67.7043 87.8056 69.9983C86.4805 72.2782 84.6352 74.0735 82.2699 75.3844C79.9046 76.6953 77.1474 77.3437 73.9984 77.3294ZM73.9557 70.9174C75.5088 70.9174 76.8981 70.5398 78.1235 69.7846C79.3489 69.0294 80.3178 68.0106 81.0303 66.7282C81.7427 65.4458 82.0918 64.0067 82.0776 62.4108C82.0918 60.8434 81.7498 59.4256 81.0516 58.1575C80.3677 56.8893 79.4201 55.8848 78.209 55.1438C76.9978 54.4029 75.6157 54.0324 74.0625 54.0324C72.9084 54.0324 71.8326 54.2533 70.8351 54.695C69.8377 55.1367 68.9685 55.7494 68.2276 56.5331C67.4866 57.3025 66.9024 58.2002 66.475 59.2261C66.0618 60.2378 65.848 61.3207 65.8338 62.4749C65.848 63.9995 66.2042 65.4031 66.9024 66.6855C67.6006 67.9679 68.5624 68.9938 69.7879 69.7632C71.0133 70.5327 72.4025 70.9174 73.9557 70.9174Z" fill="#D3464E"/>
</svg>
